<mxfile host="Electron" agent="Mozilla/5.0 (X11; Linux x86_64) AppleWebKit/537.36 (KHTML, like Gecko) draw.io/26.1.1 Chrome/134.0.6998.205 Electron/35.6.0 Safari/537.36" version="26.1.1">
  <diagram name="Page-1" id="ipzq9l7qohQ6xf0Dd_B-">
    <mxGraphModel dx="988" dy="575" grid="1" gridSize="10" guides="1" tooltips="1" connect="1" arrows="1" fold="1" page="1" pageScale="1" pageWidth="850" pageHeight="1100" math="0" shadow="0">
      <root>
        <mxCell id="0" />
        <mxCell id="1" parent="0" />
        <mxCell id="woaUJ1NgNmfOBe0f4mOw-11" value="" style="rounded=0;whiteSpace=wrap;html=1;strokeColor=none;opacity=0;" parent="1" vertex="1">
          <mxGeometry x="240" y="420" width="440" height="100" as="geometry" />
        </mxCell>
        <mxCell id="woaUJ1NgNmfOBe0f4mOw-19" value="" style="rounded=0;whiteSpace=wrap;html=1;strokeColor=none;opacity=0;" parent="1" vertex="1">
          <mxGeometry x="250.07" y="560" width="429.93" height="100" as="geometry" />
        </mxCell>
        <mxCell id="woaUJ1NgNmfOBe0f4mOw-1" value="" style="shape=image;verticalLabelPosition=bottom;labelBackgroundColor=default;verticalAlign=top;aspect=fixed;imageAspect=0;image=data:image/png,iVBORw0KGgoAAAANSUhEUgAAAwcAAAE0CAYAAAB5KU9lAAAABHNCSVQICAgIfAhkiAAAIABJREFUeF7tnQWcFMfyxysc7u7u7g4JmgBxN+Lu+uIKIW4v+ceVuOeREEgIEBLcJXhwgrv7Hf+uvdu72dmZHdmRnplfvw+fl51pqf723ExXd3XVCcdFIiQQAAEQAAEQAAEQAAEQAIHIE8gXeQIAAAIgAAIgAAIgAAIgAAIgECMA5QAPAgiAAAiAAAiAAAiAAAiAQIwAlAM8CCAAAiAAAiAAAiAAAiAAAjECUA7wIIAACIAACIAACIAACIAACMQIQDnAgwACIAACIAACIAACIAACIBAjAOUADwIIgAAIgAAIgAAIgAAIgECMAJQDPAggAAIgAAIgAAIgAAIgAAIxAlAO8CCAAAiAAAiAAAiAAAiAAAjECEA5wIMAAiAAAiAAAiAAAiAAAiAQIwDlAA8CCIAACIAACIAACIAACIBAjACUAzwIIAACIAACIAACIAACIAACMQJQDvAggAAIgAAIgAAIgIAJAsePHyf+hwQCYSYA5SDMo4u+gQAIgAAIgAAIOEIgK+s4nfnGJLrsw2lQEBwhikpkJZBfVsEgFwiAAAiAAAiAAAjIQmDltv00f/3umDiZQlHIn3GCLKJBDhBwlAB2DhzFicpAAARAAARAAATCSOAEhS4Aw6IwjjD6FCcA5QDPAgiAAAiAAAiAAAgYEMin0A6ycO7AgBZuB5kAlIMgjx5kBwEQAAEQAAEQAAEQAAEHCUA5cBAmqgIBEAABEAABEAg/gRMI5w3CP8rR7SGUg+iOPXoOAiAAAiAAAiBgg4BwaGqjFIqAQDAIQDkIxjhBShAAARAAARAAARAAARBwnQCUA9cRowEQAAEQAAEQAAEQAAEQCAYBKAfBGCdICQIgAAIgAAIgIAkBOCuSZCAghisEoBy4ghWVggAIgAAIgAAIhIkAjiCHaTTRl1QEoBykooN7IAACIAACIAACICAI4AgyHoOoEIByEJWRRj9BAARAAARAAARAAARAwIAAlAMDQLgNAiAAAiAAAiAAAjArwjMQFQJQDqIy0ugnCIAACIAACICAbQIwK7KNDgUDRgDKQcAGDOKCAAiAAAiAAAj4SwDeivzlj9bdJQDlwF2+qB0EQAAEQAAEQCAEBGBWFIJBRBdMEYByYAoTMoEACIAACIAACESZAMyKojz60eo7lINojTd6CwIgAAIgAAIgAAIgAAK6BKAc6KLBDRAAARAAARAAARBIJjB15Xbatu9w8g1cAYEQEIByEIJBRBdAAARAAATCSSAz6zgdx+lXKQZXeebg6qEzqP2QMUly8VjtOnAk6TougECQCEA5CNJoQVYQAAEQAIHIEDh8LJO6P/8HXfr+tMj0WeaOmjlzMGj4Imo9eDSNWrhJ5q5ANhBISQDKQUo8uAkCIAACIAAC/hCYtWYnbdx9iKYIExakYBAYOnl1TNDnf10SDIEhJQhoEIByoAEFl0AABEAABEDAbwInEJxn+j0GyvYxGjKNBmRxkwCUAzfpom4QAAEQAAEQsEngBMxGbZJzp5gZs6J4y4ePZdGO/Th74M5IoFa3CUA5cJsw6gcBEAABEAABGwSgG9iAJkmR9bsOUtunRtOWvYckkQhigIB5AlAOzLNCThAAARAAARDwjMAJ2DrwjLWZhuwoa9NW7jBTNfKAgFQEoBxINRwQBgRAAARAAASyCUA3kOtJsGJWpJb8aGaW+hJ+g4C0BKAcSDs0EAwEQAAEQAAEgk1g76Gj9O5fK+jfHQeC3REh/dcz1trqwyuj/6EGj/xK89fttlUehUDAawJQDrwmjvZAAAQ8IfD51DXU79XxwhXkQU/aQyMg4DQBO2YsTsuQbn3s9/9Z4dbztNcnpFuVr+UPHskUSs5KWzK8PnZZrNzTIxfZKo9CIOA1ASgHXhNHeyAAAo4RyBLRY+/5Zi59NHFVUp2PDltASzfvhb/xJDK4EBQCYTArmrIiO0bDnkPHgoJdU86jWfbMgtIxRdIUBBdBwAMCUA48gIwmQAAE3CHwx5It9OOc9TT4l7wVuXU7D9DP8zbkNsguBZFAIIgEcCA5iKMGmUEg+ATyB78L6AEIgEBUCew7nLwa2f35cVHFgX6HjIDSrOj48eMEZSFkA4zugICkBLBzIOnAQCwQAIHUBBZv3ENb9x7OzcQBh/aIw4/qFAbTDHWf8Dt6BIRuIH1atW0/3fvtPFq+ZZ/0skJAEAABfQLYOdBngzsgAAKSElixdR8NeC3xgOOTPy+kWuWKJkl8AoXhWGdSt3AhAgSUOwUB0A3osg+mEQf/+nPpFpr12MkRGCF0EQTCSQA7B+EcV/QKBEJNYM7aXUn9W7ltH+0N+KHHpE7hQqQJqM2KZIfBigGn7WIXL4ppnDgDZZTYicKM1TvowJFkk0ijsrgPAl4RgHLgFWm0AwKCAK9uv/z7UrCwQWDB+t106xez6bcFG+mhH//WrEHThAgbB5qscFF+As/+ujhXyCDsHMhP1F0Jrx46w7CBjyevpgvemUJXfDjdMC8ygIBfBGBW5Bd5tBs5AhwEaKj4MHC6q29DysiHWauVh+CMNyYS212PmL9Rs9iC9XuoZOECSfdAOQkJLgSAwJY9h2jqyh25kgbhzEEAsPou4tfTswOpzVyz03dZIAAI6BHAzoEeGVwHAYcJHMmES810kJqZHE3O8amubAceXtKhjrJeEeDD9ZnC5CSe1O+LnQeiaarjFX+jdrDIYEQI98NEAMpBmEYTfQEBEAABEAgcgbn/7qIOT4+hyz+clit7PpWNXKdnxgaqX/HI5JqmfoHqSbawTpl1hYVHAIcQIlsgAOXAAixkBQGnCExdmR011Kn6UI8+Aaz46bPBHTkIfD51TUwQ5c5X0CeR93+vfS5IDuLeScHxKZBAIGgEoBwEbcQgbygIDBQu/7TSfo2gXlr5cM08gaBPssz3FDnDRCDoLng37T4UpuGAQ+RQjSY6Y0QAyoERIdwHAZcI3Prl7ISa3/pzOTV7YhT98vcGl1pEtSAAAiDgDQGslydzDrrCl9wjXAkrASgHYR1Z9Et6AiP+TvS688Jv2S5OH8B2vKNjB7MiR3GiMhcIaD2jYdjxOiqcMKzbmR37wAVsgatyijAn/WczokcHbuAiKDCUgwgOOrrsLgEnbEzXbN9PQ35ZRGHbmneXvHbt8FakzQVX5SagpTDILXGidMu37KM7v54TJJEhKwiAQA4BxDnAowACDhJ45H/zadqqHTT8tu5UpGCG7Zo5SM4W4dqQI2n+JOqKclq5dR99PGm1bQRBn2TZ7jgKBoaA5i5BCB7ckfM3BWYMICgIgEAeASgHeBpAwEECX0xbG6ttpAjUdV676gk1W/nWs2LAad663Q5KF8yqWFHavj8NH+9WwAcTEaQGARDwmQAv5CCBQFgIwKwoLCOJfrhK4MixLLpm6Az6YMJKU+1oHcbTumaqsohnSksxiDg7dD+4BNRxDoLbk3BLHv8mPPHTwnB3FL2LFAEoB5EabnTWLoFhc9fTH0u20JARi+1WgXI+EYCHEJ/Ao1lbBI7lRFLHhpctfJ4XwjfBc+Ro0AMCUA48gIwmgk/gAOIPBHYQNe25A9sbCB52AleLHUpOOEgf9pFG/0BAXgJQDuQdG0gWMgJYCbQ+oPFVVOslUQIEgkNAubs1Ydm24AgOSXMJLNq4BzRAIDQEoByEZijRkSATGDppVZDFd032hRvS/+BCKXNteFCxiwTw3LoIF1WDAAikJADlICUe3ASBZAKDhts7eJbqQPKTwxclN4QrjhDYITwdjV60mTKzUo2AI02hEhCwRWDTnkOmyjkRQ8VUQ8iURABvjyQkuBBiAlAOQjy46Jo7BNLxuW9Gov1HMhOyLd+yl6I6KXDivMBYcZD8+k9n0hfT1pjBjzwg4CmBFSKOx1//bE1qU2syelzrYlJJXHCDwPSV+q5K2ZsdEgiEiQCUgzCNJvriGgEnvsl2zQT6vjKe3hy33LW+RaVi3j2YKXyRP/frEjp0NFEBiwoD9FM+AmMXbzYtVBa0A9OsnM54nVhg0EtPiWj2SCAQJgJQDsI0muhLaAm8Mvqf0PYtVcecdEPK3l/OFwHV3vlrBb37l7l4Falkwz0QcIIArN2coOhvHZ9Nxa6kvyOA1p0mAOXAaaKoDwR0CDix+6BTNS6bIKDcuVm5bZ+JEsgCAu4TsLIbgHeI++OBFkAABIigHOApAAEfCZg9SxDVSYETZw7iw6u069azzmD77z+WmDfz8PHRQdMhIaD3LJp9N4QEA7oBAiAgEQEoBxINBkQJJwH21T9t5XZy49DaROET/c6v59BO4ZEHKX0CfV7+i64ZOjN2NgEJBLwgYEUJ0FMkvJAzVRvb9x2mi9+bkipL7N6sNTvpaE4EaMPMyAACIOAbgfy+tYyGQSBkBNbtPJDbo72HjtKm3YeocqnC9OKopfTu+JXUqFKJpB7zxz6d1fHLPpwWq7NARj566YJWSfXjgjYBI+YL1u+m9rXLahfGVRBwkEAYzhw89ON8mprCm08c13lvT6YL2lWnFyP0rpJVoXPwEUZVISSAnYMQDiq65C0BXvn7cOIq6v78uNyGB4m4BZ2fHUtz/91F70/IPvy6dPNe1wRbv/Oga3WHsWJ8sMM4qsHsk5Vn8Tg5a2C4Ze8hynJAO7ESHfi7WeuCOVA2pXZ6zGyKgWIgYIkAlANLuJAZBJIJjFm8hfRc2Z395iRy4Nub3CiueE7g2ZGL6ekRcFnoOfiQN6h3IFlLDbCiSBhh4zM4HZ8eS7d+Odsoq+F9o504wwokzsCLP/83dpltCe/+Zp7tsigIAn4RgHLgF3m0G3gCcdvZUQs32e6L1gRAqzInJwVa9UftmtFkht2eKtMeYSbGpmHvT1iF8x1Re1hc7q+VMwdOivKucOnL6dcF9t9fcXn+3RHencs/hRL1ckRdSTv5vKGuYBGAchCs8YK0khCYtWYHNXjk11hwsnQm7m//uZx4a98oGU1mjcoH8f7yLfvoDnHY2o1kNGbqCVtmZp4adzQL0VDdGJOo1ummuaEXTOes3elFM761wWfHkEAgagRwIDlqI47+OkLgvLezPXPwYePz2la3XedLv/9D/A8pmcBlH0yjTXvk+DAnKGdmt3uSu4QrIJBEYKNPk890FxxGzt8Y8z50MKTRxnmBYKB4B01esT1pzHABBMJOAMpB2EcY/XOdwOyQr5y5DlCnAT8VA7VZkY6IuAwCaRHgw8Art+7XrENrd0vrmmZhExfTreuWL7LPKpQpWsBEa8HLsk44eYBiELxxg8TOEIBZkTMcUYsBgSWb9tCA1ybQ2MXhCzC1apv2x90ACW5LREBtRiSRaBAlxAR+mL2O9h0+ltTDcUu3JF1z80LtB0fQT3PX22pi54GjtsrJXkjvoLjsckM+EHCCAJQDJyiiDkMCN302ixZv3EPXfjLTMC8yJBNIPB6bff9QSLfzk3vv7pVBwxfG3NDuVkxy1MrCCZQ3ArAqcnc8olT77LW7NLt79cczNK876RZTbVZ059dzNduM6sV0d1aiyg39DgcBmBWFYxyl78WeQ8mrY9ILLbGAL/y2hN76M9vbCIvp5KRB4m67ItrHk1bH6v1i+hr9+rW0M/3cuAMCpgjkS/FcueU2l02ZholdghVb/NvxPHwskwrlzzDFyK9MWATwizzalYEAdg5kGIUIyKBeiY1Al13tolIxcLUhnyr3+3lJdeZg0vJttk0wfMKJZiUloF69V4o5bO6GJKmdWM3+Xpgy3fPtPF8P+782xn7cgCQoLl3w+x3kUrdQLQiYIgDlwBQmZAIBEPCSgB+HkVfpHAxV95snVmyCsWLrPvUt/AYBVwk4sZo9c/UOV2U0U/m4pVvNZPM1jxOsfe0AGgeBNAhAOUgDHoqaJ5BqJdZ8Lf7klGEFKcj8/Bm11K1u23c4KcN3s9YlXYtf0Frh3SyJm1VdoXFDegLKsywyCOuV4sDnz2RPTuzSWO3j3+t20S1fzKI12/0z+bIqM/KHkwCUg3COq3S9kmGCbQcK28ae8up4GjR8kZ3iKGOTgNuTJidcFK7edsBm71AMBLIJaCmdqdi4/R49/53s+C2pZAjCPXYuwJPsMYvse8dzm7UWxzPfmEQj52+iG4UDDyQQ8JMAlAM/6Ue0bT4QF5Q0cdk2WiYi9SJFi8CyLXvptwUbczutdW4U3qKi9Uy40Vut58qNdqJW50u/L41Nsq/71L53PC+/UrsPHqX7vpuXO0wr4R47ao+sdP2FciDdkIRfoGZPjKJvZ/4biI7KosdkCkEmi4OwRzOzNLktXL+H+JBfWCasVldUNaGkcfHzqWvpps9n05QU0VH9ljGN7qGoJASsmgumM2HllfB7vp0r3r365nNeYvnrH/fOHWzZaz+yenzxykuzIvY+l8qs0ctxQVsgwASgHOA58JzAQeGf//7v//a83aA3eOkH0+jyD6dpdmOvCKT06ph/6G2Fe1PNjAG5KMuK6sINu3WJtahWSvceboCAGQJWFcz/zbYXqIxlWbJpL/2YRnkz/bGSZ8Tfyd6YrJR3I+/cf3dRq0G/0+dT13jqHnrtDpgoujGeqNM+ASgH9tmhpAGBnfuP0JM/L6QF6/UnWAZV4LaKwNSVO8RHXv8wXxAO+pkaVFm0gxTCWl31TVEVbkWUgNWzNU+I96nddOSY9q6j3frSLTdtlf9ek9R9uOvrOcQLLY8OW0A79/sY+TnFFtF741fQO3/lxbhR9wG/QcAJAlAOnKCIOjQJPCkizw6dvJpO/7+JmveDcNGPQ2lGXPr/d4JRlsDftzppcrvDKb7VbjeN+kNMIFUQNLPd3rr3MF0mdhVH/J13RsZsWT/zrdl+IGYq6UZy4v2hZ8Lphrxm69wnFJdnRi6h535dkhDR3Wx55AMBswSgHJglhXyWCSzZuNd0meXiAOhX09cS29b7lQ4cQRRnv9ijXRCIIoF8NrQDniAq07O/LqaJYpJ965ezHUHINvdarn4dqVxVyZSV292o1nadyq+Pf18iffGPKnZ/juicP9MvjTsgYJ4AlAPzrFLm/GzKanoXW30JjJT2tDuFa7lUqe8r4+mhH+f7dlD5o4mrqOnjo2jYHPs2van6h3sgAAIgoCZgx3pu36FE5YDNN80ks+cbrhceftoPGUPTfTT7WbZ5L938+ayUJpRm+pxOHhl3jdPpD8qCgBUCUA6s0NLJy9uPj/20kJ4VW32bdtv3krDn0FH6YMJK2rj7oE5L4bo8f13yWYR54kCYH2nwL9lxDO76Zm5C8zKuHqXiEzR59fqyV/wtyJSc9lzCNsPD58l3IFMm5lGQxY53MZ7k8zeHz3LxKr/TZ1/GLtkSQz908irXh0BPORoozKR+XbCJLnjbXtwFs4pQqg76+S49Lo5DI4GAnwSgHDhAP0sxc2BPPHbTY+IQ1JARi+l8my9Eu+36Ve6MN4J7FsEvZlFo9zvh5rb3y38FoKv2PuA8qWOb4du/mhOAPkJENwlMEHFU7KR7vp0XO8v1dkh3q7eIcxSc+HCwX+kByTzqrdt5gDKdXqXwCy7alZ4AlAOJhmh8jt/n9buisXMgC3p1ULZ0fGTL0qcgy3GfRx/lZ0YuJg4+5HXaecCcGYjXcqE97wk0s+kON77rFBbXxU6Sf0rsAvOuQ7oprqCkW48T5Uct3ETdnx+HyMlOwEQdpghAOTCFCZm8IuC1YvTDrHXU/MlRCd3r+PRY+iXHBzcWarwaee/beW/8SuKJhKlkYpOAvcZs3nOIVovopj/OXkeHj2nvIjrhScWUzMgkPYG65YtZljGfwmaGDyeb9aoj43P3+h/LY6ZRTqYPxfmxoKf4d4ddU78v3lNxJXDWmp1B7xrkDwiB/LLK+bOwxy1ZOD/1bFRRVhFz5VJOIPVsKKXvhCQC2t1mtyv+vYqQ9co6Xhq1lE5vWdVutSgXEALfC+XQicRnjTo/OzahqpVb99N/+jVKqt4Je+ikSnEhMgTyqzwcmX1nymrHPllEIe/eoLwU4+f1YhCfOeGo1XpjOOC18LutlmLgIUQSASl3DjYIs5o7hD3uVR/PSBJY9gvOroHI3ts8+fgl9/rYZcQRZXkli5U7XkUNaspbzIrqiPo3ckGcPE/VcMn4R87BTv9IouUwElDuHIShf0YupCcs2+r47oIWN16V9zpS8SciDtDI+embQGn1B9dAIB0CUioH2/fBJjedQfWj7FvjltMro/+h016fSOwWlJU7I/elfshptk1ZV9nMyo98zhLQeh6Uq4x2/NU7KyFqiwqBqB1KvfzD6fSliIGjTuzu1EixUJfR+83K/XlvT9a77dr1HTh/5BpbVJweASmVg/S65H1pr7cive+hcYsLNuzJzTRuabYrPONS8ubIyiLi3RCHzWHl7bBEksm4Mqr1N35EBCSK745laGx3aFyKUYbpoUQPWwBFufzDabaklvHMAXfEzA7zyPkbY7vSj/+0gLbvO0yTRNC3k18dT3GzG35Xs2tsu7EJJtr0GmVrIBSFtN4rfBv71emSRfl0CUh75iDdju0QgWF4W//UFpWpaEF3usnRfNmNqdaqYrryB6280p1r0GTXkpdjTrQQB5WPZuI1rcXHzWsyTp6v+Gh6UpcvFb7YOY255yTKMLnMwpOXBWKSgwQCdgksVCzE6NXBh+HX7zxIdSsUz83y4cSVetl9vc4xgi7tVEv8DaX+y+ddaU58vqdssYKx/16z/UDs/6/6eDpNXbmDhpzdPPbbarITb8JqG1r57SozWnXhGgg4ScDkJ83JJo3r0ltxMy6Zl4NXV/4jDpsO+jnbG8kUcehp8PBFsdVgp9IF70ymbs/9IeoUy8w5KfXrzamW5atHbwXESNK/1+0y7W3DqC6r91MFrNsropBCMbBKNLz554vYBHrpN+E20exuBy9YPDNyiV5Vudf3Cy80l7w3lYZOCr7nFcPOIoNjBNizDaeLxbPDsULGLt4c+718y14aNlfeoHtmPS5xX5Zs2hvrkzKxYsDp86lr1LdM/f7AJw9H6ZjeOjFPMgUHmSJJQErlwOxEc5vYXtR7qcRXV3g7ktMl70+lj8SHNv7ydGK0Z6/dRewLeYlwN5ZOYneK5wt7x6BNRieLrd1UE2wzTM58YxLZ3SY3U3+qPBe+ay/6Zqo6Zb13TBwSZ7eHQUgyffTMRJ/lPPkzzC0LPPDDfFNDMFQcVJwi7KCfFAsaSCBglsDTInYHpzni28Tpmxn/Eu9w931lvNkqpM/HgUbNzhFk70w63tLCwkD2MYqqfFIqB2YGgw8jtR8yhs5+c5KZ7Ll51uw4QP8nvOpcLbYhecLkRErX8IT9Ms8UnhKCMnljZmyjyWYVaveNdnjGV33slLVaZveBo7Gx5yBCXnumsCqrnfz8weBVZ97VUirCp/x3PDV/YhTtFOZ2sieZbKNfFYfszSSzOwe8oGEmOXXQ0kxbyBNeAr8v2kxmnzk1BY7bEU+8CMcmMPP+3UU9XhxHv4ugXF4m5USY5Zq+OnungGVgBxjxZEaZ91Juu22xQrdm+367xVEOBNImIKVywCsDRoldZXIysr/Umri/LD7445ZupVELs7dcjdrSum/FVpADbd3//bzY5H9tjo2kVp3qazyR3Sts3+0ktyO/Tlm5LUEsLc525Ha7zKtjssf+duFNKazp0ylraMbqnRRfReR+ss99TrwaLVviDyHvQsmoHLNMHIjIKBnZSxuVx30QcIrAT3PXJ1TFO+Z2Er9DOPH5vVaDfid+Z177ycyYnf8Nn82yU6VjZVaJQIPxNNhsIEPHWvemohs+9ZexN71EK7IScOekbpq9vf2r2bZr2CVcg7G9uJmkPH/Ak/2bP59NZYsXpGfOaWGmeG4eo+29eKCtb2dmB1z66dZuVKV0YSpXrJDuISyWrdXg32NtrHzmVLLiKvFXYUp18xez6aYe9ejBAY0t9cVs5r+FZ4h4uu6TGTT+n625v5VnMMzW51U+/tCFPZlRrmViwCt/rMi0rF6Kfr6tO8lkVsSczL5P1Ex54YJXXAuYPa2sqMDonaJuC7+DRYCjAg8Tk/jVLqwO3/n13AQY7/5l/yAyL1B9PWOtcBmaKaLGb6RiBTN8AW32nXBEJyq5L0Kn2ejKbftS1gBHKCnx4GaaBKRUDjbvMd5617PwbT14tC0kK7buo99ytkrVysHG3Qdjk9+zWlejwgWyX47Kj7dVTz1PDl8Yswnt0bACfXJNR015le7djogJRuF85l/KXD+nd/5a4ZpyoIzoOGZxouvSuWLr2enEJmD5bUyynJYjCPXp/W2w7DJOOuN2t0qFUybOZnYJ9Uyh2Czp/v7uKOgyMYIs5gnw92SseGc+OmyB+UI+5YwvUMWbl91sR+aFKatDaHgGMSjb9VY7jvxSEJDSrCgVGZ4kcgRls4nNAthswSilsj8/VYQw54OE7GP5oFhB4aSs0bj2xNbjh8X+EgqH3sRDb7Jh1I8w3uePaUuxrf3oMHOHOcPIwKk+ybjapF4VPCziB4QlfS0OhKZKfD6E7bfj75V4XjWTVHXgXnAILBK7SV2e/SMQioFMVNNZ1IibIMvUHydksTrvcKJN1BEdAoFTDq76eAZ1Fe5DJwgbZbPp0ymrDbNeM3Rmbh6lPSNfjLsbY7Ogjk+PieVTTuqt7hwohbHrek1ZBytMc9budOyAtbJuP/6bzZRGKQ68fThhVWxb+/Opa4Xt/L4EZY/HgYOudXl2bMxuPeqJ/ZsjOUvAaLU01UQ+1S4OS3nXN3Nj9tuP/C9R8U1nMuRs71GbkwSG/y2vO1Ez/TR6ns3UYZRnteI8QTzvnH+zzz8YldW6f0fO+TL+VnDgQiQQAAFjAoFTDibmTADjq+/GXaSYraSV1OulP+lrEa79wnem0FeqsO17c9xBJmjtaajwX0xbqylaqgmHugC7Qj3nrcn0+M/Z5kRBn1iwmdKNigNvG8TOQTyx7+67xYSK0zjhM57NyK4WCuNGERgnHpR/9zKGAAAgAElEQVRKzSdKv9nc6zXhjUsv8ba7zB6L+MyQbElvd88JOUcLbzKcfpyTeIjUbN18poHjLHDUWCT5CXgxuXaTQvz753QbfC7vi2nZMQoeVinK3JYT5kK3fTmHmj3xm3A/fshp8X2pL+jfeV+goVHTBAKnHOj1bIz4yNpZOf5E+BN/adTSpGof/HF+zF3aQ+L/tZLeH+bd3yYeBtMq6/S1T4R3Gk5f5igaHHshTGnk/ES3ebxN/KfYLbh66Ayy6pUpDT0uFEg5MGCbp0ZLNZlUrswvWG/sGUi2gUhlArhdHICf6qKHqPdE0KubPp9FHC8ECQSCSmCEWMB75H8LYrvf+3NMd53uywjhqIPt+H+YZU8Rd1qedOuT0UQ03T6hvDwEpDuQrHWe4B4x4Wab3LcGttUkxysB132aZxakzpRq5e+JnNV2dRmj38o/zGmr8nwu844Gu5KrXqYota1ZWnheSX+tSE8RMZIx6Pf5UPbzv2lHk2XzMjtJxpVpO/1ItwzH1ejXrHK61The/jIR2TyIKdWfOUerXf3caYbdYn/0fD6qUsnChnnjGX5dkL0rut7COSzTlSOj4wRSPSeONxbACuMLXXZFjxLfqM4L7D4bKGeNgFTKAfv05/MEysQuPX+cna3p630A7bqnTGcVWfmHyV6BlCnuSu7UFpWFQtPO2oho5JZthYDd8HmR7v12HsXNyJxqT+llyak6g1gPPizOjRpPSNJfAqBYUEdOMx7pG/NmYyZhHM1QkidPql0meaT0T5JpYpfNib8ldQ9SLRCq8+I3CIAAkVRmRf/uSPZCpPz4Of0hZBMLN5PaHEarLTM+1J3ut5YcVq5ZOQxupV513uVbUvt5VueP/+bVV/7IqD3A6OUP+3V8GP0fYXZycOuX5uK3nC+iWy8VEeDNJGWsFjP5kQcEZCawU5w5csMV9n+++zu327Itttkdj9fG6J8t43e+V4t4duVHObkJSKUcsD9/dVJ6X5FpkmxWFr3djng/je5zPm/W6dXk9X8fPGIuyJx+DebuHLO5Q8E7ORcJU46BH0ylf3ccMNdYSHPdIw5v9xQH7JOTPE+VGyuFyf21f+UWEVAwVTIj/7XCAxfbVZtJHIHWbFqRE/nabH7kAwGZCcSjMtuVUe+7/MPs7ACkynpZsR4mHAHI7KAhFYdvZuq7SeZ31kkvjhMHuTOFp79jscUyMy7dU7WHe9EiIJVZ0RUa9sbKoGZjl2R79lAP0bLN9laY1fVY+b3roDmvKt1UZlJm21DaTuqt/PLK+C1fhDfEOttg20lDxSFzTrPF+Y8TXxhHD4ggVMUL56fLO9eyU12gy9j1ghPoTjssPB8qTjet9GASz++JDcJrFx/WP1sEbCxWSKrXe7oIQ1E+SjbxfgyYmcW2uFzs5Y+9BdYqV9QPUV1pc/663fTUiEU0PeccJAdv/UBEoOffDw5oTDf1qOdKu6g0fASk+nrsOZR6Rfr//liuOQK35/gx1rzpwsUPJqykISMWu1CzdpV6Gv8nU1YLH/9bEwqZXZ3Ubkn/6prt+4kjV3esU1bKKLtKybeqvDXFDzW3rl5av4MRu6O3wuYHhqBPmGLym9k+cBkuu/gdNjfbj/48EaX8hfNbudwiqrdCgFdx9b5hVupB3vQJfCdW3eNuxK3s1KXfsrM18IKA0unJxe9NSfD2xDGY4ooCu2WHcuAs/zDXJpVyYATa7sFjo3qt3vdCMVD+wbMHpJ6NKiR5PuID3Opk1q5ZXc7od48X/4xlGX33SdKZORnJHr/PkZaRsgnIYFTEH61hwrOXmXM3Mo/bNyIKcvNqpTwVkd0WzxCulpUprhjwNY4VgiQXgbf+THRcIZd00ZFmhnjvqBfVgtr7TcKjX5VSRXLFV7uBlWkRKKiMoyp3oJSDqA4Sn8U4442JVLd8cXr9kja5GPz4w1+0cQ8VyJDqqIrpx0KGCbFpYV3O6Mezo+7She9OUV8K5G8/7P61AkUFEl5EhOaFiddTBCeMCAYpujlPmN6EJXV59g+a/nAfqqjj/lj5zZPhnR8W7lHohzSzvP05kYfdhr5YTG6DkN5TuEdl7w0cHIqDf/E24jMjFxNvi5pJnI8DyyCJg93QDnIfg+9n/YvJCv4oQMAjAnF33B41h2ZSEJDFAiGFiJZuXfHRdFP5w+KlyVRnkSltAtIoB17N2xZuCIZyoAwGU7Ns3oGpKSu2E0dFve/7PNdsqZ4Cztdq0O+psli+F9RJ9j8m3UNaBhLAAryt/srof2jhhvCsogVwGFwTWe+ckmsNouKUBIJ+riZl53DTVwJLNmW7PdZSepTfai1X8b4KjsalJiCNcuAmJa8UD7f6kE9x2HHdTut282o7RLfklL1engwjJRLYfSD53AoYWScwY9VO64VMlrj64+k0cv7GmCLHO4ebhEcio7T7IMbViJGX9xH8zEva0WzrPo24TdgtiOaz4ESvcebACYoe1vHvTvM+0N0SCy8ct8h6X2/QFWfviWm3+OoY9xRP3uWJH6B84oymNGj4Im0hVFc5wvi9pzSkqqXzDiyaKohMIAACgSMwc43xAgV7zCpcICNwfYPA3hOIxM6B91jda3GLcCfqd5pl4iXkt4xo3xyBoJqImetd+HKZVQy45xz4yWs3z+Ejjh6BgPwElgmTWS3TNfX7vfFjv9GWvcY7j/L3GBK6TSASyoH6D8RtqE7X/8AP83Or7Fq/nNPVW67v40mrLZdBATkJ8C6QXpA9OSWGVFYI4JyNFVru5dWauLnXGmqOGoE7vp6r2WWtneGnfvEuRpOmULgYCAKRUA7Y209YUj7FV0brD1+vn+e9PVl4PNodC6H+jvCENGet8RZkvK4jx4Lj7YgjRCKZJ3D5h9Pp/HemUJZ4LpBAAARAAASCR4C9MO7SOD+mtfCzY/9h4t3/z6asxsJQ8IbaM4lx5sAz1P42xC+DgR9Mo4dECPXnfl0SE2b1c6cRH1zkA49ntqpKV3Wroynki6Oy82velOwix4NAskaAnw0+y1KrXDFrBZFbfgLQ+aQYIwkCaEvBAUL4T2DS8u00afnkmCDVhSfEXo0q+i8UJJCOQCR2DqSjnoZAym+91dVeVgQe/DHPRInFeFfsIswWEZifTHHIkaOxxtOdOtuXaXQJRSUg4Ibp3WYRvZOjICP5RwC6gX/s0TII+E3A6L2+aut+v0VE+5ISkEY5GDpplaSI5BJL6Zf+XRHvIN1kJvgcJhjpUpa/fKbRV8RGFzo9M5Y4CjIUBBvwUCRUBHDmIFTDGZjOGHkWxLc9MEPpuaDSKAcv/e6eK0DPqbrY4Lt/pa8QuCgeqg4oAbZN5Z2og0cyHe/B1JXbY3WOWbSZbvxsprCNPeJ4G6hQm4DS5pgPJ7cZ/HssZgISCIBA+Am4sOYTfmjoYYyANMoBxsN7AjxxMLNyAHtZ78fG6xb5PPLlH02jJo8LV3fCHMhO4ufpIWG2xqZqyhR/fq77dCaNWriZWg8eTd2e+8NOEyiTBgE+c7RTHFq85YvZadSConYI/LN5n51iKAMCIAACvhDAgWRfsMvRaFcxQduoE211w66DVLZYwVjAFERYlmO83JQiS0zs+aAap1/+3kjXdNc+nJ5KBj678tX07PMp38z4NzerlknFevF8IblPgP92ZwvPZG1rlqEDh4+53yBaSCLA3vK+n7Uu6TougIDbBIx2Dg4eORZbDKpYsrDboqD+gBHAzkHABsxJcfUUg6Wb9hIrDn1e/svJ5lCXxAQOHc1zVzv4l0W2XNwdEB+aeFq5Le+g2wla2oHELMIm2rlvTaZ/dxxIUPLZPfGwOeuJD40juUuAzemQQMAPAkaWAWzO3VGcDdu4G4s1foyPzG1COZB5dHySbdTCTbGWeXUXQZR8GgSPm/1jceIEZoPYUVotJviPDptPa7cf8FgaNOc0gauEu2Jl4lgnd30zl059bYLTTaE+FQFzxpvABgLOE9CKc6DVyozV5uMeaZXHtfARgHIQvjG13aM9h47GAqMoDyye8up42/WhYHAI/KI6pHosM4sufX8qfT51LV2pmljGe8XK428LNhnuMvAHKkiB9IIzauYlXaFyWfjK6GwHENv343C4eYrGOVmRHvjBVJqwbGss86GjmfTmuMQzOMa1IAcIOEOAzUXNJPW5Qn5n/yBM4ZZs2mOmOPKEkADOHIRwUO12qbswJdpzCHbJdvkFudxK1eTxmDihzLsHnFYpTISUfYwfKn7t4tZ0Vutqut3n71O//0LJ1AUkyQ2eyPJYN65cgmAKZm9Q7v52biz6LJ/f4SCTQyevtlcRSoGAAwQe+CExrpFelWrLz9HCFO7e7+bFsvNzjBQ9Atg5iN6Y6/YYioEumsjdeOKnhab7PC0n0JneIhWvXekpGKYbQUbXCDz580LiODNnvzmJBggzo5/nbXCtrbBXvGVv4hmOLXsOh73L6F8ICJxAiXsHC9bvDkGv0IV0CEA5SIceyoJASAlMXL4toWe8vTxrjXa0Y/WWtBqJ2a1tdTn89oYAr25zhPQlwhEBJ46Crp7kppKEzct+F+eUtOybOXbGe+M5Cns0bJqVkyzeiUECgSAQyKd+iSu2Euy6tg5CvyGjPgEoB/pscAcEQCCHQP//TqDz3p6iOWn8Ytpa6v78H3TFR4mHXuPw/jtmGTgGjACPt9nE5mU3fDaLRohzK78t2Eg3iHgWcUXh+9nr6JmRS4g9JsXTZ1PXiFgLs0J/DqXxY7/R8L+xC2P2OUI+/wiozYqUkpz5xiT/BEPLvhHAmQPf0KNhEAgegY27hE/sEsk+sdfthCu84I2mvsQ7xEFlPpS+eONeala1JOUTS4s84d8rYiU88r8FdE6bqtS7caWECm77ck7u7zoPjaTHTm9K6zWei8eGLYjla1NjNV0r4mlw3ZwWbthNy0SwsLPb6J9fSWhQwh/qSdbWvTArknCYIJIRAYWN6Ca4OzaiFcr7UA5COazoFAi4S0DLhMTdFlG71wRu+nwWjVm8hW7rVZ/uPaUhXfbhtNxAecPFuQSjg4pPiXgZqdLTIxfT9NU76P0r2seynfb6xNj/lypSgHo1rphQNFOYJ2Uk2T6kqt2fe3rnbvyRBq2CgDkCagcE5nwcmasbuYJJAGZFwRw3SA0CvhDgldC9wuUtrwwjhZsAKwac3hi3PGY2FI+gHe/19n2H6dqhM0xD0IqKzV5R1GnqyuxI3fHrfGC63sMjafmW7DMR8evfzFgrzJUm0TYhhzKx4spumd/+cwVNWZFYl7otp38jpoHTRFGfVwQOH8sk/sdpxdZ9Cc3y3zpStAicIF6kUiiJtR8cES3y6C0IgAAIBJjAucL850cRZdmJ9OQZTWOHouPp+fNa0EUdahIHa3vu1yW512c92peKFcpPX4pzLhzJO54mPtCLqpcpGvv5+E8L6NMpa3LvGe1w5GZM8z94AtVuyJg0a0FxEPCeQPtaZWIOCdh5xM+3dae+r/yVJITW3xFPH+8WwRRrlC0qdhcbJZXBheASgFlRcMcOkoMACICAbwQ2q9x2piOIUjHgetg/e8c65RIUA77eTxyU5vMO709YldBc9+fHUYOKxcXKZxat3eFPRG8oBuk8ASjrJ4GZIjZHPI0Snse0Eiu/JYXJX4GMPIOTeet207C52Yfu1coBeyqLnydS/rdW3bgmHwEoB/KNCSQCARAAAekJZGW5K6IyUnu8JTYhUisG8XvLtiSaQsSvt31qNE17uA/xuYXPhaekmmKVk881dKpbzt0OoHYQCCCBv/7Jju6tFp2V39JFC9BX13em6SK2zcciNspqERE8nngXIX52gT2SvfDbEnr38nY0cdk2ekuY+J3YoDxd2rEmDWhRRV01fktIAGZFEg4KRAIBEAABEHCOQKNKJahnowr07viVuZXe3LMe3SdMIeKrm+m09oQwZfpEYcqUTl0oCwJBJLB0SH8qlD8j5u6649NjY10oKHYZjgivZ8r07Y1dxK5g2SB2MVIyQzmI1HCjsyAAAiAAAkoCfHbipQta0YcTVwnXrXvo5Qtb5a6AmiE1Q3hcuuCdKWayIg8IhJbApZ1q0lVda9Mpr4431ccXzmtJF3aoYSovMnlPAMqB98zRIgiAAAiAgEQE+gjXqWOXZHtneu7cFnSxMH8wSuwJqXb5otRPTIb2HDpmlB33QQAEVATOEYp56xqlqVrpItS3aWLcFMDylwCUA3/5o3UQAAEQAAHJCHx6TUc6qWEFTanYtnqscPN6nYgEzal7/fI0cfk2zby4CAIgYI4Ae0PasOsg7T54lJpUKWmuEHK5RgDKgWtoUTEIgAAIgEBQCRQXLlMXDOoXiwzNXpA4+jHbVA8avlAcxlwd1G5BbhCQksCzYsfuoR/nx2Q7o1VVOlnsJHSrV45mrN5JDSoVjx1sPrt1Nfpy+lr6Ytoa4rMLVcWOA5I7BKAcuMMVtYIACIAACIAACIAACHhE4OsbOlP54gVjLlc5Fko3satXRnhY2rT7ML03YSU9c05zcb8QFS6Q4ZFEwW0GykFwxw6SgwAIgAAIgAAIgAAI+EygRbVStP/wMSokFA92bJAq9WtWSSgsh2LKS6WShalx5RKxcoXy55PGpArKQaoRxD0QAAEQAAEQAAEQAAEQcJlAU3HWYuSdJ7rcirnq80LdmcuPXCAAAiAAAiAAAiAAAiAAAg4RYI9NFUsWcqi29KtBhOT0GaIGEAABEAABEAABEAAByQk8fGpj4RXpEA2dvDpX0i+v60T7hEnQ0k17acPug/TV9H+JzYQGtKhMNcoUpTu/nkMiwDpxMMU2NUvHDkw3qFic9ooy2/YephKFC9BREeytbLGC4r/z0z+b98X+v2KJQiKqdEHKyCe8GQQswawoYAMGcUEABEAABNwn8MPNXem8tyfHGjpFeE559/J2VOehke43jBZAAATowvbV6duZ6wxJ8CHkX+dvFB6M1tLgs5rH4ib8u/MA/SMm+rf2qh/zMrZ5z2GqXKqwYV3IkEcAygGeBhAAARAAARBQEJj+SB+x6ldYuDDNpDlrd1G7WmWoQEa+mB/2HfuP0FlvTqJMXkpEAgEQcITAQuE2uJhwH6xM7Nr0n817iRUA/vvjv7kjwq3wHyJgYYfaZYQZTt6En+8FcYXeEXguVALlwAWoqBIEQAAEQCC4BDggU6rEsQ84HTyaSU0fH5UqK+6BAAgoCBQUk/wrutSiznXL0YM//k21yxWj969oT2WESQ6SPARw5kCesYAkIAACIAACHhKIKwFslnDzF7NNt3wC2yqIVLQgPqGmoSFjJAn8eEtXOnQkkxZs2E0DmlehGmWL5nKY2fTkSDIJQqfxZgvCKEFGEAABEAAB1wgMaFGFlj89IGbj3KluWdfaQcUgEAYCL57fku77/m9TXWkpDvbmF7sFXYVPf6TgEIAr0+CMFSQFARAAgUgQWPXsqXRHnwaO9bV2ubzVSr1KeQJzaaeaVK9Ccb0smtfZawkSCESBANv5Lx7cny5oX4N416246ozAff0a0Z//6ZmAAucAgvlkQDkI5rhBahAAARAILQE227nn5IZJ/VNORqwoDz/e0i3mfvAL4bJwwv29YvU+eUbTpPrtXHj41CZ2iqEMCEhFYMjZzWmcamKvFvC7m7pSkYIZuZe/ubEz9WxUIfd39TJFqHb5YrR0SH/qIs4UnNe2uvAWFDw3nup+R/E3lIMojjr6DAIgAAIOEOhY2zsTnKkP9aHht3fPlbqC8CEeT9d2r0PznjhFt0fsf/z/LmlD3YRpA9s886rnVd3q6Oa3cqNX44pWsiMvCEhJ4NKONamOmNiveOZU0/I1q1qKhl7dkSrneA1ihYBTofwZ9JXwMPTyha1M14WMchGAciDXeEAaEAABEAgEgdOEnf7jqtX3iQ/0Sjm5qJKGr3H2U16maIFcNhykKJ7uFrsMpYrk3Ytf592HBcJFIhIIgEBqAvlyAnXZMQP6876eNOvRvgmuRVO3hruyE4ByIPsIQT4QkJDA7b3r564WSSgeRHKIAJviFMyv/Zk4lpUVCzAUT0+d1Yyqi2ii6slFt/rZq4k/3dqNpojVf6N0bttqulk42ujQqzsQRzTNr4g6WiAjW5CaCk8obB/NQZDUdtG6leMGCESUwJh7TkroefniebtyZpAULpBB5SyWMVMv8vhHQPut7588aBkEQEByApMf7E33ntKIpj7ch767qQud36665BJDPLsE2BRniTiAqE6FhMLw5JnNqFGlEjFThPYiSNjlXWqrs8V+f3pNJ5rxSF9qJSKXcrqqa2I+vqdML1+QZ4rQr1ml2K37+zfKzdKzUcUkzycF8mV/yr68vlOs/vH39RLPZtckRSWhIRd+cHRWJBAIGoH6FUskiDzyjjzzvaD1BfI6QwCuTJ3hiFpAIBIERt99ElUtXSS3rx2EzTn/+36WcZj7SAAKWCcf6N+Yjov/vfDbUl3J2dzg3cvb0Y2fzcrNs+Sp/rkHDcfc04MUi/hJ9fBOgvJ8AB/gPSSCh30nnpmPruqQcI8LKw8wvnt5e+KAY1qHGhtXLkFsWlS1dGGKm0TwzgUrLV4njuDKfwOPntaEXhu7jD6etNprEdAeCDhGQBl52LFKUVGgCEA5CNRwQVgQ8JdAA7FSnCqxmQkHj+WV5cMizD2SvAS+F7s+7XMOFF/XvW5scssmQLeIYGALN+xJELxfs8q0aHA/Ov/tKTHvJMrJutqMyKjHbKb03Hkt6ZlzWuRO6tmryQ+z12nuQmkpBtwGux79+bZumoqDkQxO3+dor/yPU6vq2D1wmi/q857AG5e2odu+nEMtq5eiv9ft9l4AtOgrASgHvuKXu/G3B7al0Ys2049z1sstKKRznQCvMLMNt1Fi7zUfC5vwX+ZtpPt/MBckx6hO3HeeAJu/xBUDrp0n7Ozjn9PrwpTo3m/n0W3CXl+ZOBrwyDtPNCVMkyolafHGRAVDXTC+2s/Xnz6nOZ3Vuip1rGPN+5Ge4qBuy8vfvBODBAJBJ3B6y6rE/3jnbuziLdRI7NQhRYcAzhxEZ6wt95Td/71yUWvL5VAgXATY48vNPeslTCb1esiryDyJRAouAQ4CNkwcHu7bNNve305P+HkpKFb2nz+vhanifKDxpIYViP8/6Emc00YCgdAQYAWc3wXsAhgpOgTwFY/OWBv2tEbZIsQfNvZQ8u/OAzFbcqRoExgsPNBcoXPQVEmGD46OWriZbjipbrSBSdx73v15/rclMQndjkt0pniHDGhemQoIBSFqCfsGURvx4PaXTQRv6lEvuB2A5K4RgHLgGtrgVfzWpe2ohbAvRIomAVYKh8/bkNB5M4oBF3h7YDvauu8wVcoJhgPTCvmeIV7NjysHXkgXRcWAuR7LxNaBF88X2kifAAcwQwIBLQLRW9bRooBrMQJuryYCs9wE0glyz/bjccVA7l5CutjfOjC4RqBTzsFk1xpAxSCQBgE+aIwEAkYEoBwYEYrQffYygxRdAuWKF3Ss8ycopp8zReTM/sLbDZI8BGQ8yCsPnfQk4bgPj53eNL1KUBoEXCJwavMqdF+/RsQxQZBAQI8AlAM9MrgOAhEjcFffhtS3SUUqXbRA2j1XmhVxtE29KLtpN4QKTBF4QbgO5RSPJNwFq9umuNnNVKc8Dm/aZYdyzhIYpIr7wbu8HDm8a73yzjaE2kJFAMpBqIYzmp0pXACPsRMjX6pIAfrgyg50aosqaVfXuHLJhDoqlyqc+7udiKbLh+CmP9In7XZQgTGBc9tUows71Ihl/OPenjG3obf1TnRTalwLcoAACASRwBVdagVRbMjsMwEcSPZ5ANB8+gRu792AXhylH+E1/RZQg1UCrYQf/Q+vbJ/r/q5iiUK5Vfxwc9fYf3OUXCT3CTwsovbGE7sjHNgJkwX3qaMFEJCDAJsQNhLBK5du3iuHQJAiEASw5BqIYcoT8l7hcz5qqSb8KwdyyPs0qUQNcyIqZ2kcaMEBePeH9c1L2xKbdSF5SyAfHm5vgaO1lATgPS4lHtzUIADlQAOKzJdu79PAMfGuFNuNn14jvyszfGcdG/KkimqVK0oco+Cdy9rl3uNVJqdTs6rJLnKVh5adbi+K9cF8QJ5R71a/PHEU6gvaVU8Q6lHFLo480kKSsBPQWJsJe5fRvzQJwKwoTYBBLt5W2H5zVNJ4KlpIzuikRm4XObw7kj0CY+7pkRSoamCnmrT30FHiCY5Tiet6a2Bbql+xeG6VUPqcokvUvFpJekRMPD+dssa5SlGTbQIc44GjTHO6UZyv6fvKX7H/vrhjTRoyYrHtelEQBOwQwBfSDrVol4FyEOHxb14tezWXo+Bu23eE6lXIm7gpsRTKn48OH5M3sA90A/sPsVagqvxiYnObOMfhdHLioLPTMoWlvj6NK1Gh/HIq92FhbLcfSocJRgsddttAORDQIhB3qfvi+S1p4AfTYi5MkUDADAEoB2YoBTSP8FhGWRpLBreISKn9hN/5uDJgFAWXXVx6GVk1oLgDJ7bf3oIwUXL+kRnQvDIt3bSXVm7bH6sctsbOM7ZaIxYvrBJDfqcIXNu9TqyqNjXL0Pwn+1EGTwqQQMAEAWnOHNwtJqBI9gi8IFYFtNKF7bPdF6rvVS1dhNibjNmkNP+oonBJaba82/k09B+3mwx8/QXF7kDFEnnuRf3oEAJxJVO3e96jaMHsXQM23WJTMSQQAAEQUBKAYoDnwQoBaZSDGmWLWJHb1byybr1d1bW2Zr97N66oeV3vYtAm00aTSKOVuVNbIDqv+llwMhqyum78tk+gROH8dJqNOBOVSmYrevy3wkGOkOQhUEHhxrdwAZh+yTMykAQEQECPgDTKQV0de3c9wfWun9gg/UOUneqU1ave8vX4ip7lghIVUE41XrqglUSSZYtiZDrxyoWtpZPZb4E+uqqD3yIQprDaQ1BIJ6gfKw1tapamkkKBQAoOAVYI5jx2Ms17/BSYdQRn2CsaJEwAACAASURBVCApCESagDTKAbt9cyINaJ5+dNf4QV0n5JGxDquTsu45Cld+sSLJXmeWPT3A026VK1YwZXu8c/DGpW2EbOWIV17VCat1aiJETaokRjBOzuH+lTB5K+ro0IJCbFdPZ2vvTWEy9L9bumlOMMvo/I3AXaz7z7GZFnh8ShUtYCYr8oAACICA7wSkUQ6cIsETWJnS/Q56B9By2XlK00qkN3l2avLFPupH3XUSzXy0bwytlocbt5h3qVuO9M5UKNs8vWVV+uK6zlRBFfCJffgjyUlAaS5m1TROth759dZ57eLWwlVmXTpJZ8e0ZfXk+BKysYM8IAACIAACchEIhHJQolDyarAexjNaVdW75cv1q7rVoaoOHeId2LlWQh9ev6QNvXdFezKyyXei440ql6DSRVOv4DvRjrKO6mWK0Fc3dKbqZYqmrFqpBD1+RtOEvCULY7UuJTxJbvayeG5GErHdEcOCpnFW62r00IAmSe+A2cKM5Y97e1ANRBd3Z4xQKwiAAAiEmEAglIOx4iMXTxygKVUqkuO1I1Ueo3tWV9zZDjie2AtMqSKJE1Ke4HI0YruJV87nP3kKNXQhcq1dmWQqpzyo3bNRRVo0uF+ueNWEghHFxNFyGwuFTva0eHB/+ls820UCflDT6jvD6rg8cmqT3CJmFgPKCjMWp85xWZUV+UEABEAABIJNIBDKgRLx/f0aS0e8WMG8nY2ThRmLMugNC1urXDEadFZzS3JXVHi4OK9tdWFLn7wCbmaBsVWAzQpSeSEacnYeT/WORlExHl9e14lYabjxpHox7hyt9OIO2q5dLQ1MQDJf3KEm/SZMwcbf14s4nsHHEhxA1kLHyjzv7ph5lrXKy3LNSdt+Hjt1uu7EOrmXbu1VP/bfZ7eWa5dULTN+gwAIgAAIBJNA4JQDM5h/uLkr3dXXfoRXvQ99PNqgGRms5rmjd/YHP16uadWSsUndcnH4V88/sfI69zk5nUDf3Ngl6bLbq5xJDTp44dWLWtFX13emMgYmTl3Fweknz2xG8Z0kPvAen1Q5KI70VdUsVzQWz4DNdj66qr208gb5mXQaKh9unvxg74RqlbsF13SrTaPvPolehhcup9GjvhASKJAR9KWHEA4KuiQ9gVAqB+1qlRHKQcOEFfyC+fPRe5e3S2tAyhc3trm3+xq6o0+yMsOTuvzCTEkvKZUD7rM6Na9WUjBI9qvtd/ArtZxGv5WuSltVL01d6pWj9rWz+4sXvzY9rcm2GXMU7dpw1YiAkTtdLv+7mNCrEzsUGCSUWHXiQIV6icexgTAx1Fs00CuH6yAQRQKn2ogbEkVO6DMIKAmYP+nrAbdiwsRg/5FMSy2xl5M/lmwxLDPj4b4xV3Lsb7q0+P+bPp9FoxZu1iynNbHSzOjQxcs610xSAswoGXqemZ4+pzkdyzwuzGgSzRN4NyUz6zj1bWItaJpD3XSkmvgEl4M+TX2oj6brUr2GvB5XPTm8uK7V1271yotzK8WpUWX/3ZiqGWjJq84T9N9aZ4bYoQCnmWt20vB5G+jmHtlmcEHvK+T3jwA7cli386B/AkjWsplvqWQimxKHg+txzJMVW/ebyo9MIGCFgP6ytJVaHMr7o/DhbcXbUAexemw2mFPcxzT7m3Z6BVU5sbFa91NnNaPHT09eOTSDVB0J9dw21Yh3EFgpuFLY28dXFv+6ryd9eX2n2G7Kvac0cqT/DSoWNyOi43mU7lwrCy9QxSx4srI6No4L73OFvHvGLmn/T3i5QpKLwGsXtabpD/ehvmInAQkE0iHwloiHEdT0QH/7ZwofGmC/bFB5vXZxGzJj0RDU/kFu/whIpRywu0yeuCjDzSs90VjFlOpAa6q6zKw0VEux7Z+qbvW9/iJoG0/a1OnukxuqLyX9Vu8cvCImGHz2QG1uwAeiu4pVYyfT0Gs6OlmdJ3WZGVdPBPGxEVkVpIx8yX8DPmKy1PSz57awlD+eWRmJnRX9imI3TJm03gu2GkKhyBBgU9KWwvTylp7B3IE6uan9Xe1z2laLzDjHO8oBW2c8kh1/KHKdR4ddJSDlF1k5qe/fvLIhAD8C/SjnMkp5nZqA8gveKJUrVsgoi2v3q6gmMm401FWcLVCndCa3UTBdUfMKym+2vW8mDuEHMV3SMdm7kJl+pDpXwOWdepeYkQV5wkEgrmR3qF02HB1yoBcccFzpbtyBKqWqgr+J3wrHI1rnFqUSFMIEioCUyoGSYNVS+gfzapYtFsvatmbyYVy+zi8FvaTnkYjzm5mAKssnmhXxR938Z93OhJWjovIWKns08iuZkTudXR/u1xM5BzUzFI0VK5R8wNosA7s7SWbrlymflWdQBrn54PyIO06UQRRXZPhGxDqxmuKud7vVT1aSrdaF/NEgIDagQpOu617HWl/EB3/JU/01y5QvnryQlk7sIc1GfLzIHs6utcrLR3nRtPwEpFQOlBNPdsWoTqwlX9i+Oj16Wl5gIHUep35/eKW2+0enXsJ23uUcFfXGABxctHJ+RGu8iuecJ2CPTawQPX9ei5hbTiQQkI1AKmXsNhGXoFNd6xP8h8X7jd8/716u/Q6SjQHk8Z9AvvjH086HxUD8cuK8XnfhItqrlMpTn5YMvBio5Z2P87ZXefPjXWmrsYe02pTpmnrB7oJ21WUSD7IEjIBU3orMsmMtmf8ZplRbBykKK9+rei8b5e5Cwn+nqFfrlpldCq1yMl/jiNYlxMR+3S7nPGawQpRusvk4pNusL+XVgfh8EQKNxgioP9pxLMrD9VqoCuXPoD5NcEBZiw2ueU9g5qN96eNJq2ni8m2uNZ6r3IgW2OuSlaS3M1xALC5dI1bVi4pvUgWxgzBlxbZQxLzR62+c2TM2z0JZYY684SUgpXKgfuiLC3dd8VSogLebHXoLMAmmRKrnQ28yEKbHKJVSU69CticjJ5WDMLFzsy/9RITuGmWKxqJyBzFd0aUWfTplTWBEr1chm7OZOAeB6RQEDSyBosIduFuJ3/nVLE7YrcpSp3wx4ndYqSIFYhHt2SXrO3+tSKiGA2EeOppFD/0437D6uuLv8z/CQx8rCJd3rhXLb+Yco2HFAcigN3cJgOgQUQICUioHai5FC+aPeeHhSbfeSr66DP+uWrowrd5+QOuW7moeZ06Y3Ov8hQ0QB6XfHJf90lLmr1O+OE1btUOzTa2Lyur5hbj74FGtbKG/VkuYj63RGSunOm+0UutUO37Wc1uvBtSieik/RUirbS3b4LQqdLFwVeFK99c7kwObudgkqgaBlASePjvHc5ZL26T8nnYzsQKiNKN7UJytUysH57SpTrPW5H1jm1YpSUczs4TJafK5gj/u7emmuFLVrdx1YcFSLeBJJTiEkZKAt8vwJhForbyz/369g8d61X5wZQfq0bCCUCy66GXRvJ5oJqStHdzeOy+iMefgA4d8gOrGHnU169S7qOzrYBHzIIqJD1fzS3zEHd1d7b56R8rVxlB5aAjUKFtErD4muxauIDx2mXE3qv0GCQ0edEQSAmxKqHVGzwnxeLWeUyUfznz11TCtU549++X27rH4LfG4P/VzYvDEd/Wc6H8Q6uAzeqe2yPPuiPdOEEZNXhkDsXNgFx+/JD4x4Y//97tPotfHLqNf/t6Y1JSWosKZCqliE/CBQzuHDlMdZEwSJqQX4oerm1UtFdtK/nrGvyHtqbPd4u13vSjfzrYU3dpYMXjnsnb097rdjkNwaXHXcTlRYTAIJCx+ODAz5CCjM1bvJF6Z59V6v5LWbkWNskVjMZFKFy2QqxTE5eNv/ieTV8cCgUYtvTWwHY1ZtDlmYaEOkho1FuhvegSk3DlIr0vWSzesVEJ3V0LvHat3IJlbt7JCHeDYT4ag9djFC5YV3i9Oa1kloR4OKPXV9Z1p3hOnGNYf9QzwYuP+EzDh/t4i/kIpQ+fEWnFJ4sEcT25qHKvF/Z6gBRCwRuC/IvruY6c3NbXAZq1ma7nvUOzSK0uyN7wTG1RIqowDlD58ahMyE6g07i5YXclzgTjMq728wFHWuzfwzquUmh1+h4OAlMrBayLSL6/YD8rxc2+EWm9136ic8v7l4iDkE2c0jW1PKpMZuz31JDjTgnagthO0InPQ83JkxzfE6o+adxfhZo7PXyCBgJ8ElM+g0Tvmrr55ZoZxmf/8T08aJ/4F+QyIn/zRtjkCvLvF6b5+jcwVMJmrtHgHs+/8uJJrspjtbHf0rq9ZtpTYHRhydnPNe+lefO68lrR0SHJshIolk88vpNsWyoNAkAhIaVbUVfhSXjZkAFn1c5wOePZmcHW3OklVKCcF7IWHDyGWESveyqSeOGRlaWv0SZWLCxlOBUzQqlzya173vZIHUZ0lRw7xbBLQ8v6kXBRgpwnKdG7balRM2ADXyYnVodWshTUEreK4FlAC7BKUvfCc/eYkR3ow+MzmxF55agpTm3hSm7060pDLldzVN/lcj8tNxqpnl8HqpP57Vt+X47d6WVIOqSBFOAhIuXPAaL1UDFINZcnCeSvYfPhw/P29aPht6oOziX+kxywoB2rFIpUsuJceAR6/RYP7CW8Y7dKrSOLScKnpzuB0thjE7OULsg9wuiMNag0yAfbI1bpGaUo3gnycAX9DWHlV7nJ3rmM96J6aqdffJtjIq0fA6Lf5RUijmnAfBNQEpFUO1IJ6/fsl8XHnCMzqw1CstKhfYuqXaM9G2XaQ8e3euOxx0wNl5OAMReEwrCSWL563q2LGJMvrceUVoSCuqulxevjUxmLHq3bu7aAfcA/yWpjSxlnGZ1/vGcJ1fwg8adJs1o50/I2Kqvc7O7xQBgRAIJGAlGZFVgfJjQnR+Tmhxw8dzcwVx+zE5SlhH8kHFE9rkXjY9s4+DejC9jVo54EjNHzehli9YTlzwF4jJj3QOxZsRvYUpvWWG06qR5lip4ojlyL5S8BqVOowPYf+kkfrIOAsgSAs1AVBRmdHBbV5SUD+mZyXNCy2Fd8WVh9GZFMkPshVWZxPUCZeTawqPCko/6iVuw5BNgn55OqOMRtrM37fLWL2JPvIO06kznXLetKW042YVVqdbhf1JRIws1twf39nD41iDEBAj4Ab7wX1rrle205fV+/OO10/6gMBEEgkEArl4ArhaYiT2i1mqsG287JRl+Ft4SVP9Y+5OrSSshTagXJCEdSVgJ9u7UathA1tkFOTKiWoeCF4SAryGPotuxnfArf01PbI4rfsaD98BNLdmdLakWcPXkFdAArfCKNHIOAegVAoB7XLF4tN0tVuMZ3AplYI1HVysBGrqbKO15ygKgdW++93fq0VNTOrvn7Lrde+0TOqVw7XUxMw4lq1tGpn0DAaQur2cBcE7BCw8+7iaLp205Cz3HEralceN8oFeRffDR6oM3oE7L8hJGNlZ5JuvQta00rrtVQUysHXN3QWK9WJ+NNd6bEuSXolOELvxt2HqHk1azsn6bWK0kygV86hd9Bwj0AqZZ2fffWBUiNlwj1JUXOUCXTR8aRVvUx2/AMtNsPEbm/fV/7SupV7LcrPM9xep3w0cDMCBEKjHFgdqwva1aCR8zeJiW3JlEW1tlZTFjB5U8s1YrtaZUyWliMbR+g9LmZQdlau/OxB0JQwNSv2QnJpx5q5l4PGX92fIP52Ijo1/+0ggUA6BO4QTi70zHx6NaqoW3X9isV17/lx40RJIvo2qVKSrj+xDnFMo3IintH2/Uf8wIE2QcB3AqEwK7JDsVfjijT23h70/U1dTRd3eyWljjCPGn33STRLBMkJSko1MXVmnyUoJLyTk32a68UBcfsZ9a6X/rdklWU9ySZc/hOEBG4TSPWO5XfzxR1q5Ipwe04EYjOLUOzuuaCO57n8Galatdfj969on7KgW4t06ka71StH57atHrv8xfWd1Ld9/a32foilBV+HI/SNR3bngEeWVwdkSw0qlZBNpAjJg9dthAY7t6snNaxA4//ZmtR1qwv7g4WDgmIFM+iiDnm7OkmV4gIIeEjgxh716NuZ/9LZravR7b0bUJuapal97dRe2X65vTvxzoKeZ6JThYvue76d52gvvDELtiZy48qprQqs1WY9d/f65Wni8m2xgmyG3F5YFoyYv9F6RSgBAjYIRHbnwAYrHDe0Aw1lQMACAaur9Raq1s16RsvEeCS6GQ1ulBORb184vxWZWZnlqqCKGgCNwG2zz4pdFLwbvXBQf3r5wlYx86PejSsRu9pOlXiinmqyzveUgTxT1RW0ezL9Tb5+SZtcfHUr6O8WB40x5A0GASgHBuMErwUGgFLc9mOil0IcE7ec3y430ajlLE2FXSyS+wSC9/y6zwQtOEvgoys7OFuhRm1FxG5WKvNPjSLSXfLqb9GMO2In4dzYo65udVpfo2/EDgISCHhBAMqBAeUMxVupdNGCBrlxO8gEJuVs4crahzcubUOTH+xNFUoUklXEQMqlnDhNf6RPbh+KFdS2uqwrVmPTSfHVYqU9eDr1oWxwCZQSkeXTSelMmr+/qYtO08br562qh8tDHQcyrVm2KN0kzLC8TEULaL9jkmTIGZJOOp6pkvLjAgikScDkk5lmKwEuzgc/P7+2Ex0+lkllhfcCpPASOHg0U+rOcQAijrAd5lSxRGLsALf7yp6flCt03P4H4nDki6OW0isXtdJsvm2aXsXYfniTcAFcQ0xGkEDALwJGZw9SyXVl19o0ZMTiVFkcvdesqru7pXf1bUj8z+uUyjJBqfhpqWvwdub1aEWrPSgHJsa7uyRu1kyIGpgsVUp5OwkMDJiIC3pu22o0f/1ucWiyDE1duYO+mr7WVSKtqpemFVv3JbTRt2kl4n96iVcY00kFxIIDFIN0CKKs3wT4Ga4n7OBXbN3viSgtxd/pJ9d0pBopYjd4IoiHjSh3NK06R/BQTDQVUgJQDkI6sDJ3a9rDfYhXwZGcJ1CzXHoTV+clslYj79Q9dXZ2BNazhIeVTbsP0rilyZ6ErNWqn5tX58yaZnwpXBuOWbSFbjhJ305YvyXcAQEQSIdAD+FVLEpJef4hS0M7CPo5kiiNZRD7CuUgiKMWEJn1fFP7HX3SyurTx1d3oKs/niE98ZkiNsaRY1mGnkik74gPAuo9p2pRutYrT/wPCQRkIWD22bUibwkDb0bxurRMXYzaqSbMItfvOmiULTL3U41fPsWqhRZrLYUhMuDQUdcJ4ECy64ij20CZYsm7AzJEwqxfsQS9eWnbWCRMZTovJ/iN8lqqKKNej2yqD0l54UYzjOcRvFgd69esMrHLxwvbZwc/8npc0R4IyELgss41yfTijdaMVZaOBESOVGcOOBBdPJVW7LRXLpltkttNxEFAAgG3CGDnwC2yqJeqlylKpwkf8qMXbqYjmVlSEWG5MsS+7fsTVuXKVTC/lvM4ecRO9SGRR8rgScKuHv8Q0dK9UESCRwcSy0zArEmc2T5oLZDolbWjGygnvHr14no2ATaxHPefnpSZlUXFCuVN1X64pSsNn7eBLumIYIt4VtwjgJ0D99iiZkGAV+j/eXpAIFhgchiIYXJUyPhuDMbeUayoLAIEKtpwqVyicH7qAnecpp8O3tHknW5lYtMsdrmKc3umMSKjDQJQDmxAQxH7BDpL/GEoK3kci1RmRfZHJHolS4oJSjwVKoBXYPSeAPTYCQIvXaDt6jdV3TzZvU5lzpkqfxTuxR0wRKGv6GNwCMCsKDhjFWhJx9/Xiyav2Ebnatj1+9Ux9Zb8TT3r0ZJNe2jM4i1+iYR2XSYwsFNNurpbHRo5fyNt2XuIGlQs7nKLqB4EwknAjjveahFyRWp21Hs0iJYXJrNckM9fAlAO/OUfmdbZxWbNcnLbSBYXdp0fXNmBuj33BzxqhPTJfPqcFrGe3dGnQUh7iG5FiYDcp6SiNBL2+4qzZPbZoaR7BLCn7h5b1Cw5Ab0Pq3pHQfJuQDwQAIGIEsC7KqIDj26DgMsEoBy4DBjVy0ugq3AFV1B4hGhVvVSCkOoP7tPnZAflkrcn4ZVMT4ELb4/Rs6gRuLJLrch0mV0uI+UR4NhmGvHNgAgEfCcA5cD3IYAAfhFgM6L5g06h/93SLUEE9cHfgZ2i8/H2ayzQLghElcCgs+wvPvRvXsVRbHbck5oVgOOIBO1d+vNt3ahvk0pmu4h8IBAaAlAOQjOU6IgdAoXyZ1A+ZZx6UYl654Dr/eX27naqd7SMllyONoDKQAAEAkOgT+OKws1legfq7zm5oSf97dmoAr1wfisqqAjs5UnDaTbSsnppcQ6tPZUtVjDNmrSL452uzQVX/ScA5cD/MYAEkhGoXyH5g9u8Wikq59IHwmz3YWJjlpR2vk+u6ah9A1dBwGcCatNGM+KUK57+hNWrg/mZWW7uSZihlV4e3kF47PSmdF+/RulVpFE62GQ0OoRLoSAA5SAUw4hOOEng2fNa0AXtqtOwWxPNjZxsw0pdlUsWplY1SlPHOmWtFAtF3tNbOWM2Mfruk6hHQ7gMDMVDEcJO/HBzV5rz2Mm+98ytBYgJy7bl9i2Iq+XVyxSla7vXoZtF8DEr6V4TOzPHcejAClLk9YgAXJl6BBrNBIdAxRKF6UUbAX7c6uGLF7SkEyPqC/vs1tWohvgwN6xcgu74ag79uXSrW5hRLwj4RiC/cIxQxuLOZNlizh/uxSp26keATVCLFcyg/UcyU2fMudtJ4qCfpjqATJElgJ2DyA49Og4C8hM4QSwztq9dlkoWLkBurWrKTwESRo3AqS0qp+xyv2aV6NZe1laxU1aIm74RgELmG3o0nIIAdg5SwMEtEFAS8Gs7HLvO2aOAjyj+HsNO4PNrO9Hq7fvpoFiZHjl/k2Z3Owpl+d3L22vek/Wi0iRS7Q1OVpmdkMvomwFXpk5QRh1uEMDOgRtUUWdkCJQonFq/PrFB+ciwkLmjRh9pmWWHbNEh0F28Ly7rXEvTY1qcwpsD27oGxK2FiL5NKmrKXLpoARp0ZjPNe7gIAiDgH4HUMxv/5ELLICAdgR4NK9IPs9dRlVKF6SdxWJntT9nc5eNJq+jZX5doyvuZWAms/eAIzXtmL2LF3Cwp5AOBcBCoUEL/PEGqe7L1ftKDvWnqiu10ZuuqmqLxIWw2HQxSclJeva6/elGrICGBrCEkgJ2DEA4quuQOgUFnNaMnzmhKP97SlSoKD0Ic7ZP9dmeo4iSoW8fugZqIH7+DNQHxgxDalIfA6S21J9NuS6g3WbXbbrXSReg84fmtgDhwrZWcnGhr1R+Ma8nLP+e0qR4M0SFlaAlo/8WGtrvoGAjYJ8ARla/uVkfsHBRJqMToA/fxVR1oslhBe164SEXyi0DyB9gvSdAuCBgR4AWHc9pUM8rm+H23zIocFzQgFSp5fnldJ02pwVwTCy76TABmRT4PAJoPPgGjNWl2U1hVrKBd1KEmbdt3hF4ctdRSp+EH2xIuZAaBUBAweq+EopMh7wS/u0fecSKt2LqPutbH+bOQD3eouoedg1ANJzrjBwEra9LXiJ0Hq8lK/VbrDlL+/5zSiAoXyEc3nlTXhtiYatmAhiIgYJlAs6olqXqZIvTC+S01yxYSf8NBTlbeJEVETISmgscZrfTNxPB+D/LTEF7ZsXMQ3rFFzyQkwB8LJHsEmlcrRXMfP0UoCBn07viV9ipBKRAICIGjWcGcNjaoWJz+e3EbXcqd65QjjuNQv2IJ3TxhuZHPxCEOozNrYWGBfgSLAJSDYI0XpJWQgJWVJAnFD5RIrBgggUAUCAyft8HzbjasVNz1NtnL21sD27neTlAaqFu+GJ3WsgqN+HtjUESGnBEgEOz9vQgMELooP4HiBrEO0u5BMBcQ0+52qgr6NqmU6nbSPRMLeEllcAEE/CTAK/BeJo43UEK4Zk434XVljSA7tHjz0rb08dUdrBVEbhBwkQCUAxfhoupoEKgs3Jq6mY4TPrdqvk+f05z6NNYOrKTOi98gEEQCrWuU9lTs5tVKOtKeGVMaRxoKWyV4zYdtRAPdHygHgR4+CA8C0SRQSShkHwoXsRVTBItSkqlVtmg0QaHXIGBA4OsbOtNz57agdrXKGuQ0d1sv4Jm50tHKVb0M3kvRGvHg9BZnDoIzVpA0ogTgBzv9gWd3skggAALJBDrXLUf8L51UpmgB2nngaKyKImE/F+TQITOOY+FHLIt0xhllo0MAX8zojDV6GlACUA7SG7jbe9dPrwKUBgEQ0CTAuw5s/vTZtZ2oZM7ZK3bdiZRNQO+sE5twvXpRa4KnIjwpshLAzoGsIwO5QAAEHCFwz8kNHakHlYAACCQS4B2HYbd2i12c/khfOpKZJZSE9A81h51zRj6sy4Z9jIPePygHQR9ByB96Ajinlt4QszcQJBAAAXcJsJthuBq2zxiOJ+yzQ0nnCUA5cJ4paowYAcw9Izbg6C4IgAAICAK/3N6dFm3cQ0fFjskj/1uQxOQE0l6Y0L6aVBwXQMA3Atjb8g09GgaBbAKntahCr1+iH1EUnEAABEAABOQjwFHbL2xfgwZ2qpW2cOWKFUq7DlQAAk4RgHLgFEnUAwI2CdQXwY7ObFVVt/RxnEjWZYMbIAACIOAlASur/lYiTrcSB7vv79+I3rgUC0Vejifa0iYAsyJtLrgKAqYJtKzmbLCiogUzqG3NMjRx+baYDDhzoD8UYKPPBndAAAScJ2D2DNN7l7cjqy6Ub+kJz2rOjxhqtEMAOwd2qKEMCCgIlBI+vuc+fjK9PbCtLS4F8yf+Gd7RpwF9fl0nW3WhEAiAAAiAgP8EECna/zGABPYJQDmwzw4lQSCXQOmiBW156mhSpSRd0SXbXvWyzjWpUslCdEmHmiBrkkCqLf7yxQvSWzYVNpPNIxsIgAAIaBKAowpNLLgYEAIwKwrIQEHM8BFgpWDwWc1zOzbk7BY0+MzmlC9f4pQ39BFHXRraGcLvulkTAJdEQLUgAAIgkEQAikMSElyQjACUA8kGBOJEh4DWOWOlYvDQgMa0WLjJ616/fHSge1A8xQAABitJREFUWOxpqjMHUAwswkR2qQhgAinVcFgWBuNnGRkKSEQAyoFEgwFRQEBJ4MYe9QAEBEAABEAgZARSmUOGrKvoTkAJ4MxBQAcOYoMACJBOiCGQAQEQAAF3CDixI5Bqx9MdqVErCFgjAOXAGi/kBgEQkIgAPrISDQZEcZSAltmhow2gMlsEWojAZ5wyVGfD1JXpRUdW58NvEJCRAMyKZBwVyAQCIAACIAACICAdgVcubE1v/7mCLulYw7Zsc9busl0WBUHACwJQDrygjDYiR+DR05pQg0olItdvdBgEQAAEwkygQolC9PgZTQ27WEQEs0QCgaASgHIQ1JGD3FITuO7EuobyHUfsY0NGyAACIAACQSTQqU7ZIIoNmUEgRgBnDvAggIBTBOCCwimSputR2mUbmACbrhMZQQAEQCAdAv85pSFirKQDEGV9JwDlwPchgAChIWDxdCwOrKU/8plZWbmV/DNkAEFBSJ8pagABEAABEIg2ASgH0R5/9N5HAjArSh/+scw8jSx/Rj4a0LxKrNJmVUumXzlqAAEQAAEQAIEIEoByEMFBR5dBICwEHj29Sawr159YJ/b/z53Xgp45pwV9ek3HsHQR/QABEAABEAABTwngQLKnuNFYqAngzIHnw3tRh5rUq1FFYg8inEoULkCXdqrpuRxoEAScJqAVbOunW7s53QzqAwEQAIEkAlAOkpDgAgjYJGDxzIHNVlBMRaBiycJgAgKRINCqRulI9BOdBAEQ8JcAzIr85Y/WQQAEQAAEQAAEQkQA0a1DNJgR7QqUg4gOPLrtAgGYFbkAFVWCQDQJ9G1SKZodj0Cv88OtWgRGOdhdhHIQ7PGD9AEmgNWlAA8eRAcBlwmc3BTKgcuIXate67yIsrFa5Yq61jYqBgEnCEA5cIIi6gABQSDD6IsASiAAAiBgksAJ4n3StibOGJjEJVU2LPxINRwQxgYBHEi2AQ1FQECLQNd65aiN+Jg3rlxC6zaugQAIgAAIgAAIgID0BKAcSD9EEDAoBDgI1/9uMXY1WCh/Pjp8LIt6ChecSCAAAiAAAiAAAiAgEwEoBzKNBmSJBIFJD/amZZv3Uee6ZSPRX3QSBEDAHgGld+R4LA97NaEUCIAACJgnAOXAPCvkBAFHCJQvXoj4HxIIgAAImCUw/eE+ZrMin+QE+DwJEgjITAAHkmUeHcgGAiAAAiAAAoIAJpR4DEAABLwiAOXAK9JoBwRAAARAAARAAARAAAQkJwDlQPIBgnggAAIgAAIgAAIgAAIg4BUBKAdekUY7IAACIAACIAACoSegPEge+s6ig6EkAOUglMOKToEACIAACASdAIJpBX0EteXHcWRtLrgqDwEoB/KMBSQBARAAARAAARAAARAAAV8JQDnwFT8aBwEQAAEQAAEQiAKBU1tUjnXzxh71otBd9DHABBDnIMCDB9FBAARAAARAAASCQeD/LmlLD/Q/QLXKFQuGwJAysgSwcxDZoUfHQQAEQAAEQAAEvCKQke8EKAZewUY7aRGAcpAWPhQGARAAARAAARAAgTwCtcoVBQ4QCDQBKAeBHj4IDwIgAAIgEFYCcIkZvJEtUTg/ndGyavAEh8QgoCCAMwd4HEAABEAABEAABEAgDQIfX9WBRi/eTI+f3pTyCfMhJBAIMoETjosU5A5AdhAAARAAARAII4Elm/bQxe9NpTt6N6BrutcJYxfRJxAAAQkJQDmQcFAgEgiAAAiAAAgwgays41iJxqMAAiDgKQEoB57iRmMgAAIgAAIgAAIgAAIgIC8BHEiWd2wgGQiAAAiAAAiAAAiAAAh4SgDKgae40RgIgAAIgAAIgAAIgAAIyEsAyoG8YwPJQAAEQAAEQAAEQAAEQMBTAlAOPMWNxkAABEAABEAABEAABEBAXgJQDuQdG0gGAiAAAiAAAiAAAiAAAp4SgHLgKW40BgIgAAIgAAIgAAIgAALyEoByIO/YQDIQAAEQAAEQAAEQAAEQ8JQAlANPcaMxEAABEAABEAABEAABEJCXAJQDeccGkoEACIAACIAACIAACICApwSgHHiKG42BAAiAAAiAAAiAAAiAgLwEoBzIOzaQDARAAARAAARAAARAAAQ8JfD/ym/jIK18nyQAAAAASUVORK5CYII=;clipPath=inset(0% 2.67% 0% 2.67%);" parent="1" vertex="1">
          <mxGeometry x="270.06999999999994" y="470" width="95.46" height="40" as="geometry" />
        </mxCell>
        <mxCell id="woaUJ1NgNmfOBe0f4mOw-2" value="" style="shape=image;verticalLabelPosition=bottom;labelBackgroundColor=default;verticalAlign=top;aspect=fixed;imageAspect=0;image=data:image/png,iVBORw0KGgoAAAANSUhEUgAAAwcAAAE0CAYAAAB5KU9lAAAABHNCSVQICAgIfAhkiAAAIABJREFUeF7tnQW8HEXyxyuuL+6eEFfiQRIkQgiugeDOcccBdwcHh3uAP+4ugcPtkCQQISTEhbi7u7v9u+a9fW92dnxHemZ+fZ98uDfT01317dndru7qqkJHRSEUEAABEAABEAABEAABEACBxBMonHgCAAACIAACIAACIAACIAACIKAQgHGAFwEEQAAEQAAEQAAEQAAEQEAhAOMALwIIgAAIgAAIgAAIgAAIgIBCAMYBXgQQAAEQAAEQAAEQAAEQAAGFAIwDvAggAAIgAAIgAAIgAAIgAAIKARgHeBFAAARAAARAAARAAARAAAQUAjAO8CKAAAiAAAiAAAiAAAiAAAgoBGAc4EUAARAAARAAARAAARAAARBQCMA4wIsAAiAAAiAAAiAAAiAAAiCgEIBxgBcBBEAABEAABEAABEAABEBAIQDjAC8CCIAACIAACIAACIAACICAQgDGAV4EEACB2BE4cuRo7HSCQiAAAiAAAiAQBAEYB0FQRh8gAAKBEXhp+ELq9PgwWrF5T2B9oiMQ8IMAG7mXvzOBbv9smh/No00QAAEQ0CUA40AXCy6CAAhElcBzvy6gLbsP0FND5kVVBcgNAgqBBRt20phFm+i7P9eACAiAAAgERgDGQWCo0REIgECgBAoF2hs6AwHPCRw54nmTaBAEQAAELAnAOLBEhAogAAIgAAIgEDyBQjBwg4eOHkEABHAgGe8ACIAACIAACIAACIAACIBALgHsHOBNAAEQAAEQAAEQAAEQAAEQUAjAOMCLAAIgAAIgAAKSEzh6FOF5JR8iiAcCsSEA4yA2QwlFQAAEQAAE4kQAZw7iNJrQBQSiQwDGQXTGCpKCAAiAAAgklAA2DhI68FAbBEIgAOMgBOjoEgRAwDsCC9bvpI0793vXIFoCARAAAY8JwC3MY6BozlcCMA58xYvGQQAE/CSwbNNu6vP879RZZERGAYE4E8CJg+iO7lu/L6bjnhxBK7cga3t0RzFZksM4SNZ4Q1sQiBWBP1dui5U+UAYE1AQKERIdxOGNeOLnebRuxz56cvDcOKgDHRJAAMZBAgYZKoIACIAACESPwNY9B/KFhltK9MZPKzEyXmuJ4G9ZCcA4kHVkIBcIgIAjApg8OcKFypITOHzkKF3y1njJpYR4Tggg+pQTWqgbJgEYB2HSR98gAAKuCLAh8H9D59PXU1flP3/V+5NctYWHQEBGAnsPHk4TC2cOZBwlyAQC8SRQNJ5qQSsQAIE4E5i6Yiu9MnJRmoq/L9iY9vdPM9aKA4Bj6L2rO1OVsiXijAO6gQAIgAAIgIBnBLBz4BlKNAQCIBAUgW17Dup2NV1zQHnGqu307C8LdOviIghEiQDyHERptCArCESbAIyDaI8fpAeBRBLgyB965cOxyzIu7z1wKOMaLoBA1AgcJTgWRW3MtPLizIGWCP6WlQCMA1lHBnKBAAgYErj321m6976ZtjrjOqZUGUhwAQR8J8BhO+/6ajohUEABauz++P7aoQOPCMA48AgkmgEBEAABEAABvwhEbWL55qgl9MXkVbR4426/kESuXewcRG7IEiswjIPEDj0UBwEQAAEQAAHvCKzbvo8GjVtGu/cXuPIdQnB/7wCjJRAIiACiFQUEGt2AAAiEQyBqK67hUEKvIJA9gfNf+4PWCANh9pod+Y3F8fO3Sxg/f/l4Cp3Ztib171wve3BoAQQkI4CdA8kGBOKAAAiAAAiAQBQJsGHA5bNJK6Movm2Z3/p9CY1euIn+/fVM28+gIghEiQCMgyiNFmQFARBwTAAHkh0jwwMSEojjCryEmG2JtGOvfihlWw+jEghEgACMgwgMEkQEARBwTwDRUtyzw5MgAAKZBMwOFu/cd5CeGjKP5qhcq1ItFKJCmY3hCghISADGgYSDApFAAARAAARAQE0AeQ6i8T488fM8ev23xdTvpdHREBhSgoAOARgHOlBwCQRAAARAAARAIHsCSXOHmr1me/bQ0AIIhEwAxkHIA4DuQQAE/CWAMwf+8kXrwRBI2iQ7GKrB9vLTzLW0cef+YDtFbyDgggCMAxfQ8AgIgAAIgAAIgEAyCWRzduDVkYuSCQ1aR4oAjINIDReEBQEQcEoARwCdEkN9GQlgB0zGUXEu0+EjGEnn1PBE0ARgHARNHP2BAAgESgA/xYHiRmcgkDgCD/1vNp3z6h904NCRxOkOheNJABmS4zmu0MonAocOH6EihcWmslksu7y+OYTmkk27qUHlMsozKCAAAiCQNAJxi7I0asFGmrJia/4wLt+8mz4Yu0z5e8S89TAQkvaCx1Rf7BzEdGChlvcEdu0/RB0fG0bXfjBJt/EjYrt4wpLNtFvU48I/GD2fHUV3fTVDtz4uBkMAZlkwnNGLvwSQr8NfvnZa37BjH1313kSavnJbfvWTnvkt//8fEr8B89btNG3KxrqS6fO4CQJBEIBxEARl9BELAsPnrqftIjPmyPkbdfV5XxgD/d8aT5e+PV65/+Lwhcp/v566KqM+GxL8DwUEQAAE9AjAGNCjEu61DRaRhuxElDpip1K4aqJ3ECAYB3gJQMAmgYOHzSfzX05eqbQ0Y5V5nGs+kNbr+VGKjyomADbhoxoIgAAISE5A+wvR/81xtP/Q4TSpPx6/gtg9FQUEZCYA40Dm0YFsUhEYNH65J/Ks2rqHlmzcTTNXb6cD+JHwhCkaAYG4E9BOPOOubxT10y72TFi6hb6ftiZDFT6LhgICMhOAcSDz6MRItknLttBfPp5CU5YXHOSKmnqrt+51JLKRr/u2PQcdtYPKIAACySOgNQYe+3GOtBB4N5QP48a9uHEJ2o8FoLi/FrHUD8ZBLIdVLqX4R+OiN8bR4Fnr6ILXx8olnANpvDpIxu5EKCAAAiDghMAXkzPPLjl53s+6HHzh2g8m+9mFFG1bJT+77bM/bcmJYwe2MKFSiAQQyjRE+Enp+sOx3rjjhM3LaCfASC69cKd8qFmv7DlwiAoL66NksSJ6txN5bZnYeufoH4+KFVMOBfvuVZ1shZBNJCwoDQIhEhgya61h75gIG6LBDRCQlgCMA2mHBoJFnYDW/5QT5Fz3YfrqGv9w7jt4mFo+MJTKFC9Csx/pG3W1PZGfD+yd/H+/pbXV5/nfaeGGXTThPz096QONgIDMBOIyqXbjiiPruHi1exy33A+yjhfkck8AbkXu2eHJhBHQ+gBzFIqXRbjSWeJgsZ1y6Ih+hIplIokOl90H0qNa2GkzrnX0DmqzYcCl93OjfFNba9D51hEaBoGEEDj7lT/oH5/bc7eRHYlXxoHsekI+EIBxgHcABFwSeGvUEnr21wV05stjdFvQuhXZWQnE5FQXZdrFHftyk8xZ18ytoR0Ho+c402mXJ4bTG6MWG1XBdRAAARcEvpm22sVT8XhEzx31kEVY7HhoDi2iTADGQZRHD7IHSkD7JT9n7Q5H/Wt3Hvjh5vcPoRs+iv9BPkegPK5s1+B6euh82iiSHA0cPM9jCdAcCLggoPeF4aKZIB6xOqgbhAxB9OGVnj9MzwxvGoT86AME7BKAcWCXFOolnoBfW8ortxSESE3tLmzZfSDxvIMGwAfCUUAgLAJ8JglFbgJefUXsFgEoUEBAZgIwDmQeHcgmLYG+L/yuhGY1K9qppt0V7Od+mU8dHv2VvpiUm3HZrA/csyZg162oiHbArJtGDRDwhMDC9Tup6X2D6cHvZ3nSHhqRm4AdF1O5NYB0cScA4yDuIxyyfpwcJ45l3rqdpmrd9dV02uxi9Z9pvTRikdL2/ZgomDK2e9OuUWa3PdQDAa8JpD7zH44rCPuMiDZeU86+Pa92DuL5q5g9X7QgDwGEMpVnLGInyZw1O5SkZ3tFqM6kFb2ERfhBkPstwPjIPT5xlg6bVnEeXegGAtEjgJ2D6I1ZZCTmle84GQbZHEY755UxNHrBJsuxwyp3LqJsWGsh/zhjLe3Yd1B7meDjnYEEF0IioLciDdcT88Hg/DDjl2wmzokStYKxjdqIJU9eGAfJG3NoHAKB6au201//O9Wy56UiK3Cq6E0YLBtABV0CLw5bqEQiSpX7v5ul+Hgv3pibO4GvY/VWFx0uBkAA755zyH/5eApd8tZ4elHkmolewT5l9MYsWRLDOEjWeAeqbZJ+8Lw6W9FbZAFG8Z7Au2OWUufHh9HsNbkJ6waNz/Xtfv035DTwnjZadErA7qF5p+3KVP+Ix+fPRs7fqKj3sjijJfPuwcote2QaBsgCArYIwDiwhQmVQMCcQMsHhpDVIWXzFjLvphIqs6sR3I0y+bi58tWUVW4ewzMg4CsBvYWUSK0t6ymgIWZn59Qt5Dd/X+L2UUfPfaQ6MG73waBksysP6oGAHQIwDuxQQh1XBOLmFmOmz34fYpQfEL60bBT0F1vnV743EQaCq7cw/SH4+noAEU2AgAsCVqGfXTSZ/8jPM9dm87jtZ/87YYXtumYV8T1kRgf3ZCCAaEUyjAJkAAEDAmu276OJS7cod3ftP0Q5JYsZ1MRlOwS0OzD4kbZDDXV8J6Baed+wYx9VK1fS8y7/8+1M4rbfvrITRdmNiT/D80VeiCgXfO9EefSSITt2DpIxzqFo6WXEmVAU0HRqY+fcczHVk9ko/6B7DsZlg166PT/ywxw677U/EPXI5VjgsQIC6u/KHs+MVG5oDdlsefGq97C5G2jO2h3ZNhXq8/+bvob6vjA6TQZMtkMdEnQeQwIwDmI4qLKohCQ+2Y9EUn/0/Hp3tO2auYpZjd57fyylaSu2iQnXeququA8ChgQ4pO7XUwvOwuw76Cw053qxGzBlee7uomEnqhups0x26spY5xMd155Inc8QULXfQzJyhkzJJgDjINnjD+1BIFEEtDsHKePrjVGL6bs/17hicTCCcdZdKYqHfCHwvjAysyldnxgukk2Os20gZGMQZyOnn8+mdln2HDiEnTw/QaPtxBCAcZCYoYaiUSQQxx/yMMfByFVj4OB5YYqFvhNMwMjNx+lq+Pgl9ncPvMYdhsulVgc2DFo+MJS6PTlcewt/gwAIOCQA48AhMFQHgSAJqN2KZPgBDkr3sN2pOOQpnymwk78ibFmDGhP04w+BIoWT9Mn2hyG3On9d7iHlLbsP+NcJWgaBhBCAcRDgQPOq5fa9BwPsMdyu4nQgedic9cSRg8IsTlcSw5Q16n3/68vpxGcKvp222lIV+A9bIkIFEwJFHRoHPAnm7MALHETsSQ9sYCJMRG+xgR6l70csKET0RUuQ2DAOAhzsWz6ZSu0e/oVmrNoWYK/hdRWXSdNcEd3j+o8mhwcSPYdGgA97WhX80FsRwn0zAkWL6P8MG71XF70xljhnwCUi/4ndYtSW3edlr8e/NVHS8StxAH31tr10/YeT6dEf5xjiTRl1nF167KJNiVpcNISCG4EQ0P9WCqTr5HWSSgLz/h/Lkqd8RDXmSCKnv5geNi9IVU7KC2vIfSbJ+SBKq4DaQ85Bvh/oK/oEnO4c7Nh3SFHaifuM+vMUpx3d1OjbNQw279pPfDYh7MLynjBwhBLp7N0x+gfSRy/cSB0fG0ZDZ6+jTyYspwHvTKDzRehkFBAIggCSoAVBGX1ElsCPM9xFsPFKYUw8vSLpXztGh5z96xEtx4lA4SyiDvBqsp0Sq3fU5crBtj0HlMk2n/FY/EQ/O9gCq8M7lNU1ie+ueHei0v9Ng6ZQ5wYVlf+/eOPuwGRCR8kmgJ2DZI8/tLcgsPvAYYsauJ10Ai7nKknHBv3zCBgZB3pumbyarC68mmynqN/Rv382zc4jEaxj/kmcvSY3+ZudIAN6yj85eK7eZU+u7czbDTJqLI67PUa64rocBGAchDAOsVrFCYGfH13+uXKbcshv5ZY96c3b3a/2Q6gEt+nXZ4SjEPUL0U0swUMK1Q0I6J1H3r5HP3BFajXZoCnDyy8MW5B/b9GGXbT/UDQXPdiVauKyzJCt5mZBJhY3uUneHLUksyGPrmSxeeSRBGgGBNIJwDjAGwECgsC5r/6hHPL763+ngkfIBH4VkaHaPPSLL1IcPHyUtHHltauxvnSMRkHAgEBhHevg7FfHOA6/Y2ZQvzpysUHv3lwOanL7yohFugKb6Z56QL3O0/z+IXTfdzN12wrjotHuUb4sSTpwFsYAoM8MAjAOMpDgQpIJLN2U7tPpdEUqyey80J2jctwQcGQot6uxXuiLNkBAb963fLNmBzMmmDbYiP5lpqrRjofT72l2Lfp4/AqzrgK9p/cOqAWwuh+osOgsEQRgHCRimINXkldypq3QD9n60P9m05w8/8/gJXPWo8xeRYcOH6FVW+M1iTh45IizAQqh9o59B8lsksOuD2+OWkwbdlqHQQ1BfHQZEQJTDb4/IyK+rpi+GeLCOrD6rg5qd0NXcYuLLBsbPq/9tigyv40WKuF2xAnAOIj4AMoq/vd/rqFDBqF2Phi7jPq9FF54UFmZOZXryvcm0olPjaTf5m9w+qi09aNw8K6tcHnq8sRwQ4Z/FflMnhw8j655f5JhHdwAASsCN4szUHEr8x0kbvNadyvjwev+nLTH33tv/76Enh4yX/e3UWbDxomeqBsdAjAOQhirQgn4pH//p3Vm2RDQO+rSjh+rowazrMwZUZds3JXfytjFm5X/P2jc8ixbTu7jehFhsqUxbknuuKSio2TbHp6PL4Fd+w/Rm2JSiJIdAaduRdn15v3TfNZt1urcaEp6rUdh0URPblyLLgEYB9EdO0juB4G8X5mdwnWk+9Mj6UHhAiVLOe+1sXTqs6PIbSg+WfSAHCAAArkEPh4fjmGvXkUfKXYez35lDM1ftzN/WHhhZLqI4LZ9r37UJO34TVq2VXsp0L9Z3ts//zO/z5HzNmQkiZN5TW7m6u2B8kJnIGBFAMaBFSEP7nM0lHu/LYiMgMNFHkD1uYlvpq4W/vx7fe7FXfOHIuCX706z4J/CilzwzNFjAYF9B70LKerWbYbd32as2q6Eck4VNhjOERHcej03ynK4Zopnw16wYCNG/X19zQeTFINHXdzysQSACiAQQwIwDgIYVD6E9cmE9MgInMb9incn0E8z1ioS7EWyrQBGwn4XsrkUmUku84qYmdwy3PPDrUgGvSADCAyZtZZuEwnP9hw4lAFDb6K8TbVLMESEdeaycef+jGe1F6aucLZrcP93s2y1q+3H7O+tOnkhZF3cMdPDzr3LReI7BDuwQwp1siEA4yAbelk8+9SQeTR64SYlrj5/ubZ4YAg98sOcLFrEo14SSMK5EC95edHW6m176bJ3xnvRFNoAgUgQ8HLnSpvN/eaPpxIHhujx9G8ZLKyMYj3jIaMRcYFDDzstg4Qr1V1fTXf6WOzrmy3yqMdrzKJN9MRP/mVrjj1oKGiLAIwDW5g8riT8irbsLvDl/L+h85UO3vtjqccdoTmnBHaKA4JviDCUfOYAJVgCd389g8L2XQ5WY/SWdAI6+c9cI+HvLb2ySexSa4vV5N/OlP/OL6crUbvsnktQyzBPdb5BK5sff9/zzQy6XOzUR6mYGQt6OyVR0g2yyk+gqPwixl9Csy+B+Gsfrobrtu+jH6avSRNioAhDiRI8gc27DgTe6VaRkyDb8odYybu4U91sm8HzCSTg13f/5GVbTGnamfybNiBufjlllVLlm6m5/7Wqr75vZZw4actO3U8nrrRTLb/OxKVb6LGf5tDZ7WpRk+o5dFLTqo6e96KymlHQvLyQH21EmwB2DqI9frGRns9gjBOhOYP29b/wjbH0+M/Yoo3Ni+RQkZHzNzp8IrM6u26ggIAbAn65L174xjhTcb6c7GyybNpYDG9e/OY45ZD2Y8J95yqRTwY+/jEcZKhkSkA64+Ceb2bSA9/PMhU66jfZz1S9YuSl36kMbNg9xOmk66RnfqNL3x5PQ2evD1SFeBxai0f8Ky9WM71+eYI2Vln+A4eO0JTlW4kzYKPEm4BfOwdW1B7WOd/GkZMW5iUpc7JSve9g/N/TTTuz32G0GhOzd0HG70YrfXA/2gSkMg427NhHn05cQR+JpE6cHCbbwuHVOGmU3g8839O7nm2fbp6PW2jKzyY5X5VKjXecsv26eRfwDAj8WxjXF7w+lp7JO4sEIvEl4PXC0G7xu+n2d22PiJjX+/nfiXMEWB1YfkiV/2Wd+N2Oe1kfgI6mBhmsg7i/YtLpJ5VxcEgV+eCI6SfFHsc7RUQEThr14dhlaQ/wilzv50eR1darvV6yrzV+ibl/aPY9oIU4EfhobDiJk+LE0K4ufrl9mPX/7bTc7OLInGtGCff0CHDW9BFicm+nsCGh5170Td77l2rjxWEL6X/iXBbXT5UPNL+pdvpT17EyPpy251V93j3RS0zHeRNkKma7DDLJCVmiS0Aq40BtHH8yfgXtyDJiDCey4vLKyEVpI7R4426xo7Bb2bp3E4ot2+HGBzuXIIdw5ZjNYxdvykfqgU2Y7fBI/zyfkVi1dY/0csZBwNQqLGeL1ZtIxUFH6BAeAa9/C/h9/X2BvXM0nJjzzq9m6Cuv+jF+ftgC+vun00T4UYO6+i34ctXvBXTW9T6RhyGMYvYuyGpMhcEJfQZDQNpoRZwHgCfv71zVSZcEJ3ZZv2M/NaxSJu0+uwv9KX7IW9cul39dO+FUfwj9/rLRFR4XFQLnvzZW+S/HbUZxRmDnvoJVvFmrt9PLwxfSjSc1ohJFizhrSKLabt0hglCBs8VyySlZLIju0AcIuCLAm+92d7t4N0CvGJ1g+mnmWnpV7wEX1/hcDbvqVC9X0tHTbiIjmXXAchQvWrBGOnoBfovMeOFecghItXMwbE76YdRhc40Pp57yf78R/2NDQF1eFJY/++teKbIS2yl+T0j0dia+ygsBZ0e+pNXhmNknPzMywxUsaRyc6Ms+v8/+uoDeHbPUyWOo64LAjFXp3zcumsAjIOAjgWgsd3Gc/q4iR8KrYlefw4baLV4ffm5632DiHRT+3Wl672Cas3aHXVF8rbf/0OG09rULnL52jsZBQBCQyjh4UHXIyWp0eNeAy9DZuWneU/XfHp07QZpg8oUT1AftBWGodHp8mK4qRqszupUjcpETh63YnJ27yxAxnstEG07ehYjg8VRMvXf46SHzLflvEXH9McH1dCjQGAi4JuD174De94Ib4YIyMfjQPYcNDbN8MmGF4t56QKLoYC8PT3eF9uIMZpiM0Xf0CEhlHHiBz8o3j1cppqtW/1JfgrzqyjsRa7fv9UIMpY0XxEEunowlpXQTK0E9xKo/iv8EjN7z+y3CAPMYnf3KH45W6/zXJjo9BDVpckuE3S05KRvCoLolGO3n9okV52wPCzMBv3fUZaM8U7hmhl1+nlmw0DlKc25k6grsWIY9PknrX3rj4F8iRbuRb2Tul5j1kKXOGPBEnVcp1AerUistj/44h5Zu2k3PiNVXbeEfXM44qecipK2b5L93i1B4MhT2I52zZkfifuCYPb+rZiW1OjZqgb2IJmZt4Z41gd7PjVJCQwZVbvxoCl0mVkFfFGdQUJJHwCuX1e8CTuzHUYL8KDx3uP5DuSIN2dFTBmPFjpyoE18C0hsH/GXHkRKsyrx1O+gLkfXRbFt1k8jCa1UOqsKppuryjy2HPf1o3DKrx3FfAgK3fDKV+r00WsmXEdfCu1J6hV9fXvXjRIKfTDDW3+v46nqyOL02b91Op4/4Xp/DK5/zypj8fpy6gSzcsIvUYRB5bCaJhYZsI7EZKZ463K8XjtHoGVwPj4BZhBo3Uu3en/0k22wxzo1Mdp5pfv8QGjRumZ2qjurw3GHY3OCMc0fCoTIISExAGuOAV+btlM1igj9k1tr8qqkv174vjFZ2BPaLVWMnxcg9Q93GtLwtvc8nr0prmhN3sfGyXRyuQvGegFvXiNRB9nfGLFGEGjR+Ob0xarH3AobY4q+aw/spUXjyyRNENozu/TackHwhYvG8a57IT19V4HKQrQHDOQwuEgsNZ71cYHB4LjQajAwBr410bYAOP0DYWWRz0+/938/Of2zjzv30/h9L8dvqBiSeAQEPCEhjHFz9vr2tP/aXvvnjqfmqm+0UeMDHtIl/C2OE3Z5uGDTZtF4cb+4VLkTnvfYHveSj+8LnYicom3JE2InsCna/iFs9cPA8Wr3Nu/Mk2cjl57O8c7Bjr7lrkZ/9x61tzoeiLnYTTBlx+HFG7sLG8ryD+wvX76SbB02huVlGSeEJmzbCiZEMuB4ugW17DtDBvMOvXu8cBKHZJW+N972bK9+bSA//MIfaPfILPfdLpquv7wJI3oHTHUzJ1YF4EhKQxjhIfVlaMfJ6gqc1LsxWq7UfSI77zEUvFBv/AJgVHe8lpTpH+4nC2QZ24eIdledECE2/yry12buZqA+Q7hX++MyW3W3YDS2OJWkHCf0ew7Xb93nahfY75AoRcpkjdJ3+4mjX/azcsoc6PTaMeonzDaki+8Fp18pG/ME1YoHi2Ed+pX5ZjHfYCBYJVzm/i9pYfmlEeuQev/tG+yAAApKFMvVrQFIGgPaHWa+/wbPWKT+yekaI3R9c9ifmHwCzYpTDgaP93PX1DOIfkf+I+Mu8smhVNuzcR0+LpHE8SQiq8KFfv4vTVbXlm3fTPd/MTBNLO1n+euoqxd2G3dCmLLfnyua3nl62b/cd9bJPtEX0noh2du0Hk+hu8dk1K9p3mnNUpMrsNdtdGa0pF7OVW+K/M2bGNgr3Ut/7fBYl7GK0QGUm14Qlm81u4x4IgEBMCEiTIdnPSU3qB/mNUbk+6FZjxysjj/80h167rKMrn8dsV7z5HAP/eEwXCd6+nbqa5j7a11Tkv30yjSYK3+hvRN3x/+lpWjdKN9VZgO3Iffm7E4SBVDBBYsMg/b0qROooEBe8Hm58bTs6Oa2jjYe9QUw+OatvqeLpmZP3+hQdxKm8XJ9dYvZ4cJDSTd9ePfOIiHZmrxQsUXDIUXU54yV75xAeyssH89DZrex1iVrSELCzQCWNsDqC9PfZpYhVPg89AAAgAElEQVRd477UnO1LifHOaHu/3zpi4xIIgIBDAtK4FZm587BOu8XhX+2PqV1dN+06QLzSzavG2qJ1K0rdT0V9+HzyCu0jgfw9Ky/usp1JHBsGXNSrkIs27KTbP5tGizeGv0LlFhgf3nRS9FZO1ZNlNhKNxttJPzLX1erXReQ1OH7g8AyROa8Hx9LW7qxkVAzgArvExD0/xlhhCDS4+ycROaUg6ztHQXNaOPgBx7Hnf1aui07bRv0ACGi3jgLoMkpdfCje6/vEGTG98thPc/Uu4xoIgIAPBKQxDqy2OFs9OFSJ360t2rVh7f3U39pMykb1Ute1K7Cp62xkcBSFIPwurWQ0u9//zfHEsaovezud2eiFG+kXTVZps3bs3OOcAlsDSvbGEyLthHa9WB1/XufsAxtL36vidfOqnd33xY7eMtbR+xxtNYimdZU49PebJtmOjDrFQaYBOt9dbvQ6xKfs88phvcHOu6c1Et30hWdAIGgCRlHYgpZD9v5Gzt8ou4iQL+IEpHEr8puj0Q+p0WQx9eOq/pHlQ1KtHhwiIk3kOquoV6J5wloob1XIi8OuRvJaceJQdu3qlKfNeZN19W4Cy8gHILlMurcXVc0pYdWcrfucUyCIMlysul734WS6+vgGxC4V7P96q4hjvUGEvdMrPHdSJ7zjOpg0pZMaLxie0qyaHj5cAwEQ8JiA1q3olZE4bKtGPGnZVo+Jx7c5PmNXv3KZ+CoIzUIlIM3OgVsK2caJdjpZTBkGLK/6WXZd4sI+3g+o4jW71Uv93E5xwLnL48NshXQ799U/qKNw07Aq2/eaR1Oyej6o+19MWpm/S/OkCEfKhV0quLChY2QYBCWfbP2wAbtqa+bBdD60foaOEZft50c2/ZMkzwxV/oUk6R1lXdVeRXwAfZvBrl6UdYTswRBwmtMpGKnQS1wIRH7nwGjl36sBsntQ+ikRLahy2eJ0clPvV2FPfGokbd97kDik2zHVyiqT41cHdKBaFUrpqrklIBcf3c49vsiRm7gsG3iGcm5EXQ7kxQq32yXv7CTB5TdlRKm5PP/rQpot3L9Q4kNgpY4RmNJO63oXH63jowkMg/iMZRiasOsz5xvaKlxtjeYCYciFPuNBIPI7B3aHwciIsJr82/Wl5whDb4poSH6EE2XDIFVu++xPJb/Awz8UZJO0YvCISCazbFN6MienOyZWfQRx324uDDNZoqi3mT527yFBll1S0amndVHRSs6LBJxpFkUeAuqduqR+F8kzGtGWhI8fdX96hAg4MYJ+zsu5FG2NIL1MBCJvHMwUW+unPvubJVOnX8RsTPDq25u/Owuftlsk2gqiOAnz+Z44QH3Rm+Mi729/yOQAph3mVpMpO21EtU5hgy0Tg8tRVTOWcrNbYcpVTO8skt4Y8kelw6O/UmfhjrhPorC1sRwgB0qpx4pDL6OAgFsCPEdJuTPf8slU0vtucNs2ngOByLsVjV2cXVIWo+33PxZtVn5YnZZXRy52+kgg9bUriHoTikAE8agTJzsnHnUZ6WYKG1hGTo1mLyFwssCx4nOGYk6AJ/l81ulffZrS//1SkJHcbNdT7YLHn/26lUqbd4K7gRAw+BgG0jc6iReBQ3mBUVJasZtREcIbFq9RDk+byBsH2aLjH1ijrKYpq9xJH5zQKYiS7aQu2+f5MF3QRS3z+38sc9x91A0ixwqrHpAx9O6170+iycsRncRqXFNBENSGAT9jdxrAuVIGjV9OvVpUo5rl9c8pWcmA+9kR4FXdx0RizcUb0907s2sVTyeZwKO2Ey8mmRJ0d0sg8cbBR+Jw72ciIk5Ui9HOhx/68EpvOZFtlwvnUAi+mK2VWkvD8f4nLs1NGGddO141popzKrIVGAbZjwifJeHEUdqiPmM1UET5GjFvA704rARNvq+Xtir+DoAA+4S7WdAIQLRIdDEYPvUZ46T9/lQvnvG8gA3SokUi7zmeoTcuBEMgMW+O0Uq5djUuGOzZ95JaBb9SJLKyW+at22m3akY9zqjb9qFf6BudLNMZlSW9wBm2F26IbsZoP7AmeTfFD55Btnm/CJn8rHAzWrY5M3StOuTyb/M3KGIFtasZJIOo9AX22Y3UX4RPPYo5AfWCwPUiH1CXJ4bTrv3BnIE0lwx3o0ggMcbBxxOWR3F8LGUevXCTZZ1UhQteH2u7rrZiagvzH19M194K7G8jA8+uAEHustiVKex6BzXhYcOWB/07I/CWjYAJqeSMzlpGbRAAgSgRGDF3Q37UouFip5CjlY0U/0UBATcEEmMccPjPOBU+iO10VYB9j40Kt2U33OXZr4wxakbq69lGO5JaOZfCvSN2hFBAAAT8JWAULczfXtF6kgjw7gpHLVLnOcLOcJLeAG91TYxx4C02OVpr/eBQTwRhw4DbOu7JEbbaCyMz67UfTKItItlLNuWFYQuzeRzPgkDgBI5kGb6XBbZ7cDlw5RLUISZpCRrskFXl0MepAqM05MGIcPcwDiI8eNmIPuCdCfTZxBVKE7NX50YekjmzMh+ozNatKBteeBYEwiCwH25fYWBHnyAQWQLq30mjENaRVQ6CB0YAxkFgqOXqiGOf3/3NTEUoDxYn5VIO0oBATAjc9PGUmGiSbDWwe5Ps8Q9SeyTXC5J2fPuCcRDfsbWlGbst/DAjjLCktsRDJRBINIHfF2zMWn+ctckaYfYNwK8oe4ZowRaBVVv35tdDMAJbyFBJhwCMAx0oSbr01ZRV9N8Jue5FKb35YHL/N8eJMInzlUuI8hPvN+Keb2aIDLxH4q0ktFMIPC4ScS3a4D6kMTCCAAhEh8CabXtp+96CMwjRkRyShk0AxkHYIxBy/+OWbE6TYJ+IaDRk1jqaIJKFvTxikRL54BXxX5T4Evh04kpiIxEl/gTeHr2U+r4wOv6KQkMQAAF6+Ic51O7hX0ACBBwTgHHgGFm8HtDuCvR8dpQIaVqwinzH53/SG6MWx0tpaJNBYMlGf5PDjRdG6Jt4jzK4h3GB3Yx+mb0urWv+HuCFARR/CODMgT9c0ao9Atv3HIQHgD1UqJVHAMZBwl+FYSJxirqsFtuQ6jJGZBVGiT8BXlHmMl9k0R5lw899q9hRsuOKNEtEwpq8bAtd8tZ4enLwPGWHgieiM1flRsiKP1k5Nbxx0BRSf9ZvFgefm98/hG78aDJt2LlPTqEjLNXRCMsO0aNPoN0jv9DxA+2FKo++ttDACwJFvWgEbUSXgG4iNdUv2WGxyrj7AFYUozvCziQ/7YXflQeG3t6DmtXI0X2YJ5UniB+aRlXL0Ih/nqxbhy/yWQZ2WVKXR36YTcWKFKLbPvvT8DncCIbAYz/Oodcu60B8aHHo7PVKp7/MWU97xOf94+u7BiNEQnoZMTeXb0LUhZoSEli7Pd3o50WAGz6aQt0bV6Hq5UvSxZ3qUImiRSSUHCKFQQDGQRjUJe/zrq9nSC4hxPObwKINuwyNg+F5E50lG3crYrCBef5rf1DPFtXp332b54umNQz4xo59h2AY+D14NtsfLM4W/b5wE53UtGraE7PWYFfHJkJb1SYIl7qR87OPOmWrM1QCARsEePe22xPDlTDm01duU57YJMKb39G7qY2nUSUJBOBWlIRRho4gYIPA5l3782t9O201vTBsQf7f/GPCuTH4v1r/6c8nraQF63fR678tprlrd6S5q9joFlVCJLBaFfYwRDFi3TVcM2M9vJFTjnd+eWFAm99owtL04CRDZq2l2z+bRnvhORC5MfZCYOwceEERbYBADAh0fGxYvhbDxO4A/zulWTVqV7cCNbtvCB0Q4U7PaleLWtcql6btIVUY1NNfzI2Ec0P3hjEgEn8VVm/bk6HkNnF40axwaMTSxYsI9zDrtaW12/fSNe9PoiuOq0+Xda1v1mws77Ex/dbvS2KpG5SKHoF3Ri+hx36aqyv4+CVbiPMeFc5Lq3zzx1OVesdULUu39myi+wwuxpeA9bd7fHWHZiAAAhYEtuXFyGbDgMsP09coB4utSuqAs1U93A+XwKsjF+vGQedJgl5Zv2OfEhoxZQTq1VFfe0q8K/PEIfd7v51lVTU299lN4+I3xtG0FVvpV3GGQx39LTZKQpFIEjAyDFLK8I6xtmwQO8YoySMA4yB5Yw6NQcBTAvrTSE+7QGM+EtCLg37ZOxN0exw8c61ync+k2Cl8uNlu4XC6Y8QZiKiXaz+YRBNFhK7zXhtLTw/NTSQZdZ0gfzII/HfiCmX3QF0GjV9Od345PRkAoGU+ARgHeBlAAAQMCRwUOS84KZ5ZGWhjJ8HsedyTj4A6OaJ6smC0I8Q5EkYv3Eg795m7JJlpeqrIsXL5uxNodsQPRG8WYX5Txa4RZcYF90AgKAJTlm9Vkp9qy5dIkqlFEvu/ceYg9kMMBUHAPYHrRdx7s/Lab5k/JGb1cS9aBDjc6ddTV9HnNx1HTavn6B4251XF1OShbZ3y9L+/nZiVknPX7qRWtcpn1UZYD+8WkbtQQCDKBJ4XgSj4rBBKsglg5yDZ4w/tQSArAk8PgdtEVgAlf/idMUtpqzig3Of530UI2mlp0l7z/kQlhK16VXFGXnI7PrTMOw4ihUJGGTFvPT33y3zlPv8bOX8DbVJFyrKThC+jUUkuPAM3IklGAmJkQ+AzEYFOW7RZ1bX38Xe8CGDnIF7jCW1AAARAwBMC305bldbO93+uSfvbKHY/u9L0em4UtahZjiqWLpb/zLx1O6h5jXJ07Qe5u1F8f6fIe8F5VSqVKZ5fjw+9n3tsLSVvRtTK5OVboiYy5AUBWwQ4q/qygWfYqotK0SeAnYPojyE0AAEQAAHPCdzxubtDiGwYcOGcF2MXF8RO7/vCaJExe0W+nDNWbxeZmXPPs2xR+elzhes+zHRn2yrqcGjQVOGzMJyLQ30t/yb+DwiAgO8EOPfNl5NXIheC76SD7wA7B8EzR48gAAIgkEgC93wzM19vTppntwwTIUH5/MudpzWja09oSO+PXUopl7ZO9SvRiU2q2G3K13qqlB++9oPGQSAMAs8MnUcc/vj2Xk2U3b4Hvp+tiDFTGPqPnNM6DJHQp08EsHPgE1g0CwIgAAIgkD0BjqCSOhjPPv18CF591uW+72bSBpF/gSMmvTx8Ic0SExW9wucbxomdjB1ZRFTSazd1bdueA8puCQoIxJUAGwZcXhi2MN8w4L8/GrecvhIRjQ6I6Hapclh83vgfl9xkgItjEao4X8GY/59CYtCkCFPe4O6fYo4a6oEACIAACNglwP7N/PPU8J6f0x45qWlV0h5arlm+JF3erT6lDgT/9/qu1LVRZZqzZgf9PGstdW5QkUbO20gcs53Lw2e3oquOb5AhCvdXSO8UdUbNzAu3fDKFfp5pHvY38ylcAYH4EGhavaySUfmZi9pR6weH5it2QYc6StQzLji3EI3xhltRNMYJUoIACIBAoggcFD46Z708JkNnrWHAFdZu30dzVKv2AzRJ3F7XtPLg/2bT8Hkb6IEzW1LjamWVu6mQrL/e0YPqVipNJYsVyehb78KzIvLSii17YBjowcG1RBFYsH4X8b9dmpC+KcOAYWRjgCcKZsjKYucg5AFA9yAAAiAAAuEQqJZTgn6782RhGMygn/KyP7MkJzSuTJ9c381SKA7Zqpdh2vJBVACBBBMYd8+pVLN8Kdqwc5840LxKCWXMhrrbXbsEo/RNdRgHvqFFwyAAAiAAAlElcEP3hnTvGS11xR+/ZLPI1bCA/t6ziZLVGQUEQCA7Ap/e0I2OO6aysrOw58BhKl60MBUrgmOx2VF1/zSMA/fs8CQIgAAIgECMCbSuXY7+c3oLZdLyiMgW3aZ2eSpXslj+AekYqw7VQCBQAi9d2l4JJvDW70uUfnNKFqU/7j6VdolcKEs27qalm3dTn5bVqXq5kvSriF62XgQhKFq4kBKI4OLOdamQ+F+p4vZcAQNVLKKdwTiI6MBBbBAAARAAARAAARAAgXQCJYsVVg5Gf3htF/pzxTaqItwHR83fSJXKFqfPRK4Vjjnw2oCOyt/7hXGxautepYGm1XNgYOShhHGATxUIgAAIgAAIgAAIgAAIZEGAjZJ9BwvCuVYWuSA4sALnhChfujjVqViKpizbKoyV4pRTohi1qlWOGlQpQ3z2id2oypYoSp0aVMpCAu8ehXHgHUu0BAIgAAIgAAIgAAIgAAKOCbSoWY4G39bd8XN+PIBQpn5QRZsgAAIgAAIgAAIgAAIgYEKglsjRUlrsGPCuQ8MquWGVTaoHdgvGQWCo0REIgAAIgAAIgAAIgIAMBP56yjE0fO4GmrduZ744F3WsQzed1Ii+mbqaOjesRGWKF1UCEfDkfcfeQ1RC/Hf55j1UQ0zqSwhXoF/E4ejWwj2I86JwMkY+v/DHok1Ur3Jpail2AnJEAIO94lwDR2Hi/x+VAreiqIwU5AQBEAABEAiVQO0KpWj3gUNKlJRNuw6EKgs6B4G4E3hZRDC69dNpaWqee2wtOnTkKPVrU1PJTdK5fkXad+gIzRbZ0LftOaAkJOQM6FXKlqDWYlLPCdnWiSSJqWSHcWfmlX4wDrwiiXZAAARAAARiS+DpC9sSryqqEzVNW7GVznttbGx1hmIgEASBa09oKCby5ZQIQ7PWbFciC13fvRF1ESv3vOK+ZfcBqiwm+8iuHMRo5PYBt6LgWKMnEAABEAAByQjMe7QvPT9sAb05Kje+OovHhsDFneoqki7asEuJMsJuA9rSvl5F7SX8DQIgYEKADeynLmhLjf7zc36t+89skW90t6tbgS7rWj//HhvjbBhwQQZlE7Ae30L6OY+BojkQAAEQAIHsCdx5WjPHjZRxkASpfKlitGzgGcqk/x6R6GzmQ31o6ZP9lH8pw4AFYHcEPcPAsXB4AAQSROC5i9vRGcL1h8sT57XJ1/w+kXW8sHDLG3RdF+XadSc2xKRfwvcCbkUSDgpEAgEQAIGkE+BJesN7ClYXORb4hp37TbE0rV6WFqzflVHn/jNb0qMiw7G6sGHgRWlw909eNIM2QCBWBFKfr93C57+MiMbD/+VsxqldgFgpG0Nl4FYUw0GFSiAAAiAQBQLnta9N305brSuq1oVg4r296Ig4iJhyR3js3NZ033ezlGdPbV6NXrzkWFq/Yz/d8smUDAPhmuMbUOcGFWno7HX06sjFNO3+3rp94iIIgIBzArwzMG/dDhG1p7yS8IsPAqcKGwZc+L+p/++8BzwRNAEYB0ETR38gAAIgAAIKgRt7NDI0DvQQsTsCnxEQbsg0b21B+ME3r+hIxYoUVkIFfnnT8dTukV/SHufn2tapoPy787Tmek27vnZX32b09JD5rp/HgyAQdQK9WlSjAV3rRV0NyK8igDMHeB1AAARAAAQ8IcCuQE6KCESiW+7t10L3Ol9k//8SRYtQETHhTxUOLZoqHIc8VbqKaCdf3nxc/t9+/J9bTm7sR7NoEwQiQ6CqcPlDiRcB7BzEazyhDQiAAAgEQqBGuZJ08PAR2izCDKaK1hXISpAjOtbB1cIF6Aaxo8ClX5sa9PPMdXRm29yDjer2mojzBTnCVaGicGNQ98vGw4+3nijCHhK1qVPg3mAlC+6DAAiYE5gkXPuWbNxF/d8ar1R8vn87OqddbRwoNscWybswDiI5bBAaBEAABMIl0FH48N9zenMaLCbvW0XyoWY1chSBbujekN4evTRNuL+f2ph6t6xBZ70yJv86JzPiib22PCQSGKXKMxe2E4ZBLTqpaVVtNWX3YPL9vagw+xhpitrnWXvPj79fGdBeOctwvjhD8fjPc/3oAm2CQOgEeIdAvUtQsXRxJfIQSvwIwDiI35hCIxAAARAIhECdiqXzV/lTHd4rQhVu23OQvpyyKl+GPq1qKIcU/96zCb00fCHxQWTOJcDnBJ4WMc8nLduiHBZ+vv+xaXLzAUbOhGpU2ECQobABw/9+nbNeBnEgAwh4TuCYqmUy2jTwCsyohwvRIwDjIHpjBolBAARAIBACZ7erRZPFxH3N9n1Kf7xIyFlLxy/ZIhIVGR9AHCgm/NeK+OWnvzhaeY4jmHC5o1cTuqRzXapVoZTyN5eLxd/8j40Fp25J+Y1I8n9qq/SSRCSIAQKeEOBcINpSrDCOrWqZxOVvGAdxGUnoAQIgAAIeEeCIQLPXbKc2tSsoBsHKrXuVFf+/nHwMNapSRsk3oJ7ga7vlw8ItapajD67pTLtEfPNUXZ78Gz0XdcOAGbSsVU4Jqzpi3gYtEvwNAtIQaCk+m3PW7jCU5999m9NTQ+bl3+dEgL1aVs//+3ph+C8QmcOPO6ayYRu4EW0CSIIW7fGD9CDgOwE+3Mm+4cs376YBb0/wvT904D8BHtMzXy7w/1f3yJmJ/3pKY/+FiGkPP0xfQ7d+Oi2m2kGtOBC4oEMd+npqgdufVqdFj59O3Z4cTpt2HaATGldW3P2q5ZTUVsPfMSaAnYMYDy5UAwEvCLCrBBsH/N/pD/ahdg+nx5D3og+0ESyBhmL136jAMDAig+sgEA8CR+kotatbgaav3JahEEcLKyrOAk2+D4kCM+Ak6AIcxhI02FAVBLIlUL5UsWybwPMSENAJ8COBVPEQQc320XMKIi/FQztoEQcC9SqVps9v7KarijpamG4FXEwEARgHiRhmKAkC3hFIJZxin3KONIMSPQLa8J9/E25EHKLwEUxmsx7MSiK8Y6pc1Klu1u2hARDwmkDp4kWUZIKpwmcKUEBATQBuRXgfTAlw+LLFG3eb1sHNZBEYcnt3+mLyKrpJJKr6U2dbOlk0oqmtenX72Yva0fkdatM/+zSNfLQgGUaDD2nyZ6Np9RzBUwaJIAMI6BMYfFt32nvwMH0+cSUtEgeMUUAgRQA7B3gX0ghoQ/EN/+fJIJRwAmVLpq8hNK6WQ//p14Iqly2hO/l584qOxEmvrMqLl6THtLeqj/veESiimrVyFBKOFBSHaEHeEXLfEnO8R3w+LuhYhwRV9w3hSRDwmQDv/naoV1H3e9znrtG85ARgHEg+QEGL98fdp1KPvGykZUUCIpRkEHj9sg5pinKm12n391b+caIqo9KxXqWMWyc3q0oni3COVuUskTQKJRwCfOCQIxZ999cTCOdI/BsDPviJAgKyETiqeS2LFoERK9sYhS0PZn9hj4CE/T93cTt6e/QS6g9/WQlHxx+RTldloa1Quhg9p8lUa9RreVF3xkN9aJ1IktXn+d+Nquleh8uFLhbfL3ZpkGvQccZiFH8JFEWSKH8Bo3VPCHDm8jELN1H/zsaJDT3pCI1EhoDxkmBkVICgXhOoItxFOBtio6o4pOQ1W5nb++T6rtS6djkadG1XR2KWK1mMiqt2F3hVCutQjhAGWvkYHD4MjDcng/te7M6ggIBMBM4+Nn3XlnMY/HbnKUqSQxQQYAIwDhL6Hgz7x0nUrVGmS0hCcUBtQeCExlWEq0l3alMnmBVl+LiH89rd0atJOB0ntNeGIqgDCggERYANUrMy55HTqGb5UmZVcA8EYBwk9R3g0GW392pqS33OkIgSXwJ2Dg9baV+9XEH2TD6joJ7488Hj1DkWbTudG1TUXsLfPhJ4/LzWVE01Vj52habzCJhP1YAJBLwlYGEbUOni8Cb3lng8W8POQTzH1ZZW3RpVVvzFcywOHmsPL9lqHJUiQ+CO3vaMRDOFSom42RP/05Om3NeLtCtXZ4qDxz2aVNF9/NTm1XWv46I9At0NuBo9XQw+8EZofLuOHTLf0KJhHQJmEbKuP7GhzhO4BAKZBGAcZDJJ1BX2F29kse3dOe8AY1TBvHd1p6iK7rvcFcWBYq8mL7wizeFNtYVXTo36sFrl0raFv9MJfHhNF0dItL7Gjh5GZVcEjmJ1xRU3POScQNeGlUzDkl7erb7zRvFEIglIYxzUqQgfODtv4HkixKTX5ZUBHeiMtjUND87JdkgptVp63xktLFHwAVusThtjMpq0Gz9h747alYKjElUvl2k0cEvaTL32WkctJsBGfWEH1tXSJ/ulZUUFxWAIIJhpMJzRC9EpIoS0XhQ4DknN5wwbVMH5F7wn9ghIYxyUgR+crRF7XifE5CsD2tOtNpJOGXVQt1JpelUYCO3qVtCtwmnWTxSHVWUpz4pQq/Me7UvXd28ki0iRlSOIVU02QIxyZuj9kEUWZoCC92tTI9+YT33237g8PVcFi8NJDetXLk3/QvbjAEcHXYFAOAR4UeamHukRh4qKBYSKZYoTnzNEAQG7BKQ5mTLwgjZ03mtj7cqNeioC7epUIP738ohFvnHR+pH71pGNhnm1mQ0WFHkJaCf9RjsURtfl1Swcyf4hzoXsO3iYmlbPEe9+YerVojpxIjMu/+zTjO4QwQX0dhFuOeUYuqwrXAnCGTX9Xjnx3Lmv/qF/E1dBIAsC/L3LOQt4B+HPFVvpoR/m0KuaBJdZNI9HE0RAGuOgvUjhjeKOQGlxGHTPgcMZD79/TWe65v1J+dcXPn46fTdttQhh6jz60MNnt6KT/++3jD6CujBWZG4+fuAIx92t3rrX8TNJeoAnnX4UPsuiLkYRW4yu+yFTlNvkH3yzomcYcP0j8GkxwxbKvZY1y9FbV3SkGwdNCaV/dBpfAn1b1VQCQhwrvAD43wCxMFC8qDQOIvEFH0PNpDEOYsjWd5VOaVaV+onMtnwIdO/WPfn98RmBc4+tTc1q5KTJwCEmL3KZ9Zh9FZuL9uat2+m7XnodlCtVMNks5WDXYOueg3rN4Zog8LtIelNPuJz4Ufh94TMhlcsWV5rX7iSk+jS67odMSWwzCLexJHJ1orPaZXamiA7Hk7U+rWo4aQJ1QcCSwFRxrqCScB9SFxgGlthQwYAAjAMDMFG4zJFHzmtfRxFV7Z5x5XH1Y5Xk5HxxCJt91l/P2x4tYxF6NQpjF7aMnNHYL8MgpZv6TIhReD0cSPb3TTiMrQN/AdtonVdyOWQ0By3K0eyo2XgcVUDAFgGtYWDrIVQCAQMCkfQsI10AACAASURBVDEO+GDd6m3yu4jwod7pK7cZ4Pbvclp0GMp01ri0S13/Ove55ZtOyj1gdbrYJUGJJgH1DkHvltWJQ+5xwc6B9Xh+dmM360oGNWAbGIAJ+LLWzS7g7tEdCIAACDgiEBlntCp57gkp7U5qWpVkzK5aRvj/s69fEMUofLbehCvquQqC4Ik+/COgNlffvrJTfqSpTDPWPxmi0DL7o6sP/38gzg25OSOU0hVuRfKO+p2nNZNXOEgGAiCQaAKRMQ60o/TuVZ3odhGhAyWXgNogUE+4Pry2C/3tlMZ0jjiDIGO5pHP6jsaFHXPdpNSyHiXjU5VWeR9K4DCW/rAHPCs3ikpkdF1f6PhfrVWhJM19pK9rRTlsqbocMVpBcN0DHvSKwF/F9zIKCIAACMhIIJLGAU/4UmH8nEB9R6xY2i1udyV4km48lbXbu7166QaBaran+r+8w/IvsUIlUyhStXb/0SQyY5cTbTGb3zx7UTviSEZGhfVHySQQsG2QfzBZKwnOHGiJFMoquggnOmL/9lQ5fETbPv4GgWQRqCCywMe1IHlsXEc2fL0iYxz8Q8Tyzrb0EhPPM0UmYKvCP66DrutqVc3z+5ysJFWOU4Ub7VCvAnG40ttMwhnquRJ5LaDZJN2LvvhcSUOHGRw5hGMt8ZxRSRlF7MpyBVLHG2Hy/TrH5+foRS9f2j6tr7IlI3PsyXdG3IH2c+x0Z4Ujkqn926vl6GemDkQZdAICEhCYdG8vCaTwXgT+vUS+H++5osVcApExDo4/piA2v/YH1OvBzObwmDYqy4+3nmhbPPVEiXW8+/TmxKsez158LM14sA/dYRKTXr0SrJXBtgAhV/zqL8eRyj7Kl8apUcLhAjnsKpfzO+S6KfGOxANntQxZQ3m69/szpKcpRy86q12ttFvd8g4m69XHNaKKLlc9eZf0+hMb0rki0hcKCCSZABvMKCAAAs4IRGbZTs8NonXt8ra1beBTPHcrAZzIqJ4E8+TtZhGl56YejdLClFr1x/fDmPjZkcuqjpFR49RvmsMFfnvLCbRs8+58I4H7hgtLwQgYsbYaI6/vc/g9oyR+XvcVVns8weckhfsPWfv4pL7nXrzkWFolEvi1FZnP3RTeJeV/KCDghMC5Ijz2d3+ucfKI1HV5dT3OBQEH4jy64eoWGZNab3u9vEiM9ecDvemG7g0tKf5yx0mWddQVrCbYpslFnC51m0imp7de9ZLC7ShVjkQ4fqEeOjdf8KUEjxYi8ouan96uhB5LXAuOAJ8dmiY+w42rlQ2u04B7Yh1nPnSamOinL2aYRavhAAI4sBrwQCWwu2UDzxDBKgp283iXOk6lR9MqcVInQ5egzjdmdIwLsScgrXFwaZd6afD1dg64QoXSxdP87ni1Xa+kJvN2J9uWq8wGn0oro0JPttQ1tcHhdGWXXaE48s/prWtQ1Zj4GY/450k05PbuVFGT9dGModk9u2Nv1kYU7l1zQgN67uJ2VLeS8apZNu+p1wxKFC1iy8D3ut+g2mODlz/b//tbgYshGwp6ByVlGpeg+KCfcAmo3W6sAlfwjlaUSuy/8w3mIVEaI8gqJwFpjYPzO6T7ytr90dT7wXWD3sgYsdNWWJ/XgRe0pdcv7+jYDcmOTlzn4XNaKVXNDkbbbYvrWf0Q1a9cRrgFlXPSZJobkaMHY1T5wbNaKWctRt9lHMVJNnWdGsOyyW8uj/1vhHhzMKeEu/ITKCd266NUsvkdj5KekBUEvCYglXGQUyL3CITeBN9sBUD9BaB2S9EmTmN49UxWU9VwLXcODEbCTE6DR3Qv2zGGgp5IcDKmeY/2VQ5Gl/MgysxknSgS6mmUky/21DujlydBF3DCLzphm3BUUB8EQCCPQAmfD/f+9wZvowTa+R2N8uDaX3aIspaQPQwCUhkHX9x8HPURh+g+v/E4EaWjuC882I/3sq71qFSxAh99vY7C+FIpEkanesqbXEuFTvv4+q7URhwI//SGbia1zW9ZuQs5wfHLHT3otcs60NXHNzDvNMZ3+fD6r4KDuugZ2jFGIKVqeudoWNCuOpGanLzzUioLoSJHwMlCAYeO9rMcf0zmGYFsFnzcLvL5qSPaBoEoEJDKOOADpG+JEHzNRBhKPqDo5kuhicXBxtLFi9Lj57Wh41ShUfUGincABp7fRonN7qTofXUWK6J3NbNVn793MzvM4gpHUflBhGm14mjVRRkxHqlSsYz7LetqOSWpX5uarpLjWckYhfuvDGhP9/RrQU1EPgF1YUP7tFaZUWu82uGKAhuZZEyFJuXkfI2r5dDQ23vQ1Pt754vYXuQ0QQEBGQn8q0/TQNw261VKz/KtXvBRf1bsMLL3y2unJTnrIFqRnOMSB6mkMg60QB8+O9fHXXtd+3e1ciXzL/VsUY0eO7c1fffXE7TV0v5Wh8dkVxkO4aYtl4hD0RybXbeYfOtoVwo/ExM0Nnysit+rMlb9e3W/mWaCatYunzuYLnI4TH+gD/HB1KplC5I2YQJrRq7gXlnhjndm28z3l2uwof3mFfYzg9vr0YdaJp8nH3pz3eRPf9fPW/LtLccbtqne+h98Ww/6P5HV+2+nNlbq8/hwOFfe8XlI5OG45oSGhu3gBgh4SYB3Wp0UDsvNAUD8Lh3rV0zronLZgj75s+KkZJNkUR3FyUmfQdaFW1GQtJPVl9TGQRkx6ZkmVtVmPXxa2qhofe3PEhOjRlXL0K3iB5cnlJd3q0/H1q1A2km6uhF1tE8vswyyW8BR8T914S+7wbd1t3yz4rIF+vSFbS11VVfgkLTl85I9savRN2KiZTQJc9QwKhsS0DuPY1gZN/IJtKqln1ulfb30CY0amXohokb5ksqOKBvC6sI7PlcLwwAJm/CyBUWAd1q5OHVlc7Ojn41ONcuXopdEZvX3r+nsuJmbDKIXqhta+mQ/3XZvMFoY1K0d/EWn4xa8hOgxygSkT4Km55eunXzzxHLEP092NA7aXAAyrFJbRe9xpGCIlbP90upgMtHKVq1h/ziJ3h2zlD6duCLbpiL7fCdhrD4hXOZQgiHQqEqZYDpCLyDggkBTBzu93Dy7xH01ZZWLnuw9ot5ErJYXlvtsTWZ1ey2RCJxh7aoqw2+/XX209cwWQLV18TcIOCEg9c6BVhGOscyrzO9f3UV7y/HfNcUKntPy6oD0bVjt4U9u79Tm1eiijnWVpttpkh5Z9ac+c2DnC0trJFm1j/uknGVJol93CRFnn0vnBhXpq78cT04nBH6/O6e1rEGVHboM+C2Tun0+fP9fcQjfSWHXRnZXfFnzveGkDdQFAb8JXHlcA7qjV1ORVT7dNa6D5vxL6jcp28UfJ/r8dufJTqonri7mAIkb8sAUln7nQE2Cs4byCoKdiTM/Z+aPx4c39x48TBd3yp3I2yGedlBKNM6uAOwC8+uc9TRAnE+YvWYH9RbRlnjlo2WtctTSxjkDdb9xcStqVFXubLd6h7juOb05fTF5JS3euNvOqyBVHTvu+j+Kw+MfjVsubdZd3v0b/5+e1OTewVKx7SFWSXmn5e89mziWiw2KFy5p7/g5PAACQRLgBH239cp8v2tWEEkUV2zLECXI1WoOIBJWqc36S14OHTab5UguPMSTmkCkdg6YpF3DwIo6H2x6Razo8Y+/Vbmhe0M6o21Nal0781Axu8D8u29zkY22NPUV2YnZNYgPFnduUIn4zISdcpHwQeZyu1i9SRU7Ez7t2Qs7fQVRp6T4sZH5i1V93iTFg31T24kITKkSpd2FtnX1/eDVY82G7KPioD77vMtaZPS3f+qCNq4MA2Zs5zMs61hALhAIkgAvpL13dV7gBB8+OE5DXPN3pZ5Lc5BMrPriHZxThKcCF7guWtHCfacEImccOFFQb4XYyfOpuvee0ZLYpYgNk14iGhKXK46r76apjGfYlYIP8E4Qq6ZsgNgpOXkJyLo2qmSneih1vhQ5K2QtPfO+UM3k+/YW82hXZs8Gfe/5/scG3SX6AwEQSBiBptVzd4T9WKv+WQTsOLV5ZshlrxDff2ZLRweaW4md/yiUe4UHxJPi/NhnN7nPNxQFPSFj8ATsLW0HL1fgPXJIQTvl5Us70JTlW6mLTgIjO8+n6nx8XVcaOGSuyKXQVjE6qqvCsVq1w4bEzn2HHD1j1aaX91mfWhJvyXLoWw6f+u3UVfTQD3O8VD2UtjjHAwoIgAAIMAE+KzBVxx0oGzoXdKhDHDUoiOLHjjjv6J/SLHdhz44ORSOSdIi9Ey4VLs0oIOA1ARgHeUSvOaEBHTh0RInEYFZKFS9CJzbJzOJo9ozePW7jxybW4U31nmU/zDB9MbUyXdypjvDXL4he4cOusLbLrP/mg+1Fimg2zqIgeNaay91AFZHnYtOu/XILaVO6IA9u2hQJ1RJAwLPfBtUWQXObi2de4PXqc6M9YO1ENm2oYSfPoi4IxIFAvN2KHIwQfxnwocN2Ij+CDMWrL8ggdOHdjzcuL4jklJLdaXbpIGRV9+GV21nQcse5v/Pa6ydz80vn5y5uZ9p0kIcvTQXBTRBwQODzG7spuQGyKepIOOrfI9m/N9ltdMkT/URUOuPcI2ZczmtfW0Rzkzuohpn8uAcCXhCItXHgBSC0YU2AD2B3a1Q5v2Lq0DhHbpK5HLSI9OA0FK3MukI2fQJO3Pn0WzC+6lXwBOMecAcE9Al0Fd/HHNnvuhMb6ldweFWdg8dO7gCHzadVz2YDd9B1Xeg1sVDFv0l2ymmt0n+jLu1Sl/gMl6yfXT5jgAICQRCItVtRlFf9/EwE5seLVaF0ceJwmSWLRcfePHT4iDkKybdvHj2nlXBxM3eDM1dQvrtR/szKRxMSJZ2AvSmyPqX6lcvQLScfQyPmbUgL+W3leqvfWjBXuzv8PtSeb5DVKOBwyvee0ULZDXn857nBwEQviSYQc+PAj7gK/r4vnMF31IKNdHm36B0yai3iutstZ7SxF5nJbntu6lm9HTYXn9x07ckzV4jkRXErVmMSN32hDwh4TaCtw+Sb2v7ZJWnwrHV066mNlbNtd4lQ3erCq/K8I8GZ5r0o2jWY0uJcX1glG2PKT5l5N4PDpauL1rDxs3+0nTwCsTYOyoqT/DtEVJ8oFc7gy//iUIy+vP58oDfxToPsRdYfCtm5ZSNf0DsHVmMMYyWb0cSzYRC49dTMhGZO5GCXJP5nVrz6nB5TtQx9cE2XtK5uE/l+pq3cRhfm5f8xkyPJ96rmlEiy+tDdZwLR8QFxAeKtKzspE+13xH9RgidQqay+ASCLYaD9gdMaMxyZCiXeBDD5j/f4Jk07/r1Tf29pV+Vl4zH8nydnrIhzgtL//e1EujKAnVHZ+aTGS/1bxecqTmxchZ6/GPltZHuf4yRPrI0DdnNhN51ekh+MjdMLpdaFd25kLupoHCyn9u/Hzm1DjcTKFkq8CdhJihdvAtAOBJwRiMqk2kqrVEJRq3oy3edzFR9f35XqVU53M5JJRsgSfQKxNg6iPzzQwE8C2p0DbV8Nq5ShEWJlq2Z5uZKMHSe2/DmrdhyL1kALQse/Ct9qFBCQhcC1JzQk2cNAy8IqGzk6N6iYcZ4im/a8fHbKfb3oB7F7ggICYRGAcRAW+YT0e3rrGpHRVOtWJKvgn4oDgxd3qiureFnJZWWwZdW4zsNWZw50HsElEPCVQDar8kl4n5+9yDw3id3B+fLm44mTLqpLGwdBNez247QeR/2rLORqqNq1DmPRxKncqB8vAjAO4jWe0mlzced4TmKlAw2B3BFIwmzKHRk8FRIBL6OkTVy2NSQtrLsd8+9TrCvp1Dj7WO8TJQ69vQc9em5rukiCRZdUQBL1V1PQiyY62HEpYQRgHCRswINWt0uDSkF3abs/babPbFbsbHeKilIRKGwx6Np3RCrhIUwsCdiNtd/fxkR2uoj6o1dG3+VuYp5qy61Nze6Q0x/sQxyxrk5Fdz7zRSw+s3r6Wl1rViOHruhWn9TJ3viZpy5oY/VoVvePrVvB8Hkf1DTsCzdAQEsAxoGWCP72lEAZcSiZt0llLF0apofrw+pM+KMU9GTc7SQnfFKQIK4EeFLo1XdRGYOIa9qY+U5Zuo3y1U1855YvVSyrUNZ2sx871Umvfv/O9WjGQ330bmV97ZRmVenrvxxv2I564cItb8PGcQMELAjAOLAAhNvZE5A1a3KXhpXovzd0pbF3n5q9kmjBEwJh/AiaGQjVcjIPo3eol7va161R+q5Y9yZVPGGARpJN4MbujTwDcF6H2p615UVDUYywU65kMS9Uz2jjfZHfgXcqnu/vzRmKjA5wAQSyIADjIAt4eDT6BI4/pgrVqlDKVBGvVvFMO8FNhUDQrNmFwyyZUPGimV+Rg67rqhiVN/ZIn8Q9cGZLjCIIOCJwvmby3rF+ReUwqp0DqHbq+OGCwwrWrWj+nekIgovKUc9dpA7zfV77OqR280p9B8KtyMWLgUc8I5D5y+dZ02gIBFIEzNZmQQkEwiPAP8Ds+/zype1tC8GucmxUas8rNKmeQz/9XU4XOtvKoWKgBJ6+ID0kceqb0o6RbCe6ml87cZcJ/3ynhUO0elV6tqjmqqnUGbheLaq7ej7Ih+yMb5DyoK9kEZA7S1WyxiLG2vr1ExVjZAlVzc5qqJdoUpOxs9rVols/nZZ10y1rlqOLOtahauXSQyRm3TAaiCWBokXcr8/prSxrr9kxMtyALSbk5jwBkxxEQypV3L2uWhn1Dm1Pvb+3tlrG329e0ZGGzF5HZ7StmXEvyAtmy2Wp70D1WAZ9FitIFuhLTgIwDuQcF0gVAoGgJ6YhqCh9l35NZowU106mUvX6talBtco7d53gScszHsVhN5IZ1+NLwOh91NPYTt0LhKE6aPxyvcezvuZ0Zdvvz3alMsUtdaoo6lzapZ5lPb8raJfL9MZSbUBo6/stH9oHAe9MebAEAUMCBV9zzUXIOFnL307JzZR75XHOt8xl1Slqcpn5//uji/4a3nMXH0v3WZwh0Fu99EdGtAoC7ghwqExe4Zeh6E2AZZBLBhm0IVRZJrXbYgmds08yyA0Z4ksAOwfxHVto5pBAo6placFjp5PeIVSHTaG6SwJ8yPeFYQtdPu38MaMJi9F1dQ/sv8xhGZtUK+u8YzwBAjoEUqvxbleKK5bOXD2voeyAyZsMTQdD4i7VKFeSzhXJ3UoULUKli+dOyzhk652nNaOd+w65zgmROJBQ2DMCMA48Q4mG7BCQfbVVzzCAu5GdkfWmDv8w3npqY3p5xCJvGrRoRX/fwOKhvNulRAz5yff1oqJeprS11zVqxZyAWxecZy6UNyymW51iPtSKevy7+MIlmUER/pq3m50EBtBRLgJwK5JrPCANCIBAgASyNVb5YGa2bQSoLrqKFYFCImpWQSJH3u0KNI9ANpZ1rMYByoBA/AjAOIjfmEKjGBLg+Oco3hMwmt84PWzpvWRoMckE7OxWsjHw+uUdQ8N0VsgRf0JTHB2DQAIIwDhIwCDLpKLRZEwmGWWUpUeTqjKKFXmZ7JwtiLySUCC2BPjMS1jlsq7hBm5496pOdPXxDQJRn88EeFkQmtRLmmjLDwIwDvygijbTCKgnYJiMOXs5apYvSY+e04puOqkRXXNCAyUzb9zLyc2CM4QaVCkTd5zQL0oE8lZP7Pjnh73QwgdmSxYLbwrRUyQyO7d97UBG94dbT1QSJZYW54xQQCAJBHAgOQmjHLKO6h+6DvXgHuNkOMbd0zO/+oNntXLyaGTrdqxfidrXq0DTVmzzTYf3r+lMrWqVo3Il9VdeYcT6hh4NB0xAa0S80P/YgCXI7c5tBKZQhNV0yiGWOVHivd/OlEEcyAACvhMIz+z3XTV0ICOBu/o2k1EsyCQZgda1yvsqERsF1XK8dRXwVWA0nggC2om8mdJuDdigVtvNZPfqntfuPlZyIfiAFSHcjwsBGAcBjuS9/Voovf27b/MAew2/K/WPWCqGc/hS2Zfgtp5N7VdGTU8IuJ34mHV+3YkNzW7jHghIQwA+6faGooZwu/xA7AJ+/Zfj7T2QZS2MS5YA8XhkCMCtKMChukEkeDqvQ22qUrZEgL2G35X60JyTlbHwJc+VYEDXenRC48p03mtjacvuA67F4hwKBw4dcf18kh70+j357V8nU/3KpendMUttYVRnJ7X1ACqBgAcE/DCKPRDLkybsnKNw09HJzaq5eQzPgAAImBDAzoEJHD9uJc0wYIas80viMNfbV3YiPsQWxVK/chmRzj47ya/sFm50j+ykD/Zpr7fv+eCxkzazHOpgYaG32BG4uHNdQ51qV+CMx0T92tRMq+PX5NtQkATeOL9DHU+0jvL5C08AoBHpCcA4kH6I4iHg2eIwV++W1eOhjEst4rwq6BKJ4WNertyXKmYvwoja3Q9jZTg0uBEAAT4Pc2pz/RXxX//Rg365o4dIgFYlAEnMu3CSDyQOn6m7T0+WS7D56ONunAnAOIjz6EI3EIgoAa8mEhz16Pu/nZBBoV6l0hnXujcpmGw52WXIaAgXQMAlAfVku1gR/f0rPrfVtHqOyx7CeywOOxslbS40WFHWH1mrp3AfBIIjgDMHwbFGTyAAAjYJZOvClepm4Plt0yZSo+86hXbtP0QcmhAFBJJAwCtDOwmsoCMIgEAuARgHeBNAAASkI+ClW5Faubo6Owap+2VK4OtQuhcBAklNgI3sFVv2SC2jjMLhzIGMowKZ1ATgVoT3AQRAQDoCF3UyPpDpRFgnq6YNxaHlf/RuSo+d29pJF6gLAlIT4HCffpV3rupEXRpUspW5/ShhSuzXOKBdEPCaAIwDr4miPRAAgawJNK5WlqY/0If6e2Qk2BXo7z2b0OWIKmUXF+p5TODWno0dt8jBHrjcJEJl65VbT22id9mTa3z24Yubj5PicLQnCqEREAABhQCMA7wIIAACUhIoX7oYXd8dicukHBwI5RmB1MHjk5pWdTXJfuaitvSVmKDfeZp+9vmywl2uS8NKnsmLhkAABOJPAMZB/McYGnpEoFiRYD8uZ+WtCHokfiSbaSJWJvskPARuJAcOQtsmMPT2HsQ7Vi9d0t72M+qKJYoWoU7CtaeoyfcTouO4QouHQCCxBIKd7SQWMxSPA4E3Lu9INX3031Uz4qg6L/Y/Ng7YstbhkXNwBiBriGhAWgKNqpZVzrrwThkKCIAACMhAAMaBDKMAGSJBoF3dCjTunp5UvpT/P+IcVSeq2aS9Hkw+UNmrRbIT6HnNFO0li4AUkbgSfB75X32aJuuFg7aRJ4DYfZEfQigQFQJIrOV+pJxEHVL3UqtCKfed4kkQCJGAk+zDVmI+fHYrWr11L12HMzxWqHAfBEBAEIBxgNcABBwSKCWyZG7fe9DhU6geNIFPru9KfBgTBQSSToB3Iofe0SPpGKTRPw7ZoqWBCUF8IQC3Il+wotE4E3j7yk7UoHJp4tU4J6WIV2l/nXSa4LrVyyELcoKHH6qDgLQEkPNB2qGBYHkEYBzgVQABhwTa1ClPv915Cl3YsY6jJ2/s3kgxKlBAAARAAARAAARAQFYCMA5kHRnIJT0BPuTH8cU50oidUrFMccWoOL9DbTvVUceAwMR7exrcSb9cuwIMMVugUAkEQCBQAnArChQ3OnNBAMaBC2h4BARSBDi+ePt6FVwDmflQHzquUWXXzyfxwWo5JW2pXap4EVv1UAkEQCB7AlbnexIcrCh7uGgBBAImAOMgYODoDgTUBHJKFiO3kXhAEgRAIL4Eova98OG1XeI7GFlqpt0pgKGUJVA87jsBGAe+I0YHIKAhgF8GvBIgAAIWBLQTSovqod+OmjETKjD8BoSKH51bE4BxYM0INUDAVwLlxO6BunRvUsXX/tA4CIAACARN4AYRkCGpRW0LFC9SmN6+qlNSUUDviBBAEPCIDBTElJdAnYrWB19v69mkQIFC6bo8eHZL2rRrP115fANqWTOH6lcuI6+yIUmmQRaSFOgWBIIjoLcS/0+bwQ+Ck9JeT10aVqKqOckNLazeBZr7aF9CWGt77w1qhUcAxkF47NFzTAg0rFKG3rqiI1UuW4J4VWj8ks30+M9z07S7w+RHvWb5UvTVX46PCQ1/1MAuvD9c0Wq0CNyqXmSQTHQzN6i4pni574wW9NhP6d/1VsMCw8CKEO7LQABuRTKMAmSIPIE+rWpQx/oViXMg1K1UKvL6QAEQAIFwCRwxm22HKxp6zyNwfYJdpfASxJsAjIN4jy+0A4FYEIBbUSyGEUo4IHBik6oOaqOqzAR6t6yuiNdOLB6hgEAUCMA4iMIoQcaIEcBU1usBg1uR10TRnuwEBnSpJ7uItuVL+iZIlZziNOeR0+jbW06wzQwVQSBMAjAOwqSPvmNPoH7l0nS1OGiMAgIgAAJOCLBveru67hMsOukLdf0nULp4USoc18MX/uNDDwETwIHkgIGju2QR+O1fJ4skZ+k7Ce3rVaRvpq5OFogstcVeTJYA8TgIhEhAL/JSiOIE3zW2PoNnjh6zIgDjICt8eBgEzAloDQOufWnnulRE/FpyeD8UdwTa16tA01Zsc/cwngIBEPCcQAOxS4oCAiAQDwJwK4rHOEILiQhYrZIVFeFOB3StR42rlZVIarlFgSEl9/hAOhDgUM5Db+8hcrWUAwwQAIGIE8DOQcQHEOKDQBIIXCXObeSULErdGlVW1D14+Iip2rXKlzS9j5sgAALeE2hWI4dqVyxFc9bu8L5xtAgCIBAYARgHgaFGR0khULwoNuS8HutiYrelf+eC6C2zVptPPh4+p7XXIqA9EAABEAABEEgEARgHiRhmKBkkge6Nq1D3JlWoBbbXg8Se1pewJVBAAARCIJD0sKUhIEeXIOA5ARgHniNFg0knwGcKBl3XNekYoD8IgAAIxJ7AKwPa0xeTV9HvCzYa6sq/CSggECUCeGOjNFqQFQRAwBYBdkNCAYGoE4hmCN94x+0sWyJ3TbVYkdzRObNtLfro2i66toPfaQAABW1JREFUr1rnBhXplpOPoUpliuvex0UQkJUAdg5kHRnIBQIg4IpArxbV6fhjqrh6Fg+BAAhkRyDubkWf39SNnvx5Hv27b3NLUHf0borvIktKqCAjARgHMo4KZAIBEHBN4J2rOrl+Fg+CAAhkRyDe+wZErWqVp4+vh9todm8JnpadAPbeZR8hyAcCIAACIAACIAACIAACARGAcRAQaHQDAiAAAiAAAk4IFI7moQMnKqIuCICAhARgHEg4KBAJBEAABEAABIoWjt5P9NG4HzrAawkCCSAQvW+eBAwKVAQBEAABEACBIhHcOugpAgJwKScymndtWEn5/5d1rZ/IwSxfqlgi9YbS0SeAA8nRH0NoAAKJI1C9XAlav2N/4vSGwskiUDQvXGaUtL60Sz2qXq4ktatbniqUKk4rtuymxtVyoqSCJ7J2qFdBObyMAgJRJICdgyiOGmQGgYQTqFgaccMT/gokQv1rT2gYOT15t6N3y+pULackFS9aOJGGAQ/arT2bRG7sIDAIpAjAOMC7AAIgEDkCcGuO3JBBYBcETmlezcVTeAQEQAAEsiMA4yA7fngaBEBAEgKchfSdK5HjQJLhgBgeEahTsZRHLaEZEAABELBHAGcO7HFCLRAAAYkInNqiGs1fvzNNoqn395ZIQogCAiAAAiAAAtEkgJ2DaI4bpAaBRBO4vVcTeubCtlSmeJFEc4DyIAACIAACIOA1ARgHXhNFeyAAAr4TKFG0CF3Uqa4SFQUFBEAABEAABEDAOwIwDrxjiZZAAARAAARAAARAAARAINIEYBxEevggPAiAAAiAAAiAAAiAAAh4RwDGgXcs0RIIgAAIgAAIgAAIgAAIRJoAjINIDx+EBwEQAAEQAAEQAAEQAAHvCMA48I4lWgIBEAABEAABEAABEUkNkeLxGkSXAIyD6I4dJAcBEAABEAABEJCMQKFCRJ0bVJRMKogDAvYJwDiwzwo1QQAEQAAEQCBQAkePBtodOvOAwGPntqZCbCGggEBECcA4iOjAQWwQAAEQAAEQAAH5CMCgk29MIJEzAjAOnPFCbRAAARAAARAAARAAARCILQEYB7EdWigGAiAAAiAAAiAAAiAAAs4IwDhwxgu1QQAEQAAEQAAEQAAEQCC2BGAcxHZooRgIgAAIgEDUCbwyoD2VK1mUBp7fJuqqJEZ+nCFPzFDHVlEE4o3t0EIxEAABEACBqBNoX68i/flAHypcGNFvoj6WkB8EokIAOwdRGSnICQIgAAIgkEgCMAwiNuwIVxSxAYO4WgIwDrRE8DcIgAAIgAAIgAAIgAAIJJQAjIOEDjzUBoE4EChdokgc1IAOIAACMSKAMwcxGsyEqgLjIKEDD7VBIA4EXuh/LDWrnkOvDugQB3WgAwiAQEQJNK+Rky85vIoiOogQO59AoaOigAcIgAAIgAAIgAAIgIA7AgcPH6FbPplKs1dvp6F39KCcksXcNYSnQEACAjAOJBgEiAACIAACIAACIBB9AkeOHEVkqegPY+I1gHGQ+FcAAEAABEAABEAABEAABEAglwDOHOBNAAEQAAEQAAEQAAEQAAEQUAjAOMCLAAIgAAIgAAIgAAIgAAIgoBCAcYAXAQRAAARAAARAAARAAARAQCEA4wAvAgiAAAiAAAiAAAiAAAiAgEIAxgFeBBAAARAAARAAARAAARAAAYUAjAO8CCAAAiAAAiAAAiAAAiAAAgoBGAd4EUAABEAABEAABEAABEAABBQCMA7wIoAACIAACIAACIAACIAACCgEYBzgRQABEAABEAABEAABEAABEFAIwDjAiwACIAACIAACIAACIAACIKAQgHGAFwEEQAAEQAAEQAAEQAAEQEAh8P9EXkrpWcA5+gAAAABJRU5ErkJggg==;clipPath=inset(0% 3% 0.42% 2.67%);" parent="1" vertex="1">
          <mxGeometry x="270" y="430" width="95.53" height="40" as="geometry" />
        </mxCell>
        <mxCell id="woaUJ1NgNmfOBe0f4mOw-3" value="" style="shape=image;verticalLabelPosition=bottom;labelBackgroundColor=default;verticalAlign=top;aspect=fixed;imageAspect=0;image=data:image/svg+xml,PHN2ZyB4bWxuczp4bGluaz0iaHR0cDovL3d3dy53My5vcmcvMTk5OS94bGluayIgeG1sbnM9Imh0dHA6Ly93d3cudzMub3JnLzIwMDAvc3ZnIiB4bWw6c3BhY2U9InByZXNlcnZlIiB2aWV3Qm94PSIwIDAgNDcwIDQ3MCIgaWQ9IkxheWVyXzEiIHZlcnNpb249IjEuMSIgd2lkdGg9IjgwMHB4IiBoZWlnaHQ9IjgwMHB4IiBmaWxsPSIjMDAwMDAwIj4mI3hhOzxnPiYjeGE7CTxwYXRoIGQ9Ik0yMzUsMzAyLjI5NmM0Ny4xNzcsMCw4NS40MjMtMzguMjQ1LDg1LjQyMy04NS40MjNWODUuNDIzQzMyMC40MjMsMzguMjQ1LDI4Mi4xNzcsMCwyMzUsMHMtODUuNDIzLDM4LjI0NS04NS40MjMsODUuNDIzJiMxMDsmIzk7JiM5O3YxMzEuNDUxQzE0OS41NzcsMjY0LjA1MSwxODcuODIzLDMwMi4yOTYsMjM1LDMwMi4yOTZ6Ii8+JiN4YTsJPHBhdGggZD0iTTM1MC40MjMsMTM2LjE0OHYzMGgxNXY1MC43MjZjMCw3MS45MTUtNTguNTA4LDEzMC40MjMtMTMwLjQyMywxMzAuNDIzcy0xMzAuNDIzLTU4LjUwNy0xMzAuNDIzLTEzMC40MjN2LTUwLjcyNmgxNXYtMzAmIzEwOyYjOTsmIzk7aC00NXY4MC43MjZDNzQuNTc3LDMwMC4yNzMsMTM4LjU1MSwzNjksMjIwLDM3Ni41ODlWNDQwaC05MC40NDR2MzBoMjEwLjg4OXYtMzBIMjUwdi02My40MTEmIzEwOyYjOTsmIzk7YzgxLjQ0OS03LjU4OSwxNDUuNDIzLTc2LjMxNywxNDUuNDIzLTE1OS43MTZ2LTgwLjcyNkgzNTAuNDIzeiIvPiYjeGE7PC9nPiYjeGE7PC9zdmc+;" parent="1" vertex="1">
          <mxGeometry x="250" y="438.75" width="20" height="20" as="geometry" />
        </mxCell>
        <mxCell id="woaUJ1NgNmfOBe0f4mOw-4" value="" style="shape=image;verticalLabelPosition=bottom;labelBackgroundColor=default;verticalAlign=top;aspect=fixed;imageAspect=0;image=data:image/svg+xml,PHN2ZyB4bWxuczp4bGluaz0iaHR0cDovL3d3dy53My5vcmcvMTk5OS94bGluayIgeG1sbnM9Imh0dHA6Ly93d3cudzMub3JnLzIwMDAvc3ZnIiB4bWw6c3BhY2U9InByZXNlcnZlIiB2aWV3Qm94PSIwIDAgNDcwIDQ3MCIgaWQ9IkxheWVyXzEiIHZlcnNpb249IjEuMSIgd2lkdGg9IjgwMHB4IiBoZWlnaHQ9IjgwMHB4IiBmaWxsPSIjMDAwMDAwIj4mI3hhOzxnPiYjeGE7CTxwYXRoIGQ9Ik0yMzUsMzAyLjI5NmM0Ny4xNzcsMCw4NS40MjMtMzguMjQ1LDg1LjQyMy04NS40MjNWODUuNDIzQzMyMC40MjMsMzguMjQ1LDI4Mi4xNzcsMCwyMzUsMHMtODUuNDIzLDM4LjI0NS04NS40MjMsODUuNDIzJiMxMDsmIzk7JiM5O3YxMzEuNDUxQzE0OS41NzcsMjY0LjA1MSwxODcuODIzLDMwMi4yOTYsMjM1LDMwMi4yOTZ6Ii8+JiN4YTsJPHBhdGggZD0iTTM1MC40MjMsMTM2LjE0OHYzMGgxNXY1MC43MjZjMCw3MS45MTUtNTguNTA4LDEzMC40MjMtMTMwLjQyMywxMzAuNDIzcy0xMzAuNDIzLTU4LjUwNy0xMzAuNDIzLTEzMC40MjN2LTUwLjcyNmgxNXYtMzAmIzEwOyYjOTsmIzk7aC00NXY4MC43MjZDNzQuNTc3LDMwMC4yNzMsMTM4LjU1MSwzNjksMjIwLDM3Ni41ODlWNDQwaC05MC40NDR2MzBoMjEwLjg4OXYtMzBIMjUwdi02My40MTEmIzEwOyYjOTsmIzk7YzgxLjQ0OS03LjU4OSwxNDUuNDIzLTc2LjMxNywxNDUuNDIzLTE1OS43MTZ2LTgwLjcyNkgzNTAuNDIzeiIvPiYjeGE7PC9nPiYjeGE7PC9zdmc+;" parent="1" vertex="1">
          <mxGeometry x="250.06999999999994" y="480" width="20" height="20" as="geometry" />
        </mxCell>
        <mxCell id="woaUJ1NgNmfOBe0f4mOw-6" value="" style="shape=flexArrow;endArrow=classic;html=1;rounded=0;fillColor=#e1d5e7;strokeColor=#9673a6;" parent="1" edge="1">
          <mxGeometry width="50" height="50" relative="1" as="geometry">
            <mxPoint x="376" y="472" as="sourcePoint" />
            <mxPoint x="436" y="472" as="targetPoint" />
          </mxGeometry>
        </mxCell>
        <mxCell id="woaUJ1NgNmfOBe0f4mOw-8" value="SSL" style="text;html=1;align=center;verticalAlign=middle;whiteSpace=wrap;rounded=0;fontSize=18;" parent="1" vertex="1">
          <mxGeometry x="376" y="484" width="60" height="30" as="geometry" />
        </mxCell>
        <mxCell id="woaUJ1NgNmfOBe0f4mOw-9" value="(&lt;font style=&quot;color: rgb(184, 84, 80);&quot;&gt;d&lt;sub&gt;1&lt;/sub&gt;&lt;/font&gt;, &lt;font style=&quot;color: rgb(215, 155, 0);&quot;&gt;θ&lt;sub&gt;1&lt;/sub&gt;&lt;/font&gt;)" style="text;html=1;align=left;verticalAlign=middle;whiteSpace=wrap;rounded=0;fontSize=18;" parent="1" vertex="1">
          <mxGeometry x="446" y="456" width="158" height="30" as="geometry" />
        </mxCell>
        <mxCell id="woaUJ1NgNmfOBe0f4mOw-12" value="" style="shape=image;verticalLabelPosition=bottom;labelBackgroundColor=default;verticalAlign=top;aspect=fixed;imageAspect=0;image=data:image/png,iVBORw0KGgoAAAANSUhEUgAAAwcAAAE0CAYAAAB5KU9lAAAABHNCSVQICAgIfAhkiAAAIABJREFUeF7tnQWcFMfyxysc7u7u7g4JmgBxN+Lu+uIKIW4v+ceVuOeREEgIEBLcJXhwgrv7Hf+uvdu72dmZHdmRnplfvw+fl51pqf723ExXd3XVCcdFIiQQAAEQAAEQAAEQAAEQAIHIE8gXeQIAAAIgAAIgAAIgAAIgAAIgECMA5QAPAgiAAAiAAAiAAAiAAAiAQIwAlAM8CCAAAiAAAiAAAiAAAiAAAjECUA7wIIAACIAACIAACIAACIAACMQIQDnAgwACIAACIAACIAACIAACIBAjAOUADwIIgAAIgAAIgAAIgAAIgECMAJQDPAggAAIgAAIgAAIgAAIgAAIxAlAO8CCAAAiAAAiAAAiAAAiAAAjECEA5wIMAAiAAAiAAAiAAAiAAAiAQIwDlAA8CCIAACIAACIAACIAACIBAjACUAzwIIAACIAACIAACIAACIAACMQJQDvAggAAIgAAIgAAIgIAJAsePHyf+hwQCYSYA5SDMo4u+gQAIgAAIgAAIOEIgK+s4nfnGJLrsw2lQEBwhikpkJZBfVsEgFwiAAAiAAAiAAAjIQmDltv00f/3umDiZQlHIn3GCLKJBDhBwlAB2DhzFicpAAARAAARAAATCSOAEhS4Aw6IwjjD6FCcA5QDPAgiAAAiAAAiAAAgYEMin0A6ycO7AgBZuB5kAlIMgjx5kBwEQAAEQAAEQAAEQAAEHCUA5cBAmqgIBEAABEAABEAg/gRMI5w3CP8rR7SGUg+iOPXoOAiAAAiAAAiBgg4BwaGqjFIqAQDAIQDkIxjhBShAAARAAARAAARAAARBwnQCUA9cRowEQAAEQAAEQAAEQAAEQCAYBKAfBGCdICQIgAAIgAAIgIAkBOCuSZCAghisEoBy4ghWVggAIgAAIgAAIhIkAjiCHaTTRl1QEoBykooN7IAACIAACIAACICAI4AgyHoOoEIByEJWRRj9BAARAAARAAARAAARAwIAAlAMDQLgNAiAAAiAAAiAAAjArwjMQFQJQDqIy0ugnCIAACIAACICAbQIwK7KNDgUDRgDKQcAGDOKCAAiAAAiAAAj4SwDeivzlj9bdJQDlwF2+qB0EQAAEQAAEQCAEBGBWFIJBRBdMEYByYAoTMoEACIAACIAACESZAMyKojz60eo7lINojTd6CwIgAAIgAAIgAAIgAAK6BKAc6KLBDRAAARAAARAAARBIJjB15Xbatu9w8g1cAYEQEIByEIJBRBdAAARAAATCSSAz6zgdx+lXKQZXeebg6qEzqP2QMUly8VjtOnAk6TougECQCEA5CNJoQVYQAAEQAIHIEDh8LJO6P/8HXfr+tMj0WeaOmjlzMGj4Imo9eDSNWrhJ5q5ANhBISQDKQUo8uAkCIAACIAAC/hCYtWYnbdx9iKYIExakYBAYOnl1TNDnf10SDIEhJQhoEIByoAEFl0AABEAABEDAbwInEJxn+j0GyvYxGjKNBmRxkwCUAzfpom4QAAEQAAEQsEngBMxGbZJzp5gZs6J4y4ePZdGO/Th74M5IoFa3CUA5cJsw6gcBEAABEAABGwSgG9iAJkmR9bsOUtunRtOWvYckkQhigIB5AlAOzLNCThAAARAAARDwjMAJ2DrwjLWZhuwoa9NW7jBTNfKAgFQEoBxINRwQBgRAAARAAASyCUA3kOtJsGJWpJb8aGaW+hJ+g4C0BKAcSDs0EAwEQAAEQAAEgk1g76Gj9O5fK+jfHQeC3REh/dcz1trqwyuj/6EGj/xK89fttlUehUDAawJQDrwmjvZAAAQ8IfD51DXU79XxwhXkQU/aQyMg4DQBO2YsTsuQbn3s9/9Z4dbztNcnpFuVr+UPHskUSs5KWzK8PnZZrNzTIxfZKo9CIOA1ASgHXhNHeyAAAo4RyBLRY+/5Zi59NHFVUp2PDltASzfvhb/xJDK4EBQCYTArmrIiO0bDnkPHgoJdU86jWfbMgtIxRdIUBBdBwAMCUA48gIwmQAAE3CHwx5It9OOc9TT4l7wVuXU7D9DP8zbkNsguBZFAIIgEcCA5iKMGmUEg+ATyB78L6AEIgEBUCew7nLwa2f35cVHFgX6HjIDSrOj48eMEZSFkA4zugICkBLBzIOnAQCwQAIHUBBZv3ENb9x7OzcQBh/aIw4/qFAbTDHWf8Dt6BIRuIH1atW0/3fvtPFq+ZZ/0skJAEAABfQLYOdBngzsgAAKSElixdR8NeC3xgOOTPy+kWuWKJkl8AoXhWGdSt3AhAgSUOwUB0A3osg+mEQf/+nPpFpr12MkRGCF0EQTCSQA7B+EcV/QKBEJNYM7aXUn9W7ltH+0N+KHHpE7hQqQJqM2KZIfBigGn7WIXL4ppnDgDZZTYicKM1TvowJFkk0ijsrgPAl4RgHLgFWm0AwKCAK9uv/z7UrCwQWDB+t106xez6bcFG+mhH//WrEHThAgbB5qscFF+As/+ujhXyCDsHMhP1F0Jrx46w7CBjyevpgvemUJXfDjdMC8ygIBfBGBW5Bd5tBs5AhwEaKj4MHC6q29DysiHWauVh+CMNyYS212PmL9Rs9iC9XuoZOECSfdAOQkJLgSAwJY9h2jqyh25kgbhzEEAsPou4tfTswOpzVyz03dZIAAI6BHAzoEeGVwHAYcJHMmES810kJqZHE3O8amubAceXtKhjrJeEeDD9ZnC5CSe1O+LnQeiaarjFX+jdrDIYEQI98NEAMpBmEYTfQEBEAABEAgcgbn/7qIOT4+hyz+clit7PpWNXKdnxgaqX/HI5JqmfoHqSbawTpl1hYVHAIcQIlsgAOXAAixkBQGnCExdmR011Kn6UI8+Aaz46bPBHTkIfD51TUwQ5c5X0CeR93+vfS5IDuLeScHxKZBAIGgEoBwEbcQgbygIDBQu/7TSfo2gXlr5cM08gaBPssz3FDnDRCDoLng37T4UpuGAQ+RQjSY6Y0QAyoERIdwHAZcI3Prl7ISa3/pzOTV7YhT98vcGl1pEtSAAAiDgDQGslydzDrrCl9wjXAkrASgHYR1Z9Et6AiP+TvS688Jv2S5OH8B2vKNjB7MiR3GiMhcIaD2jYdjxOiqcMKzbmR37wAVsgatyijAn/WczokcHbuAiKDCUgwgOOrrsLgEnbEzXbN9PQ35ZRGHbmneXvHbt8FakzQVX5SagpTDILXGidMu37KM7v54TJJEhKwiAQA4BxDnAowACDhJ45H/zadqqHTT8tu5UpGCG7Zo5SM4W4dqQI2n+JOqKclq5dR99PGm1bQRBn2TZ7jgKBoaA5i5BCB7ckfM3BWYMICgIgEAeASgHeBpAwEECX0xbG6ttpAjUdV676gk1W/nWs2LAad663Q5KF8yqWFHavj8NH+9WwAcTEaQGARDwmQAv5CCBQFgIwKwoLCOJfrhK4MixLLpm6Az6YMJKU+1oHcbTumaqsohnSksxiDg7dD+4BNRxDoLbk3BLHv8mPPHTwnB3FL2LFAEoB5EabnTWLoFhc9fTH0u20JARi+1WgXI+EYCHEJ/Ao1lbBI7lRFLHhpctfJ4XwjfBc+Ro0AMCUA48gIwmgk/gAOIPBHYQNe25A9sbCB52AleLHUpOOEgf9pFG/0BAXgJQDuQdG0gWMgJYCbQ+oPFVVOslUQIEgkNAubs1Ydm24AgOSXMJLNq4BzRAIDQEoByEZijRkSATGDppVZDFd032hRvS/+BCKXNteFCxiwTw3LoIF1WDAAikJADlICUe3ASBZAKDhts7eJbqQPKTwxclN4QrjhDYITwdjV60mTKzUo2AI02hEhCwRWDTnkOmyjkRQ8VUQ8iURABvjyQkuBBiAlAOQjy46Jo7BNLxuW9Gov1HMhOyLd+yl6I6KXDivMBYcZD8+k9n0hfT1pjBjzwg4CmBFSKOx1//bE1qU2syelzrYlJJXHCDwPSV+q5K2ZsdEgiEiQCUgzCNJvriGgEnvsl2zQT6vjKe3hy33LW+RaVi3j2YKXyRP/frEjp0NFEBiwoD9FM+AmMXbzYtVBa0A9OsnM54nVhg0EtPiWj2SCAQJgJQDsI0muhLaAm8Mvqf0PYtVcecdEPK3l/OFwHV3vlrBb37l7l4Falkwz0QcIIArN2coOhvHZ9Nxa6kvyOA1p0mAOXAaaKoDwR0CDix+6BTNS6bIKDcuVm5bZ+JEsgCAu4TsLIbgHeI++OBFkAABIigHOApAAEfCZg9SxDVSYETZw7iw6u069azzmD77z+WmDfz8PHRQdMhIaD3LJp9N4QEA7oBAiAgEQEoBxINBkQJJwH21T9t5XZy49DaROET/c6v59BO4ZEHKX0CfV7+i64ZOjN2NgEJBLwgYEUJ0FMkvJAzVRvb9x2mi9+bkipL7N6sNTvpaE4EaMPMyAACIOAbgfy+tYyGQSBkBNbtPJDbo72HjtKm3YeocqnC9OKopfTu+JXUqFKJpB7zxz6d1fHLPpwWq7NARj566YJWSfXjgjYBI+YL1u+m9rXLahfGVRBwkEAYzhw89ON8mprCm08c13lvT6YL2lWnFyP0rpJVoXPwEUZVISSAnYMQDiq65C0BXvn7cOIq6v78uNyGB4m4BZ2fHUtz/91F70/IPvy6dPNe1wRbv/Oga3WHsWJ8sMM4qsHsk5Vn8Tg5a2C4Ze8hynJAO7ESHfi7WeuCOVA2pXZ6zGyKgWIgYIkAlANLuJAZBJIJjFm8hfRc2Z395iRy4Nub3CiueE7g2ZGL6ekRcFnoOfiQN6h3IFlLDbCiSBhh4zM4HZ8eS7d+Odsoq+F9o504wwokzsCLP/83dpltCe/+Zp7tsigIAn4RgHLgF3m0G3gCcdvZUQs32e6L1gRAqzInJwVa9UftmtFkht2eKtMeYSbGpmHvT1iF8x1Re1hc7q+VMwdOivKucOnL6dcF9t9fcXn+3RHencs/hRL1ckRdSTv5vKGuYBGAchCs8YK0khCYtWYHNXjk11hwsnQm7m//uZx4a98oGU1mjcoH8f7yLfvoDnHY2o1kNGbqCVtmZp4adzQL0VDdGJOo1ummuaEXTOes3elFM761wWfHkEAgagRwIDlqI47+OkLgvLezPXPwYePz2la3XedLv/9D/A8pmcBlH0yjTXvk+DAnKGdmt3uSu4QrIJBEYKNPk890FxxGzt8Y8z50MKTRxnmBYKB4B01esT1pzHABBMJOAMpB2EcY/XOdwOyQr5y5DlCnAT8VA7VZkY6IuAwCaRHgw8Art+7XrENrd0vrmmZhExfTreuWL7LPKpQpWsBEa8HLsk44eYBiELxxg8TOEIBZkTMcUYsBgSWb9tCA1ybQ2MXhCzC1apv2x90ACW5LREBtRiSRaBAlxAR+mL2O9h0+ltTDcUu3JF1z80LtB0fQT3PX22pi54GjtsrJXkjvoLjsckM+EHCCAJQDJyiiDkMCN302ixZv3EPXfjLTMC8yJBNIPB6bff9QSLfzk3vv7pVBwxfG3NDuVkxy1MrCCZQ3ArAqcnc8olT77LW7NLt79cczNK876RZTbVZ059dzNduM6sV0d1aiyg39DgcBmBWFYxyl78WeQ8mrY9ILLbGAL/y2hN76M9vbCIvp5KRB4m67ItrHk1bH6v1i+hr9+rW0M/3cuAMCpgjkS/FcueU2l02ZholdghVb/NvxPHwskwrlzzDFyK9MWATwizzalYEAdg5kGIUIyKBeiY1Al13tolIxcLUhnyr3+3lJdeZg0vJttk0wfMKJZiUloF69V4o5bO6GJKmdWM3+Xpgy3fPtPF8P+782xn7cgCQoLl3w+x3kUrdQLQiYIgDlwBQmZAIBEPCSgB+HkVfpHAxV95snVmyCsWLrPvUt/AYBVwk4sZo9c/UOV2U0U/m4pVvNZPM1jxOsfe0AGgeBNAhAOUgDHoqaJ5BqJdZ8Lf7klGEFKcj8/Bm11K1u23c4KcN3s9YlXYtf0Frh3SyJm1VdoXFDegLKsywyCOuV4sDnz2RPTuzSWO3j3+t20S1fzKI12/0z+bIqM/KHkwCUg3COq3S9kmGCbQcK28ae8up4GjR8kZ3iKGOTgNuTJidcFK7edsBm71AMBLIJaCmdqdi4/R49/53s+C2pZAjCPXYuwJPsMYvse8dzm7UWxzPfmEQj52+iG4UDDyQQ8JMAlAM/6Ue0bT4QF5Q0cdk2WiYi9SJFi8CyLXvptwUbczutdW4U3qKi9Uy40Vut58qNdqJW50u/L41Nsq/71L53PC+/UrsPHqX7vpuXO0wr4R47ao+sdP2FciDdkIRfoGZPjKJvZ/4biI7KosdkCkEmi4OwRzOzNLktXL+H+JBfWCasVldUNaGkcfHzqWvpps9n05QU0VH9ljGN7qGoJASsmgumM2HllfB7vp0r3r365nNeYvnrH/fOHWzZaz+yenzxykuzIvY+l8qs0ctxQVsgwASgHOA58JzAQeGf//7v//a83aA3eOkH0+jyD6dpdmOvCKT06ph/6G2Fe1PNjAG5KMuK6sINu3WJtahWSvceboCAGQJWFcz/zbYXqIxlWbJpL/2YRnkz/bGSZ8Tfyd6YrJR3I+/cf3dRq0G/0+dT13jqHnrtDpgoujGeqNM+ASgH9tmhpAGBnfuP0JM/L6QF6/UnWAZV4LaKwNSVO8RHXv8wXxAO+pkaVFm0gxTCWl31TVEVbkWUgNWzNU+I96nddOSY9q6j3frSLTdtlf9ek9R9uOvrOcQLLY8OW0A79/sY+TnFFtF741fQO3/lxbhR9wG/QcAJAlAOnKCIOjQJPCkizw6dvJpO/7+JmveDcNGPQ2lGXPr/d4JRlsDftzppcrvDKb7VbjeN+kNMIFUQNLPd3rr3MF0mdhVH/J13RsZsWT/zrdl+IGYq6UZy4v2hZ8Lphrxm69wnFJdnRi6h535dkhDR3Wx55AMBswSgHJglhXyWCSzZuNd0meXiAOhX09cS29b7lQ4cQRRnv9ijXRCIIoF8NrQDniAq07O/LqaJYpJ965ezHUHINvdarn4dqVxVyZSV292o1nadyq+Pf18iffGPKnZ/juicP9MvjTsgYJ4AlAPzrFLm/GzKanoXW30JjJT2tDuFa7lUqe8r4+mhH+f7dlD5o4mrqOnjo2jYHPs2van6h3sgAAIgoCZgx3pu36FE5YDNN80ks+cbrhceftoPGUPTfTT7WbZ5L938+ayUJpRm+pxOHhl3jdPpD8qCgBUCUA6s0NLJy9uPj/20kJ4VW32bdtv3krDn0FH6YMJK2rj7oE5L4bo8f13yWYR54kCYH2nwL9lxDO76Zm5C8zKuHqXiEzR59fqyV/wtyJSc9lzCNsPD58l3IFMm5lGQxY53MZ7k8zeHz3LxKr/TZ1/GLtkSQz908irXh0BPORoozKR+XbCJLnjbXtwFs4pQqg76+S49Lo5DI4GAnwSgHDhAP0sxc2BPPHbTY+IQ1JARi+l8my9Eu+36Ve6MN4J7FsEvZlFo9zvh5rb3y38FoKv2PuA8qWOb4du/mhOAPkJENwlMEHFU7KR7vp0XO8v1dkh3q7eIcxSc+HCwX+kByTzqrdt5gDKdXqXwCy7alZ4AlAOJhmh8jt/n9buisXMgC3p1ULZ0fGTL0qcgy3GfRx/lZ0YuJg4+5HXaecCcGYjXcqE97wk0s+kON77rFBbXxU6Sf0rsAvOuQ7oprqCkW48T5Uct3ETdnx+HyMlOwEQdpghAOTCFCZm8IuC1YvTDrHXU/MlRCd3r+PRY+iXHBzcWarwaee/beW/8SuKJhKlkYpOAvcZs3nOIVovopj/OXkeHj2nvIjrhScWUzMgkPYG65YtZljGfwmaGDyeb9aoj43P3+h/LY6ZRTqYPxfmxoKf4d4ddU78v3lNxJXDWmp1B7xrkDwiB/LLK+bOwxy1ZOD/1bFRRVhFz5VJOIPVsKKXvhCQC2t1mtyv+vYqQ9co6Xhq1lE5vWdVutSgXEALfC+XQicRnjTo/OzahqpVb99N/+jVKqt4Je+ikSnEhMgTyqzwcmX1nymrHPllEIe/eoLwU4+f1YhCfOeGo1XpjOOC18LutlmLgIUQSASl3DjYIs5o7hD3uVR/PSBJY9gvOroHI3ts8+fgl9/rYZcQRZXkli5U7XkUNaspbzIrqiPo3ckGcPE/VcMn4R87BTv9IouUwElDuHIShf0YupCcs2+r47oIWN16V9zpS8SciDtDI+embQGn1B9dAIB0CUioH2/fBJjedQfWj7FvjltMro/+h016fSOwWlJU7I/elfshptk1ZV9nMyo98zhLQeh6Uq4x2/NU7KyFqiwqBqB1KvfzD6fSliIGjTuzu1EixUJfR+83K/XlvT9a77dr1HTh/5BpbVJweASmVg/S65H1pr7cive+hcYsLNuzJzTRuabYrPONS8ubIyiLi3RCHzWHl7bBEksm4Mqr1N35EBCSK745laGx3aFyKUYbpoUQPWwBFufzDabaklvHMAXfEzA7zyPkbY7vSj/+0gLbvO0yTRNC3k18dT3GzG35Xs2tsu7EJJtr0GmVrIBSFtN4rfBv71emSRfl0CUh75iDdju0QgWF4W//UFpWpaEF3usnRfNmNqdaqYrryB6280p1r0GTXkpdjTrQQB5WPZuI1rcXHzWsyTp6v+Gh6UpcvFb7YOY255yTKMLnMwpOXBWKSgwQCdgksVCzE6NXBh+HX7zxIdSsUz83y4cSVetl9vc4xgi7tVEv8DaX+y+ddaU58vqdssYKx/16z/UDs/6/6eDpNXbmDhpzdPPbbarITb8JqG1r57SozWnXhGgg4ScDkJ83JJo3r0ltxMy6Zl4NXV/4jDpsO+jnbG8kUcehp8PBFsdVgp9IF70ymbs/9IeoUy8w5KfXrzamW5atHbwXESNK/1+0y7W3DqC6r91MFrNsropBCMbBKNLz554vYBHrpN+E20exuBy9YPDNyiV5Vudf3Cy80l7w3lYZOCr7nFcPOIoNjBNizDaeLxbPDsULGLt4c+718y14aNlfeoHtmPS5xX5Zs2hvrkzKxYsDp86lr1LdM/f7AJw9H6ZjeOjFPMgUHmSJJQErlwOxEc5vYXtR7qcRXV3g7ktMl70+lj8SHNv7ydGK0Z6/dRewLeYlwN5ZOYneK5wt7x6BNRieLrd1UE2wzTM58YxLZ3SY3U3+qPBe+ay/6Zqo6Zb13TBwSZ7eHQUgyffTMRJ/lPPkzzC0LPPDDfFNDMFQcVJwi7KCfFAsaSCBglsDTInYHpzni28Tpmxn/Eu9w931lvNkqpM/HgUbNzhFk70w63tLCwkD2MYqqfFIqB2YGgw8jtR8yhs5+c5KZ7Ll51uw4QP8nvOpcLbYhecLkRErX8IT9Ms8UnhKCMnljZmyjyWYVaveNdnjGV33slLVaZveBo7Gx5yBCXnumsCqrnfz8weBVZ97VUirCp/x3PDV/YhTtFOZ2sieZbKNfFYfszSSzOwe8oGEmOXXQ0kxbyBNeAr8v2kxmnzk1BY7bEU+8CMcmMPP+3UU9XhxHv4ugXF4m5USY5Zq+OnungGVgBxjxZEaZ91Juu22xQrdm+367xVEOBNImIKVywCsDRoldZXIysr/Umri/LD7445ZupVELs7dcjdrSum/FVpADbd3//bzY5H9tjo2kVp3qazyR3Sts3+0ktyO/Tlm5LUEsLc525Ha7zKtjssf+duFNKazp0ylraMbqnRRfReR+ss99TrwaLVviDyHvQsmoHLNMHIjIKBnZSxuVx30QcIrAT3PXJ1TFO+Z2Er9DOPH5vVaDfid+Z177ycyYnf8Nn82yU6VjZVaJQIPxNNhsIEPHWvemohs+9ZexN71EK7IScOekbpq9vf2r2bZr2CVcg7G9uJmkPH/Ak/2bP59NZYsXpGfOaWGmeG4eo+29eKCtb2dmB1z66dZuVKV0YSpXrJDuISyWrdXg32NtrHzmVLLiKvFXYUp18xez6aYe9ejBAY0t9cVs5r+FZ4h4uu6TGTT+n625v5VnMMzW51U+/tCFPZlRrmViwCt/rMi0rF6Kfr6tO8lkVsSczL5P1Ex54YJXXAuYPa2sqMDonaJuC7+DRYCjAg8Tk/jVLqwO3/n13AQY7/5l/yAyL1B9PWOtcBmaKaLGb6RiBTN8AW32nXBEJyq5L0Kn2ejKbftS1gBHKCnx4GaaBKRUDjbvMd5617PwbT14tC0kK7buo99ytkrVysHG3Qdjk9+zWlejwgWyX47Kj7dVTz1PDl8Yswnt0bACfXJNR015le7djogJRuF85l/KXD+nd/5a4ZpyoIzoOGZxouvSuWLr2enEJmD5bUyynJYjCPXp/W2w7DJOOuN2t0qFUybOZnYJ9Uyh2Czp/v7uKOgyMYIs5gnw92SseGc+OmyB+UI+5YwvUMWbl91sR+aFKatDaHgGMSjb9VY7jvxSEJDSrCgVGZ4kcgRls4nNAthswSilsj8/VYQw54OE7GP5oFhB4aSs0bj2xNbjh8X+EgqH3sRDb7Jh1I8w3uePaUuxrf3oMHOHOcPIwKk+ybjapF4VPCziB4QlfS0OhKZKfD6E7bfj75V4XjWTVHXgXnAILBK7SV2e/SMQioFMVNNZ1IibIMvUHydksTrvcKJN1BEdAoFTDq76eAZ1Fe5DJwgbZbPp0ymrDbNeM3Rmbh6lPSNfjLsbY7Ogjk+PieVTTuqt7hwohbHrek1ZBytMc9budOyAtbJuP/6bzZRGKQ68fThhVWxb+/Opa4Xt/L4EZY/HgYOudXl2bMxuPeqJ/ZsjOUvAaLU01UQ+1S4OS3nXN3Nj9tuP/C9R8U1nMuRs71GbkwSG/y2vO1Ez/TR6ns3UYZRnteI8QTzvnH+zzz8YldW6f0fO+TL+VnDgQiQQAAFjAoFTDibmTADjq+/GXaSYraSV1OulP+lrEa79wnem0FeqsO17c9xBJmjtaajwX0xbqylaqgmHugC7Qj3nrcn0+M/Z5kRBn1iwmdKNigNvG8TOQTyx7+67xYSK0zjhM57NyK4WCuNGERgnHpR/9zKGAAAgAElEQVRKzSdKv9nc6zXhjUsv8ba7zB6L+MyQbElvd88JOUcLbzKcfpyTeIjUbN18poHjLHDUWCT5CXgxuXaTQvz753QbfC7vi2nZMQoeVinK3JYT5kK3fTmHmj3xm3A/fshp8X2pL+jfeV+goVHTBAKnHOj1bIz4yNpZOf5E+BN/adTSpGof/HF+zF3aQ+L/tZLeH+bd3yYeBtMq6/S1T4R3Gk5f5igaHHshTGnk/ES3ebxN/KfYLbh66Ayy6pUpDT0uFEg5MGCbp0ZLNZlUrswvWG/sGUi2gUhlArhdHICf6qKHqPdE0KubPp9FHC8ECQSCSmCEWMB75H8LYrvf+3NMd53uywjhqIPt+H+YZU8Rd1qedOuT0UQ03T6hvDwEpDuQrHWe4B4x4Wab3LcGttUkxysB132aZxakzpRq5e+JnNV2dRmj38o/zGmr8nwu844Gu5KrXqYota1ZWnheSX+tSE8RMZIx6Pf5UPbzv2lHk2XzMjtJxpVpO/1ItwzH1ejXrHK61The/jIR2TyIKdWfOUerXf3caYbdYn/0fD6qUsnChnnjGX5dkL0rut7COSzTlSOj4wRSPSeONxbACuMLXXZFjxLfqM4L7D4bKGeNgFTKAfv05/MEysQuPX+cna3p630A7bqnTGcVWfmHyV6BlCnuSu7UFpWFQtPO2oho5JZthYDd8HmR7v12HsXNyJxqT+llyak6g1gPPizOjRpPSNJfAqBYUEdOMx7pG/NmYyZhHM1QkidPql0meaT0T5JpYpfNib8ldQ9SLRCq8+I3CIAAkVRmRf/uSPZCpPz4Of0hZBMLN5PaHEarLTM+1J3ut5YcVq5ZOQxupV513uVbUvt5VueP/+bVV/7IqD3A6OUP+3V8GP0fYXZycOuX5uK3nC+iWy8VEeDNJGWsFjP5kQcEZCawU5w5csMV9n+++zu327Itttkdj9fG6J8t43e+V4t4duVHObkJSKUcsD9/dVJ6X5FpkmxWFr3djng/je5zPm/W6dXk9X8fPGIuyJx+DebuHLO5Q8E7ORcJU46BH0ylf3ccMNdYSHPdIw5v9xQH7JOTPE+VGyuFyf21f+UWEVAwVTIj/7XCAxfbVZtJHIHWbFqRE/nabH7kAwGZCcSjMtuVUe+7/MPs7ACkynpZsR4mHAHI7KAhFYdvZuq7SeZ31kkvjhMHuTOFp79jscUyMy7dU7WHe9EiIJVZ0RUa9sbKoGZjl2R79lAP0bLN9laY1fVY+b3roDmvKt1UZlJm21DaTuqt/PLK+C1fhDfEOttg20lDxSFzTrPF+Y8TXxhHD4ggVMUL56fLO9eyU12gy9j1ghPoTjssPB8qTjet9GASz++JDcJrFx/WP1sEbCxWSKrXe7oIQ1E+SjbxfgyYmcW2uFzs5Y+9BdYqV9QPUV1pc/663fTUiEU0PeccJAdv/UBEoOffDw5oTDf1qOdKu6g0fASk+nrsOZR6Rfr//liuOQK35/gx1rzpwsUPJqykISMWu1CzdpV6Gv8nU1YLH/9bEwqZXZ3Ubkn/6prt+4kjV3esU1bKKLtKybeqvDXFDzW3rl5av4MRu6O3wuYHhqBPmGLym9k+cBkuu/gdNjfbj/48EaX8hfNbudwiqrdCgFdx9b5hVupB3vQJfCdW3eNuxK3s1KXfsrM18IKA0unJxe9NSfD2xDGY4ooCu2WHcuAs/zDXJpVyYATa7sFjo3qt3vdCMVD+wbMHpJ6NKiR5PuID3Opk1q5ZXc7od48X/4xlGX33SdKZORnJHr/PkZaRsgnIYFTEH61hwrOXmXM3Mo/bNyIKcvNqpTwVkd0WzxCulpUprhjwNY4VgiQXgbf+THRcIZd00ZFmhnjvqBfVgtr7TcKjX5VSRXLFV7uBlWkRKKiMoyp3oJSDqA4Sn8U4442JVLd8cXr9kja5GPz4w1+0cQ8VyJDqqIrpx0KGCbFpYV3O6Mezo+7She9OUV8K5G8/7P61AkUFEl5EhOaFiddTBCeMCAYpujlPmN6EJXV59g+a/nAfqqjj/lj5zZPhnR8W7lHohzSzvP05kYfdhr5YTG6DkN5TuEdl7w0cHIqDf/E24jMjFxNvi5pJnI8DyyCJg93QDnIfg+9n/YvJCv4oQMAjAnF33B41h2ZSEJDFAiGFiJZuXfHRdFP5w+KlyVRnkSltAtIoB17N2xZuCIZyoAwGU7Ns3oGpKSu2E0dFve/7PNdsqZ4Cztdq0O+psli+F9RJ9j8m3UNaBhLAAryt/srof2jhhvCsogVwGFwTWe+ckmsNouKUBIJ+riZl53DTVwJLNmW7PdZSepTfai1X8b4KjsalJiCNcuAmJa8UD7f6kE9x2HHdTut282o7RLfklL1engwjJRLYfSD53AoYWScwY9VO64VMlrj64+k0cv7GmCLHO4ebhEcio7T7IMbViJGX9xH8zEva0WzrPo24TdgtiOaz4ESvcebACYoe1vHvTvM+0N0SCy8ct8h6X2/QFWfviWm3+OoY9xRP3uWJH6B84oymNGj4Im0hVFc5wvi9pzSkqqXzDiyaKohMIAACgSMwc43xAgV7zCpcICNwfYPA3hOIxM6B91jda3GLcCfqd5pl4iXkt4xo3xyBoJqImetd+HKZVQy45xz4yWs3z+Ejjh6BgPwElgmTWS3TNfX7vfFjv9GWvcY7j/L3GBK6TSASyoH6D8RtqE7X/8AP83Or7Fq/nNPVW67v40mrLZdBATkJ8C6QXpA9OSWGVFYI4JyNFVru5dWauLnXGmqOGoE7vp6r2WWtneGnfvEuRpOmULgYCAKRUA7Y209YUj7FV0brD1+vn+e9PVl4PNodC6H+jvCENGet8RZkvK4jx4Lj7YgjRCKZJ3D5h9Pp/HemUJZ4LpBAAARAAASCR4C9MO7SOD+mtfCzY/9h4t3/z6asxsJQ8IbaM4lx5sAz1P42xC+DgR9Mo4dECPXnfl0SE2b1c6cRH1zkA49ntqpKV3Wroynki6Oy82velOwix4NAskaAnw0+y1KrXDFrBZFbfgLQ+aQYIwkCaEvBAUL4T2DS8u00afnkmCDVhSfEXo0q+i8UJJCOQCR2DqSjnoZAym+91dVeVgQe/DHPRInFeFfsIswWEZifTHHIkaOxxtOdOtuXaXQJRSUg4Ibp3WYRvZOjICP5RwC6gX/s0TII+E3A6L2+aut+v0VE+5ISkEY5GDpplaSI5BJL6Zf+XRHvIN1kJvgcJhjpUpa/fKbRV8RGFzo9M5Y4CjIUBBvwUCRUBHDmIFTDGZjOGHkWxLc9MEPpuaDSKAcv/e6eK0DPqbrY4Lt/pa8QuCgeqg4oAbZN5Z2og0cyHe/B1JXbY3WOWbSZbvxsprCNPeJ4G6hQm4DS5pgPJ7cZ/HssZgISCIBA+Am4sOYTfmjoYYyANMoBxsN7AjxxMLNyAHtZ78fG6xb5PPLlH02jJo8LV3fCHMhO4ufpIWG2xqZqyhR/fq77dCaNWriZWg8eTd2e+8NOEyiTBgE+c7RTHFq85YvZadSConYI/LN5n51iKAMCIAACvhDAgWRfsMvRaFcxQduoE211w66DVLZYwVjAFERYlmO83JQiS0zs+aAap1/+3kjXdNc+nJ5KBj678tX07PMp38z4NzerlknFevF8IblPgP92ZwvPZG1rlqEDh4+53yBaSCLA3vK+n7Uu6TougIDbBIx2Dg4eORZbDKpYsrDboqD+gBHAzkHABsxJcfUUg6Wb9hIrDn1e/svJ5lCXxAQOHc1zVzv4l0W2XNwdEB+aeFq5Le+g2wla2oHELMIm2rlvTaZ/dxxIUPLZPfGwOeuJD40juUuAzemQQMAPAkaWAWzO3VGcDdu4G4s1foyPzG1COZB5dHySbdTCTbGWeXUXQZR8GgSPm/1jceIEZoPYUVotJviPDptPa7cf8FgaNOc0gauEu2Jl4lgnd30zl059bYLTTaE+FQFzxpvABgLOE9CKc6DVyozV5uMeaZXHtfARgHIQvjG13aM9h47GAqMoDyye8up42/WhYHAI/KI6pHosM4sufX8qfT51LV2pmljGe8XK428LNhnuMvAHKkiB9IIzauYlXaFyWfjK6GwHENv343C4eYrGOVmRHvjBVJqwbGss86GjmfTmuMQzOMa1IAcIOEOAzUXNJPW5Qn5n/yBM4ZZs2mOmOPKEkADOHIRwUO12qbswJdpzCHbJdvkFudxK1eTxmDihzLsHnFYpTISUfYwfKn7t4tZ0Vutqut3n71O//0LJ1AUkyQ2eyPJYN65cgmAKZm9Q7v52biz6LJ/f4SCTQyevtlcRSoGAAwQe+CExrpFelWrLz9HCFO7e7+bFsvNzjBQ9Atg5iN6Y6/YYioEumsjdeOKnhab7PC0n0JneIhWvXekpGKYbQUbXCDz580LiODNnvzmJBggzo5/nbXCtrbBXvGVv4hmOLXsOh73L6F8ICJxAiXsHC9bvDkGv0IV0CEA5SIceyoJASAlMXL4toWe8vTxrjXa0Y/WWtBqJ2a1tdTn89oYAr25zhPQlwhEBJ46Crp7kppKEzct+F+eUtOybOXbGe+M5Cns0bJqVkyzeiUECgSAQyKd+iSu2Euy6tg5CvyGjPgEoB/pscAcEQCCHQP//TqDz3p6iOWn8Ytpa6v78H3TFR4mHXuPw/jtmGTgGjACPt9nE5mU3fDaLRohzK78t2Eg3iHgWcUXh+9nr6JmRS4g9JsXTZ1PXiFgLs0J/DqXxY7/R8L+xC2P2OUI+/wiozYqUkpz5xiT/BEPLvhHAmQPf0KNhEAgegY27hE/sEsk+sdfthCu84I2mvsQ7xEFlPpS+eONeala1JOUTS4s84d8rYiU88r8FdE6bqtS7caWECm77ck7u7zoPjaTHTm9K6zWei8eGLYjla1NjNV0r4mlw3ZwWbthNy0SwsLPb6J9fSWhQwh/qSdbWvTArknCYIJIRAYWN6Ca4OzaiFcr7UA5COazoFAi4S0DLhMTdFlG71wRu+nwWjVm8hW7rVZ/uPaUhXfbhtNxAecPFuQSjg4pPiXgZqdLTIxfT9NU76P0r2seynfb6xNj/lypSgHo1rphQNFOYJ2Uk2T6kqt2fe3rnbvyRBq2CgDkCagcE5nwcmasbuYJJAGZFwRw3SA0CvhDgldC9wuUtrwwjhZsAKwac3hi3PGY2FI+gHe/19n2H6dqhM0xD0IqKzV5R1GnqyuxI3fHrfGC63sMjafmW7DMR8evfzFgrzJUm0TYhhzKx4spumd/+cwVNWZFYl7otp38jpoHTRFGfVwQOH8sk/sdpxdZ9Cc3y3zpStAicIF6kUiiJtR8cES3y6C0IgAAIBJjAucL850cRZdmJ9OQZTWOHouPp+fNa0EUdahIHa3vu1yW512c92peKFcpPX4pzLhzJO54mPtCLqpcpGvv5+E8L6NMpa3LvGe1w5GZM8z94AtVuyJg0a0FxEPCeQPtaZWIOCdh5xM+3dae+r/yVJITW3xFPH+8WwRRrlC0qdhcbJZXBheASgFlRcMcOkoMACICAbwQ2q9x2piOIUjHgetg/e8c65RIUA77eTxyU5vMO709YldBc9+fHUYOKxcXKZxat3eFPRG8oBuk8ASjrJ4GZIjZHPI0Snse0Eiu/JYXJX4GMPIOTeet207C52Yfu1coBeyqLnydS/rdW3bgmHwEoB/KNCSQCARAAAekJZGW5K6IyUnu8JTYhUisG8XvLtiSaQsSvt31qNE17uA/xuYXPhaekmmKVk881dKpbzt0OoHYQCCCBv/7Jju6tFp2V39JFC9BX13em6SK2zcciNspqERE8nngXIX52gT2SvfDbEnr38nY0cdk2ekuY+J3YoDxd2rEmDWhRRV01fktIAGZFEg4KRAIBEAABEHCOQKNKJahnowr07viVuZXe3LMe3SdMIeKrm+m09oQwZfpEYcqUTl0oCwJBJLB0SH8qlD8j5u6649NjY10oKHYZjgivZ8r07Y1dxK5g2SB2MVIyQzmI1HCjsyAAAiAAAkoCfHbipQta0YcTVwnXrXvo5Qtb5a6AmiE1Q3hcuuCdKWayIg8IhJbApZ1q0lVda9Mpr4431ccXzmtJF3aoYSovMnlPAMqB98zRIgiAAAiAgEQE+gjXqWOXZHtneu7cFnSxMH8wSuwJqXb5otRPTIb2HDpmlB33QQAEVATOEYp56xqlqVrpItS3aWLcFMDylwCUA3/5o3UQAAEQAAHJCHx6TUc6qWEFTanYtnqscPN6nYgEzal7/fI0cfk2zby4CAIgYI4Ae0PasOsg7T54lJpUKWmuEHK5RgDKgWtoUTEIgAAIgEBQCRQXLlMXDOoXiwzNXpA4+jHbVA8avlAcxlwd1G5BbhCQksCzYsfuoR/nx2Q7o1VVOlnsJHSrV45mrN5JDSoVjx1sPrt1Nfpy+lr6Ytoa4rMLVcWOA5I7BKAcuMMVtYIACIAACIAACIAACHhE4OsbOlP54gVjLlc5Fko3satXRnhY2rT7ML03YSU9c05zcb8QFS6Q4ZFEwW0GykFwxw6SgwAIgAAIgAAIgAAI+EygRbVStP/wMSokFA92bJAq9WtWSSgsh2LKS6WShalx5RKxcoXy55PGpArKQaoRxD0QAAEQAAEQAAEQAAEQcJlAU3HWYuSdJ7rcirnq80LdmcuPXCAAAiAAAiAAAiAAAiAAAg4RYI9NFUsWcqi29KtBhOT0GaIGEAABEAABEAABEAAByQk8fGpj4RXpEA2dvDpX0i+v60T7hEnQ0k17acPug/TV9H+JzYQGtKhMNcoUpTu/nkMiwDpxMMU2NUvHDkw3qFic9ooy2/YephKFC9BREeytbLGC4r/z0z+b98X+v2KJQiKqdEHKyCe8GQQswawoYAMGcUEABEAABNwn8MPNXem8tyfHGjpFeE559/J2VOehke43jBZAAATowvbV6duZ6wxJ8CHkX+dvFB6M1tLgs5rH4ib8u/MA/SMm+rf2qh/zMrZ5z2GqXKqwYV3IkEcAygGeBhAAARAAARBQEJj+SB+x6ldYuDDNpDlrd1G7WmWoQEa+mB/2HfuP0FlvTqJMXkpEAgEQcITAQuE2uJhwH6xM7Nr0n817iRUA/vvjv7kjwq3wHyJgYYfaZYQZTt6En+8FcYXeEXguVALlwAWoqBIEQAAEQCC4BDggU6rEsQ84HTyaSU0fH5UqK+6BAAgoCBQUk/wrutSiznXL0YM//k21yxWj969oT2WESQ6SPARw5kCesYAkIAACIAACHhKIKwFslnDzF7NNt3wC2yqIVLQgPqGmoSFjJAn8eEtXOnQkkxZs2E0DmlehGmWL5nKY2fTkSDIJQqfxZgvCKEFGEAABEAAB1wgMaFGFlj89IGbj3KluWdfaQcUgEAYCL57fku77/m9TXWkpDvbmF7sFXYVPf6TgEIAr0+CMFSQFARAAgUgQWPXsqXRHnwaO9bV2ubzVSr1KeQJzaaeaVK9Ccb0smtfZawkSCESBANv5Lx7cny5oX4N416246ozAff0a0Z//6ZmAAucAgvlkQDkI5rhBahAAARAILQE227nn5IZJ/VNORqwoDz/e0i3mfvAL4bJwwv29YvU+eUbTpPrtXHj41CZ2iqEMCEhFYMjZzWmcamKvFvC7m7pSkYIZuZe/ubEz9WxUIfd39TJFqHb5YrR0SH/qIs4UnNe2uvAWFDw3nup+R/E3lIMojjr6DAIgAAIOEOhY2zsTnKkP9aHht3fPlbqC8CEeT9d2r0PznjhFt0fsf/z/LmlD3YRpA9s886rnVd3q6Oa3cqNX44pWsiMvCEhJ4NKONamOmNiveOZU0/I1q1qKhl7dkSrneA1ihYBTofwZ9JXwMPTyha1M14WMchGAciDXeEAaEAABEAgEgdOEnf7jqtX3iQ/0Sjm5qJKGr3H2U16maIFcNhykKJ7uFrsMpYrk3Ytf592HBcJFIhIIgEBqAvlyAnXZMQP6876eNOvRvgmuRVO3hruyE4ByIPsIQT4QkJDA7b3r564WSSgeRHKIAJviFMyv/Zk4lpUVCzAUT0+d1Yyqi2ii6slFt/rZq4k/3dqNpojVf6N0bttqulk42ujQqzsQRzTNr4g6WiAjW5CaCk8obB/NQZDUdtG6leMGCESUwJh7TkroefniebtyZpAULpBB5SyWMVMv8vhHQPut7588aBkEQEByApMf7E33ntKIpj7ch767qQud36665BJDPLsE2BRniTiAqE6FhMLw5JnNqFGlEjFThPYiSNjlXWqrs8V+f3pNJ5rxSF9qJSKXcrqqa2I+vqdML1+QZ4rQr1ml2K37+zfKzdKzUcUkzycF8mV/yr68vlOs/vH39RLPZtckRSWhIRd+cHRWJBAIGoH6FUskiDzyjjzzvaD1BfI6QwCuTJ3hiFpAIBIERt99ElUtXSS3rx2EzTn/+36WcZj7SAAKWCcf6N+Yjov/vfDbUl3J2dzg3cvb0Y2fzcrNs+Sp/rkHDcfc04MUi/hJ9fBOgvJ8AB/gPSSCh30nnpmPruqQcI8LKw8wvnt5e+KAY1qHGhtXLkFsWlS1dGGKm0TwzgUrLV4njuDKfwOPntaEXhu7jD6etNprEdAeCDhGQBl52LFKUVGgCEA5CNRwQVgQ8JdAA7FSnCqxmQkHj+WV5cMizD2SvAS+F7s+7XMOFF/XvW5scssmQLeIYGALN+xJELxfs8q0aHA/Ov/tKTHvJMrJutqMyKjHbKb03Hkt6ZlzWuRO6tmryQ+z12nuQmkpBtwGux79+bZumoqDkQxO3+dor/yPU6vq2D1wmi/q857AG5e2odu+nEMtq5eiv9ft9l4AtOgrASgHvuKXu/G3B7al0Ys2049z1sstKKRznQCvMLMNt1Fi7zUfC5vwX+ZtpPt/MBckx6hO3HeeAJu/xBUDrp0n7Ozjn9PrwpTo3m/n0W3CXl+ZOBrwyDtPNCVMkyolafHGRAVDXTC+2s/Xnz6nOZ3Vuip1rGPN+5Ge4qBuy8vfvBODBAJBJ3B6y6rE/3jnbuziLdRI7NQhRYcAzhxEZ6wt95Td/71yUWvL5VAgXATY48vNPeslTCb1esiryDyJRAouAQ4CNkwcHu7bNNve305P+HkpKFb2nz+vhanifKDxpIYViP8/6Emc00YCgdAQYAWc3wXsAhgpOgTwFY/OWBv2tEbZIsQfNvZQ8u/OAzFbcqRoExgsPNBcoXPQVEmGD46OWriZbjipbrSBSdx73v15/rclMQndjkt0pniHDGhemQoIBSFqCfsGURvx4PaXTQRv6lEvuB2A5K4RgHLgGtrgVfzWpe2ohbAvRIomAVYKh8/bkNB5M4oBF3h7YDvauu8wVcoJhgPTCvmeIV7NjysHXkgXRcWAuR7LxNaBF88X2kifAAcwQwIBLQLRW9bRooBrMQJuryYCs9wE0glyz/bjccVA7l5CutjfOjC4RqBTzsFk1xpAxSCQBgE+aIwEAkYEoBwYEYrQffYygxRdAuWKF3Ss8ycopp8zReTM/sLbDZI8BGQ8yCsPnfQk4bgPj53eNL1KUBoEXCJwavMqdF+/RsQxQZBAQI8AlAM9MrgOAhEjcFffhtS3SUUqXbRA2j1XmhVxtE29KLtpN4QKTBF4QbgO5RSPJNwFq9umuNnNVKc8Dm/aZYdyzhIYpIr7wbu8HDm8a73yzjaE2kJFAMpBqIYzmp0pXACPsRMjX6pIAfrgyg50aosqaVfXuHLJhDoqlyqc+7udiKbLh+CmP9In7XZQgTGBc9tUows71Ihl/OPenjG3obf1TnRTalwLcoAACASRwBVdagVRbMjsMwEcSPZ5ANB8+gRu792AXhylH+E1/RZQg1UCrYQf/Q+vbJ/r/q5iiUK5Vfxwc9fYf3OUXCT3CTwsovbGE7sjHNgJkwX3qaMFEJCDAJsQNhLBK5du3iuHQJAiEASw5BqIYcoT8l7hcz5qqSb8KwdyyPs0qUQNcyIqZ2kcaMEBePeH9c1L2xKbdSF5SyAfHm5vgaO1lATgPS4lHtzUIADlQAOKzJdu79PAMfGuFNuNn14jvyszfGcdG/KkimqVK0oco+Cdy9rl3uNVJqdTs6rJLnKVh5adbi+K9cF8QJ5R71a/PHEU6gvaVU8Q6lHFLo480kKSsBPQWJsJe5fRvzQJwKwoTYBBLt5W2H5zVNJ4KlpIzuikRm4XObw7kj0CY+7pkRSoamCnmrT30FHiCY5Tiet6a2Bbql+xeG6VUPqcokvUvFpJekRMPD+dssa5SlGTbQIc44GjTHO6UZyv6fvKX7H/vrhjTRoyYrHtelEQBOwQwBfSDrVol4FyEOHxb14tezWXo+Bu23eE6lXIm7gpsRTKn48OH5M3sA90A/sPsVagqvxiYnObOMfhdHLioLPTMoWlvj6NK1Gh/HIq92FhbLcfSocJRgsddttAORDQIhB3qfvi+S1p4AfTYi5MkUDADAEoB2YoBTSP8FhGWRpLBreISKn9hN/5uDJgFAWXXVx6GVk1oLgDJ7bf3oIwUXL+kRnQvDIt3bSXVm7bH6sctsbOM7ZaIxYvrBJDfqcIXNu9TqyqNjXL0Pwn+1EGTwqQQMAEAWnOHNwtJqBI9gi8IFYFtNKF7bPdF6rvVS1dhNibjNmkNP+oonBJaba82/k09B+3mwx8/QXF7kDFEnnuRf3oEAJxJVO3e96jaMHsXQM23WJTMSQQAAEQUBKAYoDnwQoBaZSDGmWLWJHb1byybr1d1bW2Zr97N66oeV3vYtAm00aTSKOVuVNbIDqv+llwMhqyum78tk+gROH8dJqNOBOVSmYrevy3wkGOkOQhUEHhxrdwAZh+yTMykAQEQECPgDTKQV0de3c9wfWun9gg/UOUneqU1ave8vX4ip7lghIVUE41XrqglUSSZYtiZDrxyoWtpZPZb4E+uqqD3yIQprDaQ1BIJ6gfKw1tapamkkKBQAoOAVYI5jx2Ms17/BSYdQRn2CsaJEwAACAASURBVCApCESagDTKAbt9cyINaJ5+dNf4QV0n5JGxDquTsu45Cld+sSLJXmeWPT3A026VK1YwZXu8c/DGpW2EbOWIV17VCat1aiJETaokRjBOzuH+lTB5K+ro0IJCbFdPZ2vvTWEy9L9bumlOMMvo/I3AXaz7z7GZFnh8ShUtYCYr8oAACICA7wSkUQ6cIsETWJnS/Q56B9By2XlK00qkN3l2avLFPupH3XUSzXy0bwytlocbt5h3qVuO9M5UKNs8vWVV+uK6zlRBFfCJffgjyUlAaS5m1TROth759dZ57eLWwlVmXTpJZ8e0ZfXk+BKysYM8IAACIAACchEIhHJQolDyarAexjNaVdW75cv1q7rVoaoOHeId2LlWQh9ev6QNvXdFezKyyXei440ql6DSRVOv4DvRjrKO6mWK0Fc3dKbqZYqmrFqpBD1+RtOEvCULY7UuJTxJbvayeG5GErHdEcOCpnFW62r00IAmSe+A2cKM5Y97e1ANRBd3Z4xQKwiAAAiEmEAglIOx4iMXTxygKVUqkuO1I1Ueo3tWV9zZDjie2AtMqSKJE1Ke4HI0YruJV87nP3kKNXQhcq1dmWQqpzyo3bNRRVo0uF+ueNWEghHFxNFyGwuFTva0eHB/+ls820UCflDT6jvD6rg8cmqT3CJmFgPKCjMWp85xWZUV+UEABEAABIJNIBDKgRLx/f0aS0e8WMG8nY2ThRmLMugNC1urXDEadFZzS3JXVHi4OK9tdWFLn7wCbmaBsVWAzQpSeSEacnYeT/WORlExHl9e14lYabjxpHox7hyt9OIO2q5dLQ1MQDJf3KEm/SZMwcbf14s4nsHHEhxA1kLHyjzv7ph5lrXKy3LNSdt+Hjt1uu7EOrmXbu1VP/bfZ7eWa5dULTN+gwAIgAAIBJNA4JQDM5h/uLkr3dXXfoRXvQ99PNqgGRms5rmjd/YHP16uadWSsUndcnH4V88/sfI69zk5nUDf3Ngl6bLbq5xJDTp44dWLWtFX13emMgYmTl3Fweknz2xG8Z0kPvAen1Q5KI70VdUsVzQWz4DNdj66qr208gb5mXQaKh9unvxg74RqlbsF13SrTaPvPolehhcup9GjvhASKJAR9KWHEA4KuiQ9gVAqB+1qlRHKQcOEFfyC+fPRe5e3S2tAyhc3trm3+xq6o0+yMsOTuvzCTEkvKZUD7rM6Na9WUjBI9qvtd/ArtZxGv5WuSltVL01d6pWj9rWz+4sXvzY9rcm2GXMU7dpw1YiAkTtdLv+7mNCrEzsUGCSUWHXiQIV6icexgTAx1Fs00CuH6yAQRQKn2ogbEkVO6DMIKAmYP+nrAbdiwsRg/5FMSy2xl5M/lmwxLDPj4b4xV3Lsb7q0+P+bPp9FoxZu1iynNbHSzOjQxcs610xSAswoGXqemZ4+pzkdyzwuzGgSzRN4NyUz6zj1bWItaJpD3XSkmvgEl4M+TX2oj6brUr2GvB5XPTm8uK7V1271yotzK8WpUWX/3ZiqGWjJq84T9N9aZ4bYoQCnmWt20vB5G+jmHtlmcEHvK+T3jwA7cli386B/AkjWsplvqWQimxKHg+txzJMVW/ebyo9MIGCFgP6ytJVaHMr7o/DhbcXbUAexemw2mFPcxzT7m3Z6BVU5sbFa91NnNaPHT09eOTSDVB0J9dw21Yh3EFgpuFLY28dXFv+6ryd9eX2n2G7Kvac0cqT/DSoWNyOi43mU7lwrCy9QxSx4srI6No4L73OFvHvGLmn/T3i5QpKLwGsXtabpD/ehvmInAQkE0iHwloiHEdT0QH/7ZwofGmC/bFB5vXZxGzJj0RDU/kFu/whIpRywu0yeuCjDzSs90VjFlOpAa6q6zKw0VEux7Z+qbvW9/iJoG0/a1OnukxuqLyX9Vu8cvCImGHz2QG1uwAeiu4pVYyfT0Gs6OlmdJ3WZGVdPBPGxEVkVpIx8yX8DPmKy1PSz57awlD+eWRmJnRX9imI3TJm03gu2GkKhyBBgU9KWwvTylp7B3IE6uan9Xe1z2laLzDjHO8oBW2c8kh1/KHKdR4ddJSDlF1k5qe/fvLIhAD8C/SjnMkp5nZqA8gveKJUrVsgoi2v3q6gmMm401FWcLVCndCa3UTBdUfMKym+2vW8mDuEHMV3SMdm7kJl+pDpXwOWdepeYkQV5wkEgrmR3qF02HB1yoBcccFzpbtyBKqWqgr+J3wrHI1rnFqUSFMIEioCUyoGSYNVS+gfzapYtFsvatmbyYVy+zi8FvaTnkYjzm5mAKssnmhXxR938Z93OhJWjovIWKns08iuZkTudXR/u1xM5BzUzFI0VK5R8wNosA7s7SWbrlymflWdQBrn54PyIO06UQRRXZPhGxDqxmuKud7vVT1aSrdaF/NEgIDagQpOu617HWl/EB3/JU/01y5QvnryQlk7sIc1GfLzIHs6utcrLR3nRtPwEpFQOlBNPdsWoTqwlX9i+Oj16Wl5gIHUep35/eKW2+0enXsJ23uUcFfXGABxctHJ+RGu8iuecJ2CPTawQPX9ei5hbTiQQkI1AKmXsNhGXoFNd6xP8h8X7jd8/716u/Q6SjQHk8Z9AvvjH086HxUD8cuK8XnfhItqrlMpTn5YMvBio5Z2P87ZXefPjXWmrsYe02pTpmnrB7oJ21WUSD7IEjIBU3orMsmMtmf8ZplRbBykKK9+rei8b5e5Cwn+nqFfrlpldCq1yMl/jiNYlxMR+3S7nPGawQpRusvk4pNusL+XVgfh8EQKNxgioP9pxLMrD9VqoCuXPoD5NcEBZiw2ueU9g5qN96eNJq2ni8m2uNZ6r3IgW2OuSlaS3M1xALC5dI1bVi4pvUgWxgzBlxbZQxLzR62+c2TM2z0JZYY684SUgpXKgfuiLC3dd8VSogLebHXoLMAmmRKrnQ28yEKbHKJVSU69CticjJ5WDMLFzsy/9RITuGmWKxqJyBzFd0aUWfTplTWBEr1chm7OZOAeB6RQEDSyBosIduFuJ3/nVLE7YrcpSp3wx4ndYqSIFYhHt2SXrO3+tSKiGA2EeOppFD/0437D6uuLv8z/CQx8rCJd3rhXLb+Yco2HFAcigN3cJgOgQUQICUioHai5FC+aPeeHhSbfeSr66DP+uWrowrd5+QOuW7moeZ06Y3Ov8hQ0QB6XfHJf90lLmr1O+OE1btUOzTa2Lyur5hbj74FGtbKG/VkuYj63RGSunOm+0UutUO37Wc1uvBtSieik/RUirbS3b4LQqdLFwVeFK99c7kwObudgkqgaBlASePjvHc5ZL26T8nnYzsQKiNKN7UJytUysH57SpTrPW5H1jm1YpSUczs4TJafK5gj/u7emmuFLVrdx1YcFSLeBJJTiEkZKAt8vwJhForbyz/369g8d61X5wZQfq0bCCUCy66GXRvJ5oJqStHdzeOy+iMefgA4d8gOrGHnU169S7qOzrYBHzIIqJD1fzS3zEHd1d7b56R8rVxlB5aAjUKFtErD4muxauIDx2mXE3qv0GCQ0edEQSAmxKqHVGzwnxeLWeUyUfznz11TCtU549++X27rH4LfG4P/VzYvDEd/Wc6H8Q6uAzeqe2yPPuiPdOEEZNXhkDsXNgFx+/JD4x4Y//97tPotfHLqNf/t6Y1JSWosKZCqliE/CBQzuHDlMdZEwSJqQX4oerm1UtFdtK/nrGvyHtqbPd4u13vSjfzrYU3dpYMXjnsnb097rdjkNwaXHXcTlRYTAIJCx+ODAz5CCjM1bvJF6Z59V6v5LWbkWNskVjMZFKFy2QqxTE5eNv/ieTV8cCgUYtvTWwHY1ZtDlmYaEOkho1FuhvegSk3DlIr0vWSzesVEJ3V0LvHat3IJlbt7JCHeDYT4ag9djFC5YV3i9Oa1kloR4OKPXV9Z1p3hOnGNYf9QzwYuP+EzDh/t4i/kIpQ+fEWnFJ4sEcT25qHKvF/Z6gBRCwRuC/IvruY6c3NbXAZq1ma7nvUOzSK0uyN7wTG1RIqowDlD58ahMyE6g07i5YXclzgTjMq728wFHWuzfwzquUmh1+h4OAlMrBayLSL6/YD8rxc2+EWm9136ic8v7l4iDkE2c0jW1PKpMZuz31JDjTgnagthO0InPQ83JkxzfE6o+adxfhZo7PXyCBgJ8ElM+g0Tvmrr55ZoZxmf/8T08aJ/4F+QyIn/zRtjkCvLvF6b5+jcwVMJmrtHgHs+/8uJJrspjtbHf0rq9ZtpTYHRhydnPNe+lefO68lrR0SHJshIolk88vpNsWyoNAkAhIaVbUVfhSXjZkAFn1c5wOePZmcHW3OklVKCcF7IWHDyGWESveyqSeOGRlaWv0SZWLCxlOBUzQqlzya173vZIHUZ0lRw7xbBLQ8v6kXBRgpwnKdG7balRM2ADXyYnVodWshTUEreK4FlAC7BKUvfCc/eYkR3ow+MzmxF55agpTm3hSm7060pDLldzVN/lcj8tNxqpnl8HqpP57Vt+X47d6WVIOqSBFOAhIuXPAaL1UDFINZcnCeSvYfPhw/P29aPht6oOziX+kxywoB2rFIpUsuJceAR6/RYP7CW8Y7dKrSOLScKnpzuB0thjE7OULsg9wuiMNag0yAfbI1bpGaUo3gnycAX9DWHlV7nJ3rmM96J6aqdffJtjIq0fA6Lf5RUijmnAfBNQEpFUO1IJ6/fsl8XHnCMzqw1CstKhfYuqXaM9G2XaQ8e3euOxx0wNl5OAMReEwrCSWL563q2LGJMvrceUVoSCuqulxevjUxmLHq3bu7aAfcA/yWpjSxlnGZ1/vGcJ1fwg8adJs1o50/I2Kqvc7O7xQBgRAIJGAlGZFVgfJjQnR+Tmhxw8dzcwVx+zE5SlhH8kHFE9rkXjY9s4+DejC9jVo54EjNHzehli9YTlzwF4jJj3QOxZsRvYUpvWWG06qR5lip4ojlyL5S8BqVOowPYf+kkfrIOAsgSAs1AVBRmdHBbV5SUD+mZyXNCy2Fd8WVh9GZFMkPshVWZxPUCZeTawqPCko/6iVuw5BNgn55OqOMRtrM37fLWL2JPvIO06kznXLetKW042YVVqdbhf1JRIws1twf39nD41iDEBAj4Ab7wX1rrle205fV+/OO10/6gMBEEgkEArl4ArhaYiT2i1mqsG287JRl+Ft4SVP9Y+5OrSSshTagXJCEdSVgJ9u7UathA1tkFOTKiWoeCF4SAryGPotuxnfArf01PbI4rfsaD98BNLdmdLakWcPXkFdAArfCKNHIOAegVAoB7XLF4tN0tVuMZ3AplYI1HVysBGrqbKO15ygKgdW++93fq0VNTOrvn7Lrde+0TOqVw7XUxMw4lq1tGpn0DAaQur2cBcE7BCw8+7iaLp205Cz3HEralceN8oFeRffDR6oM3oE7L8hJGNlZ5JuvQta00rrtVQUysHXN3QWK9WJ+NNd6bEuSXolOELvxt2HqHk1azsn6bWK0kygV86hd9Bwj0AqZZ2fffWBUiNlwj1JUXOUCXTR8aRVvUx2/AMtNsPEbm/fV/7SupV7LcrPM9xep3w0cDMCBEKjHFgdqwva1aCR8zeJiW3JlEW1tlZTFjB5U8s1YrtaZUyWliMbR+g9LmZQdlau/OxB0JQwNSv2QnJpx5q5l4PGX92fIP52Ijo1/+0ggUA6BO4QTi70zHx6NaqoW3X9isV17/lx40RJIvo2qVKSrj+xDnFMo3IintH2/Uf8wIE2QcB3AqEwK7JDsVfjijT23h70/U1dTRd3eyWljjCPGn33STRLBMkJSko1MXVmnyUoJLyTk32a68UBcfsZ9a6X/rdklWU9ySZc/hOEBG4TSPWO5XfzxR1q5Ipwe04EYjOLUOzuuaCO57n8Galatdfj969on7KgW4t06ka71StH57atHrv8xfWd1Ld9/a32foilBV+HI/SNR3bngEeWVwdkSw0qlZBNpAjJg9dthAY7t6snNaxA4//ZmtR1qwv7g4WDgmIFM+iiDnm7OkmV4gIIeEjgxh716NuZ/9LZravR7b0bUJuapal97dRe2X65vTvxzoKeZ6JThYvue76d52gvvDELtiZy48qprQqs1WY9d/f65Wni8m2xgmyG3F5YFoyYv9F6RSgBAjYIRHbnwAYrHDe0Aw1lQMACAaur9Raq1s16RsvEeCS6GQ1ulBORb184vxWZWZnlqqCKGgCNwG2zz4pdFLwbvXBQf3r5wlYx86PejSsRu9pOlXiinmqyzveUgTxT1RW0ezL9Tb5+SZtcfHUr6O8WB40x5A0GASgHBuMErwUGgFLc9mOil0IcE7ec3y430ajlLE2FXSyS+wSC9/y6zwQtOEvgoys7OFuhRm1FxG5WKvNPjSLSXfLqb9GMO2In4dzYo65udVpfo2/EDgISCHhBAMqBAeUMxVupdNGCBrlxO8gEJuVs4crahzcubUOTH+xNFUoUklXEQMqlnDhNf6RPbh+KFdS2uqwrVmPTSfHVYqU9eDr1oWxwCZQSkeXTSelMmr+/qYtO08br562qh8tDHQcyrVm2KN0kzLC8TEULaL9jkmTIGZJOOp6pkvLjAgikScDkk5lmKwEuzgc/P7+2Ex0+lkllhfcCpPASOHg0U+rOcQAijrAd5lSxRGLsALf7yp6flCt03P4H4nDki6OW0isXtdJsvm2aXsXYfniTcAFcQ0xGkEDALwJGZw9SyXVl19o0ZMTiVFkcvdesqru7pXf1bUj8z+uUyjJBqfhpqWvwdub1aEWrPSgHJsa7uyRu1kyIGpgsVUp5OwkMDJiIC3pu22o0f/1ucWiyDE1duYO+mr7WVSKtqpemFVv3JbTRt2kl4n96iVcY00kFxIIDFIN0CKKs3wT4Ga4n7OBXbN3viSgtxd/pJ9d0pBopYjd4IoiHjSh3NK06R/BQTDQVUgJQDkI6sDJ3a9rDfYhXwZGcJ1CzXHoTV+clslYj79Q9dXZ2BNazhIeVTbsP0rilyZ6ErNWqn5tX58yaZnwpXBuOWbSFbjhJ305YvyXcAQEQSIdAD+FVLEpJef4hS0M7CPo5kiiNZRD7CuUgiKMWEJn1fFP7HX3SyurTx1d3oKs/niE98ZkiNsaRY1mGnkik74gPAuo9p2pRutYrT/wPCQRkIWD22bUibwkDb0bxurRMXYzaqSbMItfvOmiULTL3U41fPsWqhRZrLYUhMuDQUdcJ4ECy64ij20CZYsm7AzJEwqxfsQS9eWnbWCRMZTovJ/iN8lqqKKNej2yqD0l54UYzjOcRvFgd69esMrHLxwvbZwc/8npc0R4IyELgss41yfTijdaMVZaOBESOVGcOOBBdPJVW7LRXLpltkttNxEFAAgG3CGDnwC2yqJeqlylKpwkf8qMXbqYjmVlSEWG5MsS+7fsTVuXKVTC/lvM4ecRO9SGRR8rgScKuHv8Q0dK9UESCRwcSy0zArEmc2T5oLZDolbWjGygnvHr14no2ATaxHPefnpSZlUXFCuVN1X64pSsNn7eBLumIYIt4VtwjgJ0D99iiZkGAV+j/eXpAIFhgchiIYXJUyPhuDMbeUayoLAIEKtpwqVyicH7qAnecpp8O3tHknW5lYtMsdrmKc3umMSKjDQJQDmxAQxH7BDpL/GEoK3kci1RmRfZHJHolS4oJSjwVKoBXYPSeAPTYCQIvXaDt6jdV3TzZvU5lzpkqfxTuxR0wRKGv6GNwCMCsKDhjFWhJx9/Xiyav2Ebnatj1+9Ux9Zb8TT3r0ZJNe2jM4i1+iYR2XSYwsFNNurpbHRo5fyNt2XuIGlQs7nKLqB4EwknAjjveahFyRWp21Hs0iJYXJrNckM9fAlAO/OUfmdbZxWbNcnLbSBYXdp0fXNmBuj33BzxqhPTJfPqcFrGe3dGnQUh7iG5FiYDcp6SiNBL2+4qzZPbZoaR7BLCn7h5b1Cw5Ab0Pq3pHQfJuQDwQAIGIEsC7KqIDj26DgMsEoBy4DBjVy0ugq3AFV1B4hGhVvVSCkOoP7tPnZAflkrcn4ZVMT4ELb4/Rs6gRuLJLrch0mV0uI+UR4NhmGvHNgAgEfCcA5cD3IYAAfhFgM6L5g06h/93SLUEE9cHfgZ2i8/H2ayzQLghElcCgs+wvPvRvXsVRbHbck5oVgOOIBO1d+vNt3ahvk0pmu4h8IBAaAlAOQjOU6IgdAoXyZ1A+ZZx6UYl654Dr/eX27naqd7SMllyONoDKQAAEAkOgT+OKws1legfq7zm5oSf97dmoAr1wfisqqAjs5UnDaTbSsnppcQ6tPZUtVjDNmrSL452uzQVX/ScA5cD/MYAEkhGoXyH5g9u8Wikq59IHwmz3YWJjlpR2vk+u6ah9A1dBwGcCatNGM+KUK57+hNWrg/mZWW7uSZihlV4e3kF47PSmdF+/RulVpFE62GQ0OoRLoSAA5SAUw4hOOEng2fNa0AXtqtOwWxPNjZxsw0pdlUsWplY1SlPHOmWtFAtF3tNbOWM2Mfruk6hHQ7gMDMVDEcJO/HBzV5rz2Mm+98ytBYgJy7bl9i2Iq+XVyxSla7vXoZtF8DEr6V4TOzPHcejAClLk9YgAXJl6BBrNBIdAxRKF6UUbAX7c6uGLF7SkEyPqC/vs1tWohvgwN6xcgu74ag79uXSrW5hRLwj4RiC/cIxQxuLOZNlizh/uxSp26keATVCLFcyg/UcyU2fMudtJ4qCfpjqATJElgJ2DyA49Og4C8hM4QSwztq9dlkoWLkBurWrKTwESRo3AqS0qp+xyv2aV6NZe1laxU1aIm74RgELmG3o0nIIAdg5SwMEtEFAS8Gs7HLvO2aOAjyj+HsNO4PNrO9Hq7fvpoFiZHjl/k2Z3Owpl+d3L22vek/Wi0iRS7Q1OVpmdkMvomwFXpk5QRh1uEMDOgRtUUWdkCJQonFq/PrFB+ciwkLmjRh9pmWWHbNEh0F28Ly7rXEvTY1qcwpsD27oGxK2FiL5NKmrKXLpoARp0ZjPNe7gIAiDgH4HUMxv/5ELLICAdgR4NK9IPs9dRlVKF6SdxWJntT9nc5eNJq+jZX5doyvuZWAms/eAIzXtmL2LF3Cwp5AOBcBCoUEL/PEGqe7L1ftKDvWnqiu10ZuuqmqLxIWw2HQxSclJeva6/elGrICGBrCEkgJ2DEA4quuQOgUFnNaMnzmhKP97SlSoKD0Ic7ZP9dmeo4iSoW8fugZqIH7+DNQHxgxDalIfA6S21J9NuS6g3WbXbbrXSReg84fmtgDhwrZWcnGhr1R+Ma8nLP+e0qR4M0SFlaAlo/8WGtrvoGAjYJ8ARla/uVkfsHBRJqMToA/fxVR1oslhBe164SEXyi0DyB9gvSdAuCBgR4AWHc9pUM8rm+H23zIocFzQgFSp5fnldJ02pwVwTCy76TABmRT4PAJoPPgGjNWl2U1hVrKBd1KEmbdt3hF4ctdRSp+EH2xIuZAaBUBAweq+EopMh7wS/u0fecSKt2LqPutbH+bOQD3eouoedg1ANJzrjBwEra9LXiJ0Hq8lK/VbrDlL+/5zSiAoXyEc3nlTXhtiYatmAhiIgYJlAs6olqXqZIvTC+S01yxYSf8NBTlbeJEVETISmgscZrfTNxPB+D/LTEF7ZsXMQ3rFFzyQkwB8LJHsEmlcrRXMfP0UoCBn07viV9ipBKRAICIGjWcGcNjaoWJz+e3EbXcqd65QjjuNQv2IJ3TxhuZHPxCEOozNrYWGBfgSLAJSDYI0XpJWQgJWVJAnFD5RIrBgggUAUCAyft8HzbjasVNz1NtnL21sD27neTlAaqFu+GJ3WsgqN+HtjUESGnBEgEOz9vQgMELooP4HiBrEO0u5BMBcQ0+52qgr6NqmU6nbSPRMLeEllcAEE/CTAK/BeJo43UEK4Zk434XVljSA7tHjz0rb08dUdrBVEbhBwkQCUAxfhoupoEKgs3Jq6mY4TPrdqvk+f05z6NNYOrKTOi98gEEQCrWuU9lTs5tVKOtKeGVMaRxoKWyV4zYdtRAPdHygHgR4+CA8C0SRQSShkHwoXsRVTBItSkqlVtmg0QaHXIGBA4OsbOtNz57agdrXKGuQ0d1sv4Jm50tHKVb0M3kvRGvHg9BZnDoIzVpA0ogTgBzv9gWd3skggAALJBDrXLUf8L51UpmgB2nngaKyKImE/F+TQITOOY+FHLIt0xhllo0MAX8zojDV6GlACUA7SG7jbe9dPrwKUBgEQ0CTAuw5s/vTZtZ2oZM7ZK3bdiZRNQO+sE5twvXpRa4KnIjwpshLAzoGsIwO5QAAEHCFwz8kNHakHlYAACCQS4B2HYbd2i12c/khfOpKZJZSE9A81h51zRj6sy4Z9jIPePygHQR9ByB96Ajinlt4QszcQJBAAAXcJsJthuBq2zxiOJ+yzQ0nnCUA5cJ4paowYAcw9Izbg6C4IgAAICAK/3N6dFm3cQ0fFjskj/1uQxOQE0l6Y0L6aVBwXQMA3Atjb8g09GgaBbAKntahCr1+iH1EUnEAABEAABOQjwFHbL2xfgwZ2qpW2cOWKFUq7DlQAAk4RgHLgFEnUAwI2CdQXwY7ObFVVt/RxnEjWZYMbIAACIOAlASur/lYiTrcSB7vv79+I3rgUC0Vejifa0iYAsyJtLrgKAqYJtKzmbLCiogUzqG3NMjRx+baYDDhzoD8UYKPPBndAAAScJ2D2DNN7l7cjqy6Ub+kJz2rOjxhqtEMAOwd2qKEMCCgIlBI+vuc+fjK9PbCtLS4F8yf+Gd7RpwF9fl0nW3WhEAiAAAiAgP8EECna/zGABPYJQDmwzw4lQSCXQOmiBW156mhSpSRd0SXbXvWyzjWpUslCdEmHmiBrkkCqLf7yxQvSWzYVNpPNIxsIgAAIaBKAowpNLLgYEAIwKwrIQEHM8BFgpWDwWc1zOzbk7BY0+MzmlC9f4pQ39BFHXRraGcLvulkTAJdEQLUgAAIgkEQAikMSElyQjACUA8kGBOJEh4DWOWOlYvDQgMa0WLjJ616/fHSge1A8xQAABitJREFUWOxpqjMHUAwswkR2qQhgAinVcFgWBuNnGRkKSEQAyoFEgwFRQEBJ4MYe9QAEBEAABEAgZARSmUOGrKvoTkAJ4MxBQAcOYoMACJBOiCGQAQEQAAF3CDixI5Bqx9MdqVErCFgjAOXAGi/kBgEQkIgAPrISDQZEcZSAltmhow2gMlsEWojAZ5wyVGfD1JXpRUdW58NvEJCRAMyKZBwVyAQCIAACIAACICAdgVcubE1v/7mCLulYw7Zsc9busl0WBUHACwJQDrygjDYiR+DR05pQg0olItdvdBgEQAAEwkygQolC9PgZTQ27WEQEs0QCgaASgHIQ1JGD3FITuO7EuobyHUfsY0NGyAACIAACQSTQqU7ZIIoNmUEgRgBnDvAggIBTBOCCwimSputR2mUbmACbrhMZQQAEQCAdAv85pSFirKQDEGV9JwDlwPchgAChIWDxdCwOrKU/8plZWbmV/DNkAEFBSJ8pagABEAABEIg2ASgH0R5/9N5HAjArSh/+scw8jSx/Rj4a0LxKrNJmVUumXzlqAAEQAAEQAIEIEoByEMFBR5dBICwEHj29Sawr159YJ/b/z53Xgp45pwV9ek3HsHQR/QABEAABEAABTwngQLKnuNFYqAngzIHnw3tRh5rUq1FFYg8inEoULkCXdqrpuRxoEAScJqAVbOunW7s53QzqAwEQAIEkAlAOkpDgAgjYJGDxzIHNVlBMRaBiycJgAgKRINCqRulI9BOdBAEQ8JcAzIr85Y/WQQAEQAAEQAAEQkQA0a1DNJgR7QqUg4gOPLrtAgGYFbkAFVWCQDQJ9G1SKZodj0Cv88OtWgRGOdhdhHIQ7PGD9AEmgNWlAA8eRAcBlwmc3BTKgcuIXate67yIsrFa5Yq61jYqBgEnCEA5cIIi6gABQSDD6IsASiAAAiBgksAJ4n3StibOGJjEJVU2LPxINRwQxgYBHEi2AQ1FQECLQNd65aiN+Jg3rlxC6zaugQAIgAAIgAAIgID0BKAcSD9EEDAoBDgI1/9uMXY1WCh/Pjp8LIt6ChecSCAAAiAAAiAAAiAgEwEoBzKNBmSJBIFJD/amZZv3Uee6ZSPRX3QSBEDAHgGld+R4LA97NaEUCIAACJgnAOXAPCvkBAFHCJQvXoj4HxIIgAAImCUw/eE+ZrMin+QE+DwJEgjITAAHkmUeHcgGAiAAAiAAAoIAJpR4DEAABLwiAOXAK9JoBwRAAARAAARAAARAAAQkJwDlQPIBgnggAAIgAAIgAAIgAAIg4BUBKAdekUY7IAACIAACIAACoSegPEge+s6ig6EkAOUglMOKToEACIAACASdAIJpBX0EteXHcWRtLrgqDwEoB/KMBSQBARAAARAAARAAARAAAV8JQDnwFT8aBwEQAAEQAAEQiAKBU1tUjnXzxh71otBd9DHABBDnIMCDB9FBAARAAARAAASCQeD/LmlLD/Q/QLXKFQuGwJAysgSwcxDZoUfHQQAEQAAEQAAEvCKQke8EKAZewUY7aRGAcpAWPhQGARAAARAAARAAgTwCtcoVBQ4QCDQBKAeBHj4IDwIgAAIgEFYCcIkZvJEtUTg/ndGyavAEh8QgoCCAMwd4HEAABEAABEAABEAgDQIfX9WBRi/eTI+f3pTyCfMhJBAIMoETjosU5A5AdhAAARAAARAII4Elm/bQxe9NpTt6N6BrutcJYxfRJxAAAQkJQDmQcFAgEgiAAAiAAAgwgays41iJxqMAAiDgKQEoB57iRmMgAAIgAAIgAAIgAAIgIC8BHEiWd2wgGQiAAAiAAAiAAAiAAAh4SgDKgae40RgIgAAIgAAIgAAIgAAIyEsAyoG8YwPJQAAEQAAEQAAEQAAEQMBTAlAOPMWNxkAABEAABEAABEAABEBAXgJQDuQdG0gGAiAAAiAAAiAAAiAAAp4SgHLgKW40BgIgAAIgAAIgAAIgAALyEoByIO/YQDIQAAEQAAEQAAEQAAEQ8JQAlANPcaMxEAABEAABEAABEAABEJCXAJQDeccGkoEACIAACIAACIAACICApwSgHHiKG42BAAiAAAiAAAiAAAiAgLwEoBzIOzaQDARAAARAAARAAARAAAQ8JfD/ym/jIK18nyQAAAAASUVORK5CYII=;clipPath=inset(0% 2.67% 0% 2.67%);" parent="1" vertex="1">
          <mxGeometry x="280.13999999999993" y="610" width="95.46" height="40" as="geometry" />
        </mxCell>
        <mxCell id="woaUJ1NgNmfOBe0f4mOw-13" value="" style="shape=image;verticalLabelPosition=bottom;labelBackgroundColor=default;verticalAlign=top;aspect=fixed;imageAspect=0;image=data:image/png,iVBORw0KGgoAAAANSUhEUgAAAwcAAAE0CAYAAAB5KU9lAAAABHNCSVQICAgIfAhkiAAAIABJREFUeF7tnQW8HEXyxyuuL+6eEFfiQRIkQgiugeDOcccBdwcHh3uAP+4ugcPtkCQQISTEhbi7u7v9u+a9fW92dnxHemZ+fZ98uDfT01317dndru7qqkJHRSEUEAABEAABEAABEAABEACBxBMonHgCAAACIAACIAACIAACIAACIKAQgHGAFwEEQAAEQAAEQAAEQAAEQEAhAOMALwIIgAAIgAAIgAAIgAAIgIBCAMYBXgQQAAEQAAEQAAEQAAEQAAGFAIwDvAggAAIgAAIgAAIgAAIgAAIKARgHeBFAAARAAARAAARAAARAAAQUAjAO8CKAAAiAAAiAAAiAAAiAAAgoBGAc4EUAARAAARAAARAAARAAARBQCMA4wIsAAiAAAiAAAiAAAiAAAiCgEIBxgBcBBEAABEAABEAABEAABEBAIQDjAC8CCIAACIAACIAACIAACICAQgDGAV4EEACB2BE4cuRo7HSCQiAAAiAAAiAQBAEYB0FQRh8gAAKBEXhp+ELq9PgwWrF5T2B9oiMQ8IMAG7mXvzOBbv9smh/No00QAAEQ0CUA40AXCy6CAAhElcBzvy6gLbsP0FND5kVVBcgNAgqBBRt20phFm+i7P9eACAiAAAgERgDGQWCo0REIgECgBAoF2hs6AwHPCRw54nmTaBAEQAAELAnAOLBEhAogAAIgAAIgEDyBQjBwg4eOHkEABHAgGe8ACIAACIAACIAACIAACIBALgHsHOBNAAEQAAEQAAEQAAEQAAEQUAjAOMCLAAIgAAIgAAKSEzh6FOF5JR8iiAcCsSEA4yA2QwlFQAAEQAAE4kQAZw7iNJrQBQSiQwDGQXTGCpKCAAiAAAgklAA2DhI68FAbBEIgAOMgBOjoEgRAwDsCC9bvpI0793vXIFoCARAAAY8JwC3MY6BozlcCMA58xYvGQQAE/CSwbNNu6vP879RZZERGAYE4E8CJg+iO7lu/L6bjnhxBK7cga3t0RzFZksM4SNZ4Q1sQiBWBP1dui5U+UAYE1AQKERIdxOGNeOLnebRuxz56cvDcOKgDHRJAAMZBAgYZKoIACIAACESPwNY9B/KFhltK9MZPKzEyXmuJ4G9ZCcA4kHVkIBcIgIAjApg8OcKFypITOHzkKF3y1njJpYR4Tggg+pQTWqgbJgEYB2HSR98gAAKuCLAh8H9D59PXU1flP3/V+5NctYWHQEBGAnsPHk4TC2cOZBwlyAQC8SRQNJ5qQSsQAIE4E5i6Yiu9MnJRmoq/L9iY9vdPM9aKA4Bj6L2rO1OVsiXijAO6gQAIgAAIgIBnBLBz4BlKNAQCIBAUgW17Dup2NV1zQHnGqu307C8LdOviIghEiQDyHERptCArCESbAIyDaI8fpAeBRBLgyB965cOxyzIu7z1wKOMaLoBA1AgcJTgWRW3MtPLizIGWCP6WlQCMA1lHBnKBAAgYErj321m6976ZtjrjOqZUGUhwAQR8J8BhO+/6ajohUEABauz++P7aoQOPCMA48AgkmgEBEAABEAABvwhEbWL55qgl9MXkVbR4426/kESuXewcRG7IEiswjIPEDj0UBwEQAAEQAAHvCKzbvo8GjVtGu/cXuPIdQnB/7wCjJRAIiACiFQUEGt2AAAiEQyBqK67hUEKvIJA9gfNf+4PWCANh9pod+Y3F8fO3Sxg/f/l4Cp3Ztib171wve3BoAQQkI4CdA8kGBOKAAAiAAAiAQBQJsGHA5bNJK6Movm2Z3/p9CY1euIn+/fVM28+gIghEiQCMgyiNFmQFARBwTAAHkh0jwwMSEojjCryEmG2JtGOvfihlWw+jEghEgACMgwgMEkQEARBwTwDRUtyzw5MgAAKZBMwOFu/cd5CeGjKP5qhcq1ItFKJCmY3hCghISADGgYSDApFAAARAAARAQE0AeQ6i8T488fM8ev23xdTvpdHREBhSgoAOARgHOlBwCQRAAARAAARAIHsCSXOHmr1me/bQ0AIIhEwAxkHIA4DuQQAE/CWAMwf+8kXrwRBI2iQ7GKrB9vLTzLW0cef+YDtFbyDgggCMAxfQ8AgIgAAIgAAIgEAyCWRzduDVkYuSCQ1aR4oAjINIDReEBQEQcEoARwCdEkN9GQlgB0zGUXEu0+EjGEnn1PBE0ARgHARNHP2BAAgESgA/xYHiRmcgkDgCD/1vNp3z6h904NCRxOkOheNJABmS4zmu0MonAocOH6EihcWmslksu7y+OYTmkk27qUHlMsozKCAAAiCQNAJxi7I0asFGmrJia/4wLt+8mz4Yu0z5e8S89TAQkvaCx1Rf7BzEdGChlvcEdu0/RB0fG0bXfjBJt/EjYrt4wpLNtFvU48I/GD2fHUV3fTVDtz4uBkMAZlkwnNGLvwSQr8NfvnZa37BjH1313kSavnJbfvWTnvkt//8fEr8B89btNG3KxrqS6fO4CQJBEIBxEARl9BELAsPnrqftIjPmyPkbdfV5XxgD/d8aT5e+PV65/+Lwhcp/v566KqM+GxL8DwUEQAAE9AjAGNCjEu61DRaRhuxElDpip1K4aqJ3ECAYB3gJQMAmgYOHzSfzX05eqbQ0Y5V5nGs+kNbr+VGKjyomADbhoxoIgAAISE5A+wvR/81xtP/Q4TSpPx6/gtg9FQUEZCYA40Dm0YFsUhEYNH65J/Ks2rqHlmzcTTNXb6cD+JHwhCkaAYG4E9BOPOOubxT10y72TFi6hb6ftiZDFT6LhgICMhOAcSDz6MRItknLttBfPp5CU5YXHOSKmnqrt+51JLKRr/u2PQcdtYPKIAACySOgNQYe+3GOtBB4N5QP48a9uHEJ2o8FoLi/FrHUD8ZBLIdVLqX4R+OiN8bR4Fnr6ILXx8olnANpvDpIxu5EKCAAAiDghMAXkzPPLjl53s+6HHzh2g8m+9mFFG1bJT+77bM/bcmJYwe2MKFSiAQQyjRE+Enp+sOx3rjjhM3LaCfASC69cKd8qFmv7DlwiAoL66NksSJ6txN5bZnYeufoH4+KFVMOBfvuVZ1shZBNJCwoDQIhEhgya61h75gIG6LBDRCQlgCMA2mHBoJFnYDW/5QT5Fz3YfrqGv9w7jt4mFo+MJTKFC9Csx/pG3W1PZGfD+yd/H+/pbXV5/nfaeGGXTThPz096QONgIDMBOIyqXbjiiPruHi1exy33A+yjhfkck8AbkXu2eHJhBHQ+gBzFIqXRbjSWeJgsZ1y6Ih+hIplIokOl90H0qNa2GkzrnX0DmqzYcCl93OjfFNba9D51hEaBoGEEDj7lT/oH5/bc7eRHYlXxoHsekI+EIBxgHcABFwSeGvUEnr21wV05stjdFvQuhXZWQnE5FQXZdrFHftyk8xZ18ytoR0Ho+c402mXJ4bTG6MWG1XBdRAAARcEvpm22sVT8XhEzx31kEVY7HhoDi2iTADGQZRHD7IHSkD7JT9n7Q5H/Wt3Hvjh5vcPoRs+iv9BPkegPK5s1+B6euh82iiSHA0cPM9jCdAcCLggoPeF4aKZIB6xOqgbhAxB9OGVnj9MzwxvGoT86AME7BKAcWCXFOolnoBfW8ortxSESE3tLmzZfSDxvIMGwAfCUUAgLAJ8JglFbgJefUXsFgEoUEBAZgIwDmQeHcgmLYG+L/yuhGY1K9qppt0V7Od+mU8dHv2VvpiUm3HZrA/csyZg162oiHbArJtGDRDwhMDC9Tup6X2D6cHvZ3nSHhqRm4AdF1O5NYB0cScA4yDuIxyyfpwcJ45l3rqdpmrd9dV02uxi9Z9pvTRikdL2/ZgomDK2e9OuUWa3PdQDAa8JpD7zH44rCPuMiDZeU86+Pa92DuL5q5g9X7QgDwGEMpVnLGInyZw1O5SkZ3tFqM6kFb2ERfhBkPstwPjIPT5xlg6bVnEeXegGAtEjgJ2D6I1ZZCTmle84GQbZHEY755UxNHrBJsuxwyp3LqJsWGsh/zhjLe3Yd1B7meDjnYEEF0IioLciDdcT88Hg/DDjl2wmzokStYKxjdqIJU9eGAfJG3NoHAKB6au201//O9Wy56UiK3Cq6E0YLBtABV0CLw5bqEQiSpX7v5ul+Hgv3pibO4GvY/VWFx0uBkAA755zyH/5eApd8tZ4elHkmolewT5l9MYsWRLDOEjWeAeqbZJ+8Lw6W9FbZAFG8Z7Au2OWUufHh9HsNbkJ6waNz/Xtfv035DTwnjZadErA7qF5p+3KVP+Ix+fPRs7fqKj3sjijJfPuwcote2QaBsgCArYIwDiwhQmVQMCcQMsHhpDVIWXzFjLvphIqs6sR3I0y+bi58tWUVW4ewzMg4CsBvYWUSK0t6ymgIWZn59Qt5Dd/X+L2UUfPfaQ6MG73waBksysP6oGAHQIwDuxQQh1XBOLmFmOmz34fYpQfEL60bBT0F1vnV743EQaCq7cw/SH4+noAEU2AgAsCVqGfXTSZ/8jPM9dm87jtZ/87YYXtumYV8T1kRgf3ZCCAaEUyjAJkAAEDAmu276OJS7cod3ftP0Q5JYsZ1MRlOwS0OzD4kbZDDXV8J6Baed+wYx9VK1fS8y7/8+1M4rbfvrITRdmNiT/D80VeiCgXfO9EefSSITt2DpIxzqFo6WXEmVAU0HRqY+fcczHVk9ko/6B7DsZlg166PT/ywxw677U/EPXI5VjgsQIC6u/KHs+MVG5oDdlsefGq97C5G2jO2h3ZNhXq8/+bvob6vjA6TQZMtkMdEnQeQwIwDmI4qLKohCQ+2Y9EUn/0/Hp3tO2auYpZjd57fyylaSu2iQnXeququA8ChgQ4pO7XUwvOwuw76Cw053qxGzBlee7uomEnqhups0x26spY5xMd155Inc8QULXfQzJyhkzJJgDjINnjD+1BIFEEtDsHKePrjVGL6bs/17hicTCCcdZdKYqHfCHwvjAysyldnxgukk2Os20gZGMQZyOnn8+mdln2HDiEnTw/QaPtxBCAcZCYoYaiUSQQxx/yMMfByFVj4OB5YYqFvhNMwMjNx+lq+Pgl9ncPvMYdhsulVgc2DFo+MJS6PTlcewt/gwAIOCQA48AhMFQHgSAJqN2KZPgBDkr3sN2pOOQpnymwk78ibFmDGhP04w+BIoWT9Mn2hyG3On9d7iHlLbsP+NcJWgaBhBCAcRDgQPOq5fa9BwPsMdyu4nQgedic9cSRg8IsTlcSw5Q16n3/68vpxGcKvp222lIV+A9bIkIFEwJFHRoHPAnm7MALHETsSQ9sYCJMRG+xgR6l70csKET0RUuQ2DAOAhzsWz6ZSu0e/oVmrNoWYK/hdRWXSdNcEd3j+o8mhwcSPYdGgA97WhX80FsRwn0zAkWL6P8MG71XF70xljhnwCUi/4ndYtSW3edlr8e/NVHS8StxAH31tr10/YeT6dEf5xjiTRl1nF167KJNiVpcNISCG4EQ0P9WCqTr5HWSSgLz/h/Lkqd8RDXmSCKnv5geNi9IVU7KC2vIfSbJ+SBKq4DaQ85Bvh/oK/oEnO4c7Nh3SFHaifuM+vMUpx3d1OjbNQw279pPfDYh7MLynjBwhBLp7N0x+gfSRy/cSB0fG0ZDZ6+jTyYspwHvTKDzRehkFBAIggCSoAVBGX1ElsCPM9xFsPFKYUw8vSLpXztGh5z96xEtx4lA4SyiDvBqsp0Sq3fU5crBtj0HlMk2n/FY/EQ/O9gCq8M7lNU1ie+ueHei0v9Ng6ZQ5wYVlf+/eOPuwGRCR8kmgJ2DZI8/tLcgsPvAYYsauJ10Ai7nKknHBv3zCBgZB3pumbyarC68mmynqN/Rv382zc4jEaxj/kmcvSY3+ZudIAN6yj85eK7eZU+u7czbDTJqLI67PUa64rocBGAchDAOsVrFCYGfH13+uXKbcshv5ZY96c3b3a/2Q6gEt+nXZ4SjEPUL0U0swUMK1Q0I6J1H3r5HP3BFajXZoCnDyy8MW5B/b9GGXbT/UDQXPdiVauKyzJCt5mZBJhY3uUneHLUksyGPrmSxeeSRBGgGBNIJwDjAGwECgsC5r/6hHPL763+ngkfIBH4VkaHaPPSLL1IcPHyUtHHltauxvnSMRkHAgEBhHevg7FfHOA6/Y2ZQvzpysUHv3lwOanL7yohFugKb6Z56QL3O0/z+IXTfdzN12wrjotHuUb4sSTpwFsYAoM8MAjAOMpDgQpIJLN2U7tPpdEUqyey80J2jctwQcGQot6uxXuiLNkBAb963fLNmBzMmmDbYiP5lpqrRjofT72l2Lfp4/AqzrgK9p/cOqAWwuh+osOgsEQRgHCRimINXkldypq3QD9n60P9m05w8/8/gJXPWo8xeRYcOH6FVW+M1iTh45IizAQqh9o59B8lsksOuD2+OWkwbdlqHQQ1BfHQZEQJTDb4/IyK+rpi+GeLCOrD6rg5qd0NXcYuLLBsbPq/9tigyv40WKuF2xAnAOIj4AMoq/vd/rqFDBqF2Phi7jPq9FF54UFmZOZXryvcm0olPjaTf5m9w+qi09aNw8K6tcHnq8sRwQ4Z/FflMnhw8j655f5JhHdwAASsCN4szUHEr8x0kbvNadyvjwev+nLTH33tv/76Enh4yX/e3UWbDxomeqBsdAjAOQhirQgn4pH//p3Vm2RDQO+rSjh+rowazrMwZUZds3JXfytjFm5X/P2jc8ixbTu7jehFhsqUxbknuuKSio2TbHp6PL4Fd+w/Rm2JSiJIdAaduRdn15v3TfNZt1urcaEp6rUdh0URPblyLLgEYB9EdO0juB4G8X5mdwnWk+9Mj6UHhAiVLOe+1sXTqs6PIbSg+WfSAHCAAArkEPh4fjmGvXkUfKXYez35lDM1ftzN/WHhhZLqI4LZ9r37UJO34TVq2VXsp0L9Z3ts//zO/z5HzNmQkiZN5TW7m6u2B8kJnIGBFAMaBFSEP7nM0lHu/LYiMgMNFHkD1uYlvpq4W/vx7fe7FXfOHIuCX706z4J/CilzwzNFjAYF9B70LKerWbYbd32as2q6Eck4VNhjOERHcej03ynK4Zopnw16wYCNG/X19zQeTFINHXdzysQSACiAQQwIwDgIYVD6E9cmE9MgInMb9incn0E8z1ioS7EWyrQBGwn4XsrkUmUku84qYmdwy3PPDrUgGvSADCAyZtZZuEwnP9hw4lAFDb6K8TbVLMESEdeaycef+jGe1F6aucLZrcP93s2y1q+3H7O+tOnkhZF3cMdPDzr3LReI7BDuwQwp1siEA4yAbelk8+9SQeTR64SYlrj5/ubZ4YAg98sOcLFrEo14SSMK5EC95edHW6m176bJ3xnvRFNoAgUgQ8HLnSpvN/eaPpxIHhujx9G8ZLKyMYj3jIaMRcYFDDzstg4Qr1V1fTXf6WOzrmy3yqMdrzKJN9MRP/mVrjj1oKGiLAIwDW5g8riT8irbsLvDl/L+h85UO3vtjqccdoTmnBHaKA4JviDCUfOYAJVgCd389g8L2XQ5WY/SWdAI6+c9cI+HvLb2ySexSa4vV5N/OlP/OL6crUbvsnktQyzBPdb5BK5sff9/zzQy6XOzUR6mYGQt6OyVR0g2yyk+gqPwixl9Csy+B+Gsfrobrtu+jH6avSRNioAhDiRI8gc27DgTe6VaRkyDb8odYybu4U91sm8HzCSTg13f/5GVbTGnamfybNiBufjlllVLlm6m5/7Wqr75vZZw4actO3U8nrrRTLb/OxKVb6LGf5tDZ7WpRk+o5dFLTqo6e96KymlHQvLyQH21EmwB2DqI9frGRns9gjBOhOYP29b/wjbH0+M/Yoo3Ni+RQkZHzNzp8IrM6u26ggIAbAn65L174xjhTcb6c7GyybNpYDG9e/OY45ZD2Y8J95yqRTwY+/jEcZKhkSkA64+Ceb2bSA9/PMhU66jfZz1S9YuSl36kMbNg9xOmk66RnfqNL3x5PQ2evD1SFeBxai0f8Ky9WM71+eYI2Vln+A4eO0JTlW4kzYKPEm4BfOwdW1B7WOd/GkZMW5iUpc7JSve9g/N/TTTuz32G0GhOzd0HG70YrfXA/2gSkMg427NhHn05cQR+JpE6cHCbbwuHVOGmU3g8839O7nm2fbp6PW2jKzyY5X5VKjXecsv26eRfwDAj8WxjXF7w+lp7JO4sEIvEl4PXC0G7xu+n2d22PiJjX+/nfiXMEWB1YfkiV/2Wd+N2Oe1kfgI6mBhmsg7i/YtLpJ5VxcEgV+eCI6SfFHsc7RUQEThr14dhlaQ/wilzv50eR1darvV6yrzV+ibl/aPY9oIU4EfhobDiJk+LE0K4ufrl9mPX/7bTc7OLInGtGCff0CHDW9BFicm+nsCGh5170Td77l2rjxWEL6X/iXBbXT5UPNL+pdvpT17EyPpy251V93j3RS0zHeRNkKma7DDLJCVmiS0Aq40BtHH8yfgXtyDJiDCey4vLKyEVpI7R4426xo7Bb2bp3E4ot2+HGBzuXIIdw5ZjNYxdvykfqgU2Y7fBI/zyfkVi1dY/0csZBwNQqLGeL1ZtIxUFH6BAeAa9/C/h9/X2BvXM0nJjzzq9m6Cuv+jF+ftgC+vun00T4UYO6+i34ctXvBXTW9T6RhyGMYvYuyGpMhcEJfQZDQNpoRZwHgCfv71zVSZcEJ3ZZv2M/NaxSJu0+uwv9KX7IW9cul39dO+FUfwj9/rLRFR4XFQLnvzZW+S/HbUZxRmDnvoJVvFmrt9PLwxfSjSc1ohJFizhrSKLabt0hglCBs8VyySlZLIju0AcIuCLAm+92d7t4N0CvGJ1g+mnmWnpV7wEX1/hcDbvqVC9X0tHTbiIjmXXAchQvWrBGOnoBfovMeOFecghItXMwbE76YdRhc40Pp57yf78R/2NDQF1eFJY/++teKbIS2yl+T0j0dia+ygsBZ0e+pNXhmNknPzMywxUsaRyc6Ms+v8/+uoDeHbPUyWOo64LAjFXp3zcumsAjIOAjgWgsd3Gc/q4iR8KrYlefw4baLV4ffm5632DiHRT+3Wl672Cas3aHXVF8rbf/0OG09rULnL52jsZBQBCQyjh4UHXIyWp0eNeAy9DZuWneU/XfHp07QZpg8oUT1AftBWGodHp8mK4qRqszupUjcpETh63YnJ27yxAxnstEG07ehYjg8VRMvXf46SHzLflvEXH9McH1dCjQGAi4JuD174De94Ib4YIyMfjQPYcNDbN8MmGF4t56QKLoYC8PT3eF9uIMZpiM0Xf0CEhlHHiBz8o3j1cppqtW/1JfgrzqyjsRa7fv9UIMpY0XxEEunowlpXQTK0E9xKo/iv8EjN7z+y3CAPMYnf3KH45W6/zXJjo9BDVpckuE3S05KRvCoLolGO3n9okV52wPCzMBv3fUZaM8U7hmhl1+nlmw0DlKc25k6grsWIY9PknrX3rj4F8iRbuRb2Tul5j1kKXOGPBEnVcp1AerUistj/44h5Zu2k3PiNVXbeEfXM44qecipK2b5L93i1B4MhT2I52zZkfifuCYPb+rZiW1OjZqgb2IJmZt4Z41gd7PjVJCQwZVbvxoCl0mVkFfFGdQUJJHwCuX1e8CTuzHUYL8KDx3uP5DuSIN2dFTBmPFjpyoE18C0hsH/GXHkRKsyrx1O+gLkfXRbFt1k8jCa1UOqsKppuryjy2HPf1o3DKrx3FfAgK3fDKV+r00WsmXEdfCu1J6hV9fXvXjRIKfTDDW3+v46nqyOL02b91Op4/4Xp/DK5/zypj8fpy6gSzcsIvUYRB5bCaJhYZsI7EZKZ463K8XjtHoGVwPj4BZhBo3Uu3en/0k22wxzo1Mdp5pfv8QGjRumZ2qjurw3GHY3OCMc0fCoTIISExAGuOAV+btlM1igj9k1tr8qqkv174vjFZ2BPaLVWMnxcg9Q93GtLwtvc8nr0prmhN3sfGyXRyuQvGegFvXiNRB9nfGLFGEGjR+Ob0xarH3AobY4q+aw/spUXjyyRNENozu/TackHwhYvG8a57IT19V4HKQrQHDOQwuEgsNZ71cYHB4LjQajAwBr410bYAOP0DYWWRz0+/938/Of2zjzv30/h9L8dvqBiSeAQEPCEhjHFz9vr2tP/aXvvnjqfmqm+0UeMDHtIl/C2OE3Z5uGDTZtF4cb+4VLkTnvfYHveSj+8LnYicom3JE2InsCna/iFs9cPA8Wr3Nu/Mk2cjl57O8c7Bjr7lrkZ/9x61tzoeiLnYTTBlx+HFG7sLG8ryD+wvX76SbB02huVlGSeEJmzbCiZEMuB4ugW17DtDBvMOvXu8cBKHZJW+N972bK9+bSA//MIfaPfILPfdLpquv7wJI3oHTHUzJ1YF4EhKQxjhIfVlaMfJ6gqc1LsxWq7UfSI77zEUvFBv/AJgVHe8lpTpH+4nC2QZ24eIdledECE2/yry12buZqA+Q7hX++MyW3W3YDS2OJWkHCf0ew7Xb93nahfY75AoRcpkjdJ3+4mjX/azcsoc6PTaMeonzDaki+8Fp18pG/ME1YoHi2Ed+pX5ZjHfYCBYJVzm/i9pYfmlEeuQev/tG+yAAApKFMvVrQFIGgPaHWa+/wbPWKT+yekaI3R9c9ifmHwCzYpTDgaP93PX1DOIfkf+I+Mu8smhVNuzcR0+LpHE8SQiq8KFfv4vTVbXlm3fTPd/MTBNLO1n+euoqxd2G3dCmLLfnyua3nl62b/cd9bJPtEX0noh2du0Hk+hu8dk1K9p3mnNUpMrsNdtdGa0pF7OVW+K/M2bGNgr3Ut/7fBYl7GK0QGUm14Qlm81u4x4IgEBMCEiTIdnPSU3qB/mNUbk+6FZjxysjj/80h167rKMrn8dsV7z5HAP/eEwXCd6+nbqa5j7a11Tkv30yjSYK3+hvRN3x/+lpWjdKN9VZgO3Iffm7E4SBVDBBYsMg/b0qROooEBe8Hm58bTs6Oa2jjYe9QUw+OatvqeLpmZP3+hQdxKm8XJ9dYvZ4cJDSTd9ePfOIiHZmrxQsUXDIUXU54yV75xAeyssH89DZrex1iVrSELCzQCWNsDqC9PfZpYhVPg89AAAgAElEQVRd477UnO1LifHOaHu/3zpi4xIIgIBDAtK4FZm587BOu8XhX+2PqV1dN+06QLzSzavG2qJ1K0rdT0V9+HzyCu0jgfw9Ky/usp1JHBsGXNSrkIs27KTbP5tGizeGv0LlFhgf3nRS9FZO1ZNlNhKNxttJPzLX1erXReQ1OH7g8AyROa8Hx9LW7qxkVAzgArvExD0/xlhhCDS4+ycROaUg6ztHQXNaOPgBx7Hnf1aui07bRv0ACGi3jgLoMkpdfCje6/vEGTG98thPc/Uu4xoIgIAPBKQxDqy2OFs9OFSJ360t2rVh7f3U39pMykb1Ute1K7Cp62xkcBSFIPwurWQ0u9//zfHEsaovezud2eiFG+kXTVZps3bs3OOcAlsDSvbGEyLthHa9WB1/XufsAxtL36vidfOqnd33xY7eMtbR+xxtNYimdZU49PebJtmOjDrFQaYBOt9dbvQ6xKfs88phvcHOu6c1Et30hWdAIGgCRlHYgpZD9v5Gzt8ou4iQL+IEpHEr8puj0Q+p0WQx9eOq/pHlQ1KtHhwiIk3kOquoV6J5wloob1XIi8OuRvJaceJQdu3qlKfNeZN19W4Cy8gHILlMurcXVc0pYdWcrfucUyCIMlysul734WS6+vgGxC4V7P96q4hjvUGEvdMrPHdSJ7zjOpg0pZMaLxie0qyaHj5cAwEQ8JiA1q3olZE4bKtGPGnZVo+Jx7c5PmNXv3KZ+CoIzUIlIM3OgVsK2caJdjpZTBkGLK/6WXZd4sI+3g+o4jW71Uv93E5xwLnL48NshXQ799U/qKNw07Aq2/eaR1Oyej6o+19MWpm/S/OkCEfKhV0quLChY2QYBCWfbP2wAbtqa+bBdD60foaOEZft50c2/ZMkzwxV/oUk6R1lXdVeRXwAfZvBrl6UdYTswRBwmtMpGKnQS1wIRH7nwGjl36sBsntQ+ikRLahy2eJ0clPvV2FPfGokbd97kDik2zHVyiqT41cHdKBaFUrpqrklIBcf3c49vsiRm7gsG3iGcm5EXQ7kxQq32yXv7CTB5TdlRKm5PP/rQpot3L9Q4kNgpY4RmNJO63oXH63jowkMg/iMZRiasOsz5xvaKlxtjeYCYciFPuNBIPI7B3aHwciIsJr82/Wl5whDb4poSH6EE2XDIFVu++xPJb/Awz8UZJO0YvCISCazbFN6MienOyZWfQRx324uDDNZoqi3mT527yFBll1S0amndVHRSs6LBJxpFkUeAuqduqR+F8kzGtGWhI8fdX96hAg4MYJ+zsu5FG2NIL1MBCJvHMwUW+unPvubJVOnX8RsTPDq25u/Owuftlsk2gqiOAnz+Z44QH3Rm+Mi729/yOQAph3mVpMpO21EtU5hgy0Tg8tRVTOWcrNbYcpVTO8skt4Y8kelw6O/UmfhjrhPorC1sRwgB0qpx4pDL6OAgFsCPEdJuTPf8slU0vtucNs2ngOByLsVjV2cXVIWo+33PxZtVn5YnZZXRy52+kgg9bUriHoTikAE8agTJzsnHnUZ6WYKG1hGTo1mLyFwssCx4nOGYk6AJ/l81ulffZrS//1SkJHcbNdT7YLHn/26lUqbd4K7gRAw+BgG0jc6iReBQ3mBUVJasZtREcIbFq9RDk+byBsH2aLjH1ijrKYpq9xJH5zQKYiS7aQu2+f5MF3QRS3z+38sc9x91A0ixwqrHpAx9O6170+iycsRncRqXFNBENSGAT9jdxrAuVIGjV9OvVpUo5rl9c8pWcmA+9kR4FXdx0RizcUb0907s2sVTyeZwKO2Ey8mmRJ0d0sg8cbBR+Jw72ciIk5Ui9HOhx/68EpvOZFtlwvnUAi+mK2VWkvD8f4nLs1NGGddO141popzKrIVGAbZjwifJeHEUdqiPmM1UET5GjFvA704rARNvq+Xtir+DoAA+4S7WdAIQLRIdDEYPvUZ46T9/lQvnvG8gA3SokUi7zmeoTcuBEMgMW+O0Uq5djUuGOzZ95JaBb9SJLKyW+at22m3akY9zqjb9qFf6BudLNMZlSW9wBm2F26IbsZoP7AmeTfFD55Btnm/CJn8rHAzWrY5M3StOuTyb/M3KGIFtasZJIOo9AX22Y3UX4RPPYo5AfWCwPUiH1CXJ4bTrv3BnIE0lwx3o0ggMcbBxxOWR3F8LGUevXCTZZ1UhQteH2u7rrZiagvzH19M194K7G8jA8+uAEHustiVKex6BzXhYcOWB/07I/CWjYAJqeSMzlpGbRAAgSgRGDF3Q37UouFip5CjlY0U/0UBATcEEmMccPjPOBU+iO10VYB9j40Kt2U33OXZr4wxakbq69lGO5JaOZfCvSN2hFBAAAT8JWAULczfXtF6kgjw7gpHLVLnOcLOcJLeAG91TYxx4C02OVpr/eBQTwRhw4DbOu7JEbbaCyMz67UfTKItItlLNuWFYQuzeRzPgkDgBI5kGb6XBbZ7cDlw5RLUISZpCRrskFXl0MepAqM05MGIcPcwDiI8eNmIPuCdCfTZxBVKE7NX50YekjmzMh+ozNatKBteeBYEwiCwH25fYWBHnyAQWQLq30mjENaRVQ6CB0YAxkFgqOXqiGOf3/3NTEUoDxYn5VIO0oBATAjc9PGUmGiSbDWwe5Ps8Q9SeyTXC5J2fPuCcRDfsbWlGbst/DAjjLCktsRDJRBINIHfF2zMWn+ctckaYfYNwK8oe4ZowRaBVVv35tdDMAJbyFBJhwCMAx0oSbr01ZRV9N8Jue5FKb35YHL/N8eJMInzlUuI8hPvN+Keb2aIDLxH4q0ktFMIPC4ScS3a4D6kMTCCAAhEh8CabXtp+96CMwjRkRyShk0AxkHYIxBy/+OWbE6TYJ+IaDRk1jqaIJKFvTxikRL54BXxX5T4Evh04kpiIxEl/gTeHr2U+r4wOv6KQkMQAAF6+Ic51O7hX0ACBBwTgHHgGFm8HtDuCvR8dpQIaVqwinzH53/SG6MWx0tpaJNBYMlGf5PDjRdG6Jt4jzK4h3GB3Yx+mb0urWv+HuCFARR/CODMgT9c0ao9Atv3HIQHgD1UqJVHAMZBwl+FYSJxirqsFtuQ6jJGZBVGiT8BXlHmMl9k0R5lw899q9hRsuOKNEtEwpq8bAtd8tZ4enLwPGWHgieiM1flRsiKP1k5Nbxx0BRSf9ZvFgefm98/hG78aDJt2LlPTqEjLNXRCMsO0aNPoN0jv9DxA+2FKo++ttDACwJFvWgEbUSXgG4iNdUv2WGxyrj7AFYUozvCziQ/7YXflQeG3t6DmtXI0X2YJ5UniB+aRlXL0Ih/nqxbhy/yWQZ2WVKXR36YTcWKFKLbPvvT8DncCIbAYz/Oodcu60B8aHHo7PVKp7/MWU97xOf94+u7BiNEQnoZMTeXb0LUhZoSEli7Pd3o50WAGz6aQt0bV6Hq5UvSxZ3qUImiRSSUHCKFQQDGQRjUJe/zrq9nSC4hxPObwKINuwyNg+F5E50lG3crYrCBef5rf1DPFtXp332b54umNQz4xo59h2AY+D14NtsfLM4W/b5wE53UtGraE7PWYFfHJkJb1SYIl7qR87OPOmWrM1QCARsEePe22xPDlTDm01duU57YJMKb39G7qY2nUSUJBOBWlIRRho4gYIPA5l3782t9O201vTBsQf7f/GPCuTH4v1r/6c8nraQF63fR678tprlrd6S5q9joFlVCJLBaFfYwRDFi3TVcM2M9vJFTjnd+eWFAm99owtL04CRDZq2l2z+bRnvhORC5MfZCYOwceEERbYBADAh0fGxYvhbDxO4A/zulWTVqV7cCNbtvCB0Q4U7PaleLWtcql6btIVUY1NNfzI2Ec0P3hjEgEn8VVm/bk6HkNnF40axwaMTSxYsI9zDrtaW12/fSNe9PoiuOq0+Xda1v1mws77Ex/dbvS2KpG5SKHoF3Ri+hx36aqyv4+CVbiPMeFc5Lq3zzx1OVesdULUu39myi+wwuxpeA9bd7fHWHZiAAAhYEtuXFyGbDgMsP09coB4utSuqAs1U93A+XwKsjF+vGQedJgl5Zv2OfEhoxZQTq1VFfe0q8K/PEIfd7v51lVTU299lN4+I3xtG0FVvpV3GGQx39LTZKQpFIEjAyDFLK8I6xtmwQO8YoySMA4yB5Yw6NQcBTAvrTSE+7QGM+EtCLg37ZOxN0exw8c61ync+k2Cl8uNlu4XC6Y8QZiKiXaz+YRBNFhK7zXhtLTw/NTSQZdZ0gfzII/HfiCmX3QF0GjV9Od345PRkAoGU+ARgHeBlAAAQMCRwUOS84KZ5ZGWhjJ8HsedyTj4A6OaJ6smC0I8Q5EkYv3Eg795m7JJlpeqrIsXL5uxNodsQPRG8WYX5Txa4RZcYF90AgKAJTlm9Vkp9qy5dIkqlFEvu/ceYg9kMMBUHAPYHrRdx7s/Lab5k/JGb1cS9aBDjc6ddTV9HnNx1HTavn6B4251XF1OShbZ3y9L+/nZiVknPX7qRWtcpn1UZYD+8WkbtQQCDKBJ4XgSj4rBBKsglg5yDZ4w/tQSArAk8PgdtEVgAlf/idMUtpqzig3Of530UI2mlp0l7z/kQlhK16VXFGXnI7PrTMOw4ihUJGGTFvPT33y3zlPv8bOX8DbVJFyrKThC+jUUkuPAM3IklGAmJkQ+AzEYFOW7RZ1bX38Xe8CGDnIF7jCW1AAARAwBMC305bldbO93+uSfvbKHY/u9L0em4UtahZjiqWLpb/zLx1O6h5jXJ07Qe5u1F8f6fIe8F5VSqVKZ5fjw+9n3tsLSVvRtTK5OVboiYy5AUBWwQ4q/qygWfYqotK0SeAnYPojyE0AAEQAAHPCdzxubtDiGwYcOGcF2MXF8RO7/vCaJExe0W+nDNWbxeZmXPPs2xR+elzhes+zHRn2yrqcGjQVOGzMJyLQ30t/yb+DwiAgO8EOPfNl5NXIheC76SD7wA7B8EzR48gAAIgkEgC93wzM19vTppntwwTIUH5/MudpzWja09oSO+PXUopl7ZO9SvRiU2q2G3K13qqlB++9oPGQSAMAs8MnUcc/vj2Xk2U3b4Hvp+tiDFTGPqPnNM6DJHQp08EsHPgE1g0CwIgAAIgkD0BjqCSOhjPPv18CF591uW+72bSBpF/gSMmvTx8Ic0SExW9wucbxomdjB1ZRFTSazd1bdueA8puCQoIxJUAGwZcXhi2MN8w4L8/GrecvhIRjQ6I6Hapclh83vgfl9xkgItjEao4X8GY/59CYtCkCFPe4O6fYo4a6oEACIAACNglwP7N/PPU8J6f0x45qWlV0h5arlm+JF3erT6lDgT/9/qu1LVRZZqzZgf9PGstdW5QkUbO20gcs53Lw2e3oquOb5AhCvdXSO8UdUbNzAu3fDKFfp5pHvY38ylcAYH4EGhavaySUfmZi9pR6weH5it2QYc6StQzLji3EI3xhltRNMYJUoIACIBAoggcFD46Z708JkNnrWHAFdZu30dzVKv2AzRJ3F7XtPLg/2bT8Hkb6IEzW1LjamWVu6mQrL/e0YPqVipNJYsVyehb78KzIvLSii17YBjowcG1RBFYsH4X8b9dmpC+KcOAYWRjgCcKZsjKYucg5AFA9yAAAiAAAuEQqJZTgn6782RhGMygn/KyP7MkJzSuTJ9c381SKA7Zqpdh2vJBVACBBBMYd8+pVLN8Kdqwc5840LxKCWXMhrrbXbsEo/RNdRgHvqFFwyAAAiAAAlElcEP3hnTvGS11xR+/ZLPI1bCA/t6ziZLVGQUEQCA7Ap/e0I2OO6aysrOw58BhKl60MBUrgmOx2VF1/zSMA/fs8CQIgAAIgECMCbSuXY7+c3oLZdLyiMgW3aZ2eSpXslj+AekYqw7VQCBQAi9d2l4JJvDW70uUfnNKFqU/7j6VdolcKEs27qalm3dTn5bVqXq5kvSriF62XgQhKFq4kBKI4OLOdamQ+F+p4vZcAQNVLKKdwTiI6MBBbBAAARAAARAAARAAgXQCJYsVVg5Gf3htF/pzxTaqItwHR83fSJXKFqfPRK4Vjjnw2oCOyt/7hXGxautepYGm1XNgYOShhHGATxUIgAAIgAAIgAAIgAAIZEGAjZJ9BwvCuVYWuSA4sALnhChfujjVqViKpizbKoyV4pRTohi1qlWOGlQpQ3z2id2oypYoSp0aVMpCAu8ehXHgHUu0BAIgAAIgAAIgAAIgAAKOCbSoWY4G39bd8XN+PIBQpn5QRZsgAAIgAAIgAAIgAAIgYEKglsjRUlrsGPCuQ8MquWGVTaoHdgvGQWCo0REIgAAIgAAIgAAIgIAMBP56yjE0fO4GmrduZ744F3WsQzed1Ii+mbqaOjesRGWKF1UCEfDkfcfeQ1RC/Hf55j1UQ0zqSwhXoF/E4ejWwj2I86JwMkY+v/DHok1Ur3Jpail2AnJEAIO94lwDR2Hi/x+VAreiqIwU5AQBEAABEAiVQO0KpWj3gUNKlJRNuw6EKgs6B4G4E3hZRDC69dNpaWqee2wtOnTkKPVrU1PJTdK5fkXad+gIzRbZ0LftOaAkJOQM6FXKlqDWYlLPCdnWiSSJqWSHcWfmlX4wDrwiiXZAAARAAARiS+DpC9sSryqqEzVNW7GVznttbGx1hmIgEASBa09oKCby5ZQIQ7PWbFciC13fvRF1ESv3vOK+ZfcBqiwm+8iuHMRo5PYBt6LgWKMnEAABEAAByQjMe7QvPT9sAb05Kje+OovHhsDFneoqki7asEuJMsJuA9rSvl5F7SX8DQIgYEKADeynLmhLjf7zc36t+89skW90t6tbgS7rWj//HhvjbBhwQQZlE7Ae30L6OY+BojkQAAEQAIHsCdx5WjPHjZRxkASpfKlitGzgGcqk/x6R6GzmQ31o6ZP9lH8pw4AFYHcEPcPAsXB4AAQSROC5i9vRGcL1h8sT57XJ1/w+kXW8sHDLG3RdF+XadSc2xKRfwvcCbkUSDgpEAgEQAIGkE+BJesN7ClYXORb4hp37TbE0rV6WFqzflVHn/jNb0qMiw7G6sGHgRWlw909eNIM2QCBWBFKfr93C57+MiMbD/+VsxqldgFgpG0Nl4FYUw0GFSiAAAiAQBQLnta9N305brSuq1oVg4r296Ig4iJhyR3js3NZ033ezlGdPbV6NXrzkWFq/Yz/d8smUDAPhmuMbUOcGFWno7HX06sjFNO3+3rp94iIIgIBzArwzMG/dDhG1p7yS8IsPAqcKGwZc+L+p/++8BzwRNAEYB0ETR38gAAIgAAIKgRt7NDI0DvQQsTsCnxEQbsg0b21B+ME3r+hIxYoUVkIFfnnT8dTukV/SHufn2tapoPy787Tmek27vnZX32b09JD5rp/HgyAQdQK9WlSjAV3rRV0NyK8igDMHeB1AAARAAAQ8IcCuQE6KCESiW+7t10L3Ol9k//8SRYtQETHhTxUOLZoqHIc8VbqKaCdf3nxc/t9+/J9bTm7sR7NoEwQiQ6CqcPlDiRcB7BzEazyhDQiAAAgEQqBGuZJ08PAR2izCDKaK1hXISpAjOtbB1cIF6Aaxo8ClX5sa9PPMdXRm29yDjer2mojzBTnCVaGicGNQ98vGw4+3nijCHhK1qVPg3mAlC+6DAAiYE5gkXPuWbNxF/d8ar1R8vn87OqddbRwoNscWybswDiI5bBAaBEAABMIl0FH48N9zenMaLCbvW0XyoWY1chSBbujekN4evTRNuL+f2ph6t6xBZ70yJv86JzPiib22PCQSGKXKMxe2E4ZBLTqpaVVtNWX3YPL9vagw+xhpitrnWXvPj79fGdBeOctwvjhD8fjPc/3oAm2CQOgEeIdAvUtQsXRxJfIQSvwIwDiI35hCIxAAARAIhECdiqXzV/lTHd4rQhVu23OQvpyyKl+GPq1qKIcU/96zCb00fCHxQWTOJcDnBJ4WMc8nLduiHBZ+vv+xaXLzAUbOhGpU2ECQobABw/9+nbNeBnEgAwh4TuCYqmUy2jTwCsyohwvRIwDjIHpjBolBAARAIBACZ7erRZPFxH3N9n1Kf7xIyFlLxy/ZIhIVGR9AHCgm/NeK+OWnvzhaeY4jmHC5o1cTuqRzXapVoZTyN5eLxd/8j40Fp25J+Y1I8n9qq/SSRCSIAQKeEOBcINpSrDCOrWqZxOVvGAdxGUnoAQIgAAIeEeCIQLPXbKc2tSsoBsHKrXuVFf+/nHwMNapSRsk3oJ7ga7vlw8ItapajD67pTLtEfPNUXZ78Gz0XdcOAGbSsVU4Jqzpi3gYtEvwNAtIQaCk+m3PW7jCU5999m9NTQ+bl3+dEgL1aVs//+3ph+C8QmcOPO6ayYRu4EW0CSIIW7fGD9CDgOwE+3Mm+4cs376YBb0/wvT904D8BHtMzXy7w/1f3yJmJ/3pKY/+FiGkPP0xfQ7d+Oi2m2kGtOBC4oEMd+npqgdufVqdFj59O3Z4cTpt2HaATGldW3P2q5ZTUVsPfMSaAnYMYDy5UAwEvCLCrBBsH/N/pD/ahdg+nx5D3og+0ESyBhmL136jAMDAig+sgEA8CR+kotatbgaav3JahEEcLKyrOAk2+D4kCM+Ak6AIcxhI02FAVBLIlUL5UsWybwPMSENAJ8COBVPEQQc320XMKIi/FQztoEQcC9SqVps9v7KarijpamG4FXEwEARgHiRhmKAkC3hFIJZxin3KONIMSPQLa8J9/E25EHKLwEUxmsx7MSiK8Y6pc1Klu1u2hARDwmkDp4kWUZIKpwmcKUEBATQBuRXgfTAlw+LLFG3eb1sHNZBEYcnt3+mLyKrpJJKr6U2dbOlk0oqmtenX72Yva0fkdatM/+zSNfLQgGUaDD2nyZ6Np9RzBUwaJIAMI6BMYfFt32nvwMH0+cSUtEgeMUUAgRQA7B3gX0ghoQ/EN/+fJIJRwAmVLpq8hNK6WQ//p14Iqly2hO/l584qOxEmvrMqLl6THtLeqj/veESiimrVyFBKOFBSHaEHeEXLfEnO8R3w+LuhYhwRV9w3hSRDwmQDv/naoV1H3e9znrtG85ARgHEg+QEGL98fdp1KPvGykZUUCIpRkEHj9sg5pinKm12n391b+caIqo9KxXqWMWyc3q0oni3COVuUskTQKJRwCfOCQIxZ999cTCOdI/BsDPviJAgKyETiqeS2LFoERK9sYhS0PZn9hj4CE/T93cTt6e/QS6g9/WQlHxx+RTldloa1Quhg9p8lUa9RreVF3xkN9aJ1IktXn+d+Nquleh8uFLhbfL3ZpkGvQccZiFH8JFEWSKH8Bo3VPCHDm8jELN1H/zsaJDT3pCI1EhoDxkmBkVICgXhOoItxFOBtio6o4pOQ1W5nb++T6rtS6djkadG1XR2KWK1mMiqt2F3hVCutQjhAGWvkYHD4MjDcng/te7M6ggIBMBM4+Nn3XlnMY/HbnKUqSQxQQYAIwDhL6Hgz7x0nUrVGmS0hCcUBtQeCExlWEq0l3alMnmBVl+LiH89rd0atJOB0ntNeGIqgDCggERYANUrMy55HTqGb5UmZVcA8EYBwk9R3g0GW392pqS33OkIgSXwJ2Dg9baV+9XEH2TD6joJ7488Hj1DkWbTudG1TUXsLfPhJ4/LzWVE01Vj52habzCJhP1YAJBLwlYGEbUOni8Cb3lng8W8POQTzH1ZZW3RpVVvzFcywOHmsPL9lqHJUiQ+CO3vaMRDOFSom42RP/05Om3NeLtCtXZ4qDxz2aVNF9/NTm1XWv46I9At0NuBo9XQw+8EZofLuOHTLf0KJhHQJmEbKuP7GhzhO4BAKZBGAcZDJJ1BX2F29kse3dOe8AY1TBvHd1p6iK7rvcFcWBYq8mL7wizeFNtYVXTo36sFrl0raFv9MJfHhNF0dItL7Gjh5GZVcEjmJ1xRU3POScQNeGlUzDkl7erb7zRvFEIglIYxzUqQgfODtv4HkixKTX5ZUBHeiMtjUND87JdkgptVp63xktLFHwAVusThtjMpq0Gz9h747alYKjElUvl2k0cEvaTL32WkctJsBGfWEH1tXSJ/ulZUUFxWAIIJhpMJzRC9EpIoS0XhQ4DknN5wwbVMH5F7wn9ghIYxyUgR+crRF7XifE5CsD2tOtNpJOGXVQt1JpelUYCO3qVtCtwmnWTxSHVWUpz4pQq/Me7UvXd28ki0iRlSOIVU02QIxyZuj9kEUWZoCC92tTI9+YT33237g8PVcFi8NJDetXLk3/QvbjAEcHXYFAOAR4UeamHukRh4qKBYSKZYoTnzNEAQG7BKQ5mTLwgjZ03mtj7cqNeioC7epUIP738ohFvnHR+pH71pGNhnm1mQ0WFHkJaCf9RjsURtfl1Swcyf4hzoXsO3iYmlbPEe9+YerVojpxIjMu/+zTjO4QwQX0dhFuOeUYuqwrXAnCGTX9Xjnx3Lmv/qF/E1dBIAsC/L3LOQt4B+HPFVvpoR/m0KuaBJdZNI9HE0RAGuOgvUjhjeKOQGlxGHTPgcMZD79/TWe65v1J+dcXPn46fTdttQhh6jz60MNnt6KT/++3jD6CujBWZG4+fuAIx92t3rrX8TNJeoAnnX4UPsuiLkYRW4yu+yFTlNvkH3yzomcYcP0j8GkxwxbKvZY1y9FbV3SkGwdNCaV/dBpfAn1b1VQCQhwrvAD43wCxMFC8qDQOIvEFH0PNpDEOYsjWd5VOaVaV+onMtnwIdO/WPfn98RmBc4+tTc1q5KTJwCEmL3KZ9Zh9FZuL9uat2+m7XnodlCtVMNks5WDXYOueg3rN4Zog8LtIelNPuJz4Ufh94TMhlcsWV5rX7iSk+jS67odMSWwzCLexJHJ1orPaZXamiA7Hk7U+rWo4aQJ1QcCSwFRxrqCScB9SFxgGlthQwYAAjAMDMFG4zJFHzmtfRxFV7Z5x5XH1Y5Xk5HxxCJt91l/P2x4tYxF6NQpjF7aMnNHYL8MgpZv6TIhReD0cSPb3TTiMrQN/AdtonVdyOWQ0By3K0eyo2XgcVUDAFgGtYWDrIVQCAQMCkfQsI10AACAASURBVDEO+GDd6m3yu4jwod7pK7cZ4Pbvclp0GMp01ri0S13/Ove55ZtOyj1gdbrYJUGJJgH1DkHvltWJQ+5xwc6B9Xh+dmM360oGNWAbGIAJ+LLWzS7g7tEdCIAACDgiEBlntCp57gkp7U5qWpVkzK5aRvj/s69fEMUofLbehCvquQqC4Ik+/COgNlffvrJTfqSpTDPWPxmi0DL7o6sP/38gzg25OSOU0hVuRfKO+p2nNZNXOEgGAiCQaAKRMQ60o/TuVZ3odhGhAyWXgNogUE+4Pry2C/3tlMZ0jjiDIGO5pHP6jsaFHXPdpNSyHiXjU5VWeR9K4DCW/rAHPCs3ikpkdF1f6PhfrVWhJM19pK9rRTlsqbocMVpBcN0DHvSKwF/F9zIKCIAACMhIIJLGAU/4UmH8nEB9R6xY2i1udyV4km48lbXbu7166QaBaran+r+8w/IvsUIlUyhStXb/0SQyY5cTbTGb3zx7UTviSEZGhfVHySQQsG2QfzBZKwnOHGiJFMoquggnOmL/9lQ5fETbPv4GgWQRqCCywMe1IHlsXEc2fL0iYxz8Q8Tyzrb0EhPPM0UmYKvCP66DrutqVc3z+5ysJFWOU4Ub7VCvAnG40ttMwhnquRJ5LaDZJN2LvvhcSUOHGRw5hGMt8ZxRSRlF7MpyBVLHG2Hy/TrH5+foRS9f2j6tr7IlI3PsyXdG3IH2c+x0Z4Ujkqn926vl6GemDkQZdAICEhCYdG8vCaTwXgT+vUS+H++5osVcApExDo4/piA2v/YH1OvBzObwmDYqy4+3nmhbPPVEiXW8+/TmxKsez158LM14sA/dYRKTXr0SrJXBtgAhV/zqL8eRyj7Kl8apUcLhAjnsKpfzO+S6KfGOxANntQxZQ3m69/szpKcpRy86q12ttFvd8g4m69XHNaKKLlc9eZf0+hMb0rki0hcKCCSZABvMKCAAAs4IRGbZTs8NonXt8ra1beBTPHcrAZzIqJ4E8+TtZhGl56YejdLClFr1x/fDmPjZkcuqjpFR49RvmsMFfnvLCbRs8+58I4H7hgtLwQgYsbYaI6/vc/g9oyR+XvcVVns8weckhfsPWfv4pL7nXrzkWFolEvi1FZnP3RTeJeV/KCDghMC5Ijz2d3+ucfKI1HV5dT3OBQEH4jy64eoWGZNab3u9vEiM9ecDvemG7g0tKf5yx0mWddQVrCbYpslFnC51m0imp7de9ZLC7ShVjkQ4fqEeOjdf8KUEjxYi8ouan96uhB5LXAuOAJ8dmiY+w42rlQ2u04B7Yh1nPnSamOinL2aYRavhAAI4sBrwQCWwu2UDzxDBKgp283iXOk6lR9MqcVInQ5egzjdmdIwLsScgrXFwaZd6afD1dg64QoXSxdP87ni1Xa+kJvN2J9uWq8wGn0oro0JPttQ1tcHhdGWXXaE48s/prWtQ1Zj4GY/450k05PbuVFGT9dGModk9u2Nv1kYU7l1zQgN67uJ2VLeS8apZNu+p1wxKFC1iy8D3ut+g2mODlz/b//tbgYshGwp6ByVlGpeg+KCfcAmo3W6sAlfwjlaUSuy/8w3mIVEaI8gqJwFpjYPzO6T7ytr90dT7wXWD3sgYsdNWWJ/XgRe0pdcv7+jYDcmOTlzn4XNaKVXNDkbbbYvrWf0Q1a9cRrgFlXPSZJobkaMHY1T5wbNaKWctRt9lHMVJNnWdGsOyyW8uj/1vhHhzMKeEu/ITKCd266NUsvkdj5KekBUEvCYglXGQUyL3CITeBN9sBUD9BaB2S9EmTmN49UxWU9VwLXcODEbCTE6DR3Qv2zGGgp5IcDKmeY/2VQ5Gl/MgysxknSgS6mmUky/21DujlydBF3DCLzphm3BUUB8EQCCPQAmfD/f+9wZvowTa+R2N8uDaX3aIspaQPQwCUhkHX9x8HPURh+g+v/E4EaWjuC882I/3sq71qFSxAh99vY7C+FIpEkanesqbXEuFTvv4+q7URhwI//SGbia1zW9ZuQs5wfHLHT3otcs60NXHNzDvNMZ3+fD6r4KDuugZ2jFGIKVqeudoWNCuOpGanLzzUioLoSJHwMlCAYeO9rMcf0zmGYFsFnzcLvL5qSPaBoEoEJDKOOADpG+JEHzNRBhKPqDo5kuhicXBxtLFi9Lj57Wh41ShUfUGincABp7fRonN7qTofXUWK6J3NbNVn793MzvM4gpHUflBhGm14mjVRRkxHqlSsYz7LetqOSWpX5uarpLjWckYhfuvDGhP9/RrQU1EPgF1YUP7tFaZUWu82uGKAhuZZEyFJuXkfI2r5dDQ23vQ1Pt754vYXuQ0QQEBGQn8q0/TQNw261VKz/KtXvBRf1bsMLL3y2unJTnrIFqRnOMSB6mkMg60QB8+O9fHXXtd+3e1ciXzL/VsUY0eO7c1fffXE7TV0v5Wh8dkVxkO4aYtl4hD0RybXbeYfOtoVwo/ExM0Nnysit+rMlb9e3W/mWaCatYunzuYLnI4TH+gD/HB1KplC5I2YQJrRq7gXlnhjndm28z3l2uwof3mFfYzg9vr0YdaJp8nH3pz3eRPf9fPW/LtLccbtqne+h98Ww/6P5HV+2+nNlbq8/hwOFfe8XlI5OG45oSGhu3gBgh4SYB3Wp0UDsvNAUD8Lh3rV0zronLZgj75s+KkZJNkUR3FyUmfQdaFW1GQtJPVl9TGQRkx6ZkmVtVmPXxa2qhofe3PEhOjRlXL0K3iB5cnlJd3q0/H1q1A2km6uhF1tE8vswyyW8BR8T914S+7wbd1t3yz4rIF+vSFbS11VVfgkLTl85I9savRN2KiZTQJc9QwKhsS0DuPY1gZN/IJtKqln1ulfb30CY0amXohokb5ksqOKBvC6sI7PlcLwwAJm/CyBUWAd1q5OHVlc7Ojn41ONcuXopdEZvX3r+nsuJmbDKIXqhta+mQ/3XZvMFoY1K0d/EWn4xa8hOgxygSkT4Km55eunXzzxHLEP092NA7aXAAyrFJbRe9xpGCIlbP90upgMtHKVq1h/ziJ3h2zlD6duCLbpiL7fCdhrD4hXOZQgiHQqEqZYDpCLyDggkBTBzu93Dy7xH01ZZWLnuw9ot5ErJYXlvtsTWZ1ey2RCJxh7aoqw2+/XX209cwWQLV18TcIOCEg9c6BVhGOscyrzO9f3UV7y/HfNcUKntPy6oD0bVjt4U9u79Tm1eiijnWVpttpkh5Z9ac+c2DnC0trJFm1j/uknGVJol93CRFnn0vnBhXpq78cT04nBH6/O6e1rEGVHboM+C2Tun0+fP9fcQjfSWHXRnZXfFnzveGkDdQFAb8JXHlcA7qjV1ORVT7dNa6D5vxL6jcp28UfJ/r8dufJTqonri7mAIkb8sAUln7nQE2Cs4byCoKdiTM/Z+aPx4c39x48TBd3yp3I2yGedlBKNM6uAOwC8+uc9TRAnE+YvWYH9RbRlnjlo2WtctTSxjkDdb9xcStqVFXubLd6h7juOb05fTF5JS3euNvOqyBVHTvu+j+Kw+MfjVsubdZd3v0b/5+e1OTewVKx7SFWSXmn5e89mziWiw2KFy5p7/g5PAACQRLgBH239cp8v2tWEEkUV2zLECXI1WoOIBJWqc36S14OHTab5UguPMSTmkCkdg6YpF3DwIo6H2x6Razo8Y+/Vbmhe0M6o21Nal0781Axu8D8u29zkY22NPUV2YnZNYgPFnduUIn4zISdcpHwQeZyu1i9SRU7Ez7t2Qs7fQVRp6T4sZH5i1V93iTFg31T24kITKkSpd2FtnX1/eDVY82G7KPioD77vMtaZPS3f+qCNq4MA2Zs5zMs61hALhAIkgAvpL13dV7gBB8+OE5DXPN3pZ5Lc5BMrPriHZxThKcCF7guWtHCfacEImccOFFQb4XYyfOpuvee0ZLYpYgNk14iGhKXK46r76apjGfYlYIP8E4Qq6ZsgNgpOXkJyLo2qmSneih1vhQ5K2QtPfO+UM3k+/YW82hXZs8Gfe/5/scG3SX6AwEQSBiBptVzd4T9WKv+WQTsOLV5ZshlrxDff2ZLRweaW4md/yiUe4UHxJPi/NhnN7nPNxQFPSFj8ATsLW0HL1fgPXJIQTvl5Us70JTlW6mLTgIjO8+n6nx8XVcaOGSuyKXQVjE6qqvCsVq1w4bEzn2HHD1j1aaX91mfWhJvyXLoWw6f+u3UVfTQD3O8VD2UtjjHAwoIgAAIMAE+KzBVxx0oGzoXdKhDHDUoiOLHjjjv6J/SLHdhz44ORSOSdIi9Ey4VLs0oIOA1ARgHeUSvOaEBHTh0RInEYFZKFS9CJzbJzOJo9ozePW7jxybW4U31nmU/zDB9MbUyXdypjvDXL4he4cOusLbLrP/mg+1Fimg2zqIgeNaay91AFZHnYtOu/XILaVO6IA9u2hQJ1RJAwLPfBtUWQXObi2de4PXqc6M9YO1ENm2oYSfPoi4IxIFAvN2KHIwQfxnwocN2Ij+CDMWrL8ggdOHdjzcuL4jklJLdaXbpIGRV9+GV21nQcse5v/Pa6ydz80vn5y5uZ9p0kIcvTQXBTRBwQODzG7spuQGyKepIOOrfI9m/N9ltdMkT/URUOuPcI2ZczmtfW0Rzkzuohpn8uAcCXhCItXHgBSC0YU2AD2B3a1Q5v2Lq0DhHbpK5HLSI9OA0FK3MukI2fQJO3Pn0WzC+6lXwBOMecAcE9Al0Fd/HHNnvuhMb6ldweFWdg8dO7gCHzadVz2YDd9B1Xeg1sVDFv0l2ymmt0n+jLu1Sl/gMl6yfXT5jgAICQRCItVtRlFf9/EwE5seLVaF0ceJwmSWLRcfePHT4iDkKybdvHj2nlXBxM3eDM1dQvrtR/szKRxMSJZ2AvSmyPqX6lcvQLScfQyPmbUgL+W3leqvfWjBXuzv8PtSeb5DVKOBwyvee0ULZDXn857nBwEQviSYQc+PAj7gK/r4vnMF31IKNdHm36B0yai3iutstZ7SxF5nJbntu6lm9HTYXn9x07ckzV4jkRXErVmMSN32hDwh4TaCtw+Sb2v7ZJWnwrHV066mNlbNtd4lQ3erCq/K8I8GZ5r0o2jWY0uJcX1glG2PKT5l5N4PDpauL1rDxs3+0nTwCsTYOyoqT/DtEVJ8oFc7gy//iUIy+vP58oDfxToPsRdYfCtm5ZSNf0DsHVmMMYyWb0cSzYRC49dTMhGZO5GCXJP5nVrz6nB5TtQx9cE2XtK5uE/l+pq3cRhfm5f8xkyPJ96rmlEiy+tDdZwLR8QFxAeKtKzspE+13xH9RgidQqay+ASCLYaD9gdMaMxyZCiXeBDD5j/f4Jk07/r1Tf29pV+Vl4zH8nydnrIhzgtL//e1EujKAnVHZ+aTGS/1bxecqTmxchZ6/GPltZHuf4yRPrI0DdnNhN51ekh+MjdMLpdaFd25kLupoHCyn9u/Hzm1DjcTKFkq8CdhJihdvAtAOBJwRiMqk2kqrVEJRq3oy3edzFR9f35XqVU53M5JJRsgSfQKxNg6iPzzQwE8C2p0DbV8Nq5ShEWJlq2Z5uZKMHSe2/DmrdhyL1kALQse/Ct9qFBCQhcC1JzQk2cNAy8IqGzk6N6iYcZ4im/a8fHbKfb3oB7F7ggICYRGAcRAW+YT0e3rrGpHRVOtWJKvgn4oDgxd3qiureFnJZWWwZdW4zsNWZw50HsElEPCVQDar8kl4n5+9yDw3id3B+fLm44mTLqpLGwdBNez247QeR/2rLORqqNq1DmPRxKncqB8vAjAO4jWe0mlzced4TmKlAw2B3BFIwmzKHRk8FRIBL6OkTVy2NSQtrLsd8+9TrCvp1Dj7WO8TJQ69vQc9em5rukiCRZdUQBL1V1PQiyY62HEpYQRgHCRswINWt0uDSkF3abs/babPbFbsbHeKilIRKGwx6Np3RCrhIUwsCdiNtd/fxkR2uoj6o1dG3+VuYp5qy61Nze6Q0x/sQxyxrk5Fdz7zRSw+s3r6Wl1rViOHruhWn9TJ3viZpy5oY/VoVvePrVvB8Hkf1DTsCzdAQEsAxoGWCP72lEAZcSiZt0llLF0apofrw+pM+KMU9GTc7SQnfFKQIK4EeFLo1XdRGYOIa9qY+U5Zuo3y1U1855YvVSyrUNZ2sx871Umvfv/O9WjGQ330bmV97ZRmVenrvxxv2I564cItb8PGcQMELAjAOLAAhNvZE5A1a3KXhpXovzd0pbF3n5q9kmjBEwJh/AiaGQjVcjIPo3eol7va161R+q5Y9yZVPGGARpJN4MbujTwDcF6H2p615UVDUYywU65kMS9Uz2jjfZHfgXcqnu/vzRmKjA5wAQSyIADjIAt4eDT6BI4/pgrVqlDKVBGvVvFMO8FNhUDQrNmFwyyZUPGimV+Rg67rqhiVN/ZIn8Q9cGZLjCIIOCJwvmby3rF+ReUwqp0DqHbq+OGCwwrWrWj+nekIgovKUc9dpA7zfV77OqR280p9B8KtyMWLgUc8I5D5y+dZ02gIBFIEzNZmQQkEwiPAP8Ds+/zype1tC8GucmxUas8rNKmeQz/9XU4XOtvKoWKgBJ6+ID0kceqb0o6RbCe6ml87cZcJ/3ynhUO0elV6tqjmqqnUGbheLaq7ej7Ih+yMb5DyoK9kEZA7S1WyxiLG2vr1ExVjZAlVzc5qqJdoUpOxs9rVols/nZZ10y1rlqOLOtahauXSQyRm3TAaiCWBokXcr8/prSxrr9kxMtyALSbk5jwBkxxEQypV3L2uWhn1Dm1Pvb+3tlrG329e0ZGGzF5HZ7StmXEvyAtmy2Wp70D1WAZ9FitIFuhLTgIwDuQcF0gVAoGgJ6YhqCh9l35NZowU106mUvX6talBtco7d53gScszHsVhN5IZ1+NLwOh91NPYTt0LhKE6aPxyvcezvuZ0Zdvvz3alMsUtdaoo6lzapZ5lPb8raJfL9MZSbUBo6/stH9oHAe9MebAEAUMCBV9zzUXIOFnL307JzZR75XHOt8xl1Slqcpn5//uji/4a3nMXH0v3WZwh0Fu99EdGtAoC7ghwqExe4Zeh6E2AZZBLBhm0IVRZJrXbYgmds08yyA0Z4ksAOwfxHVto5pBAo6placFjp5PeIVSHTaG6SwJ8yPeFYQtdPu38MaMJi9F1dQ/sv8xhGZtUK+u8YzwBAjoEUqvxbleKK5bOXD2voeyAyZsMTQdD4i7VKFeSzhXJ3UoULUKli+dOyzhk652nNaOd+w65zgmROJBQ2DMCMA48Q4mG7BCQfbVVzzCAu5GdkfWmDv8w3npqY3p5xCJvGrRoRX/fwOKhvNulRAz5yff1oqJeprS11zVqxZyAWxecZy6UNyymW51iPtSKevy7+MIlmUER/pq3m50EBtBRLgJwK5JrPCANCIBAgASyNVb5YGa2bQSoLrqKFYFCImpWQSJH3u0KNI9ANpZ1rMYByoBA/AjAOIjfmEKjGBLg+Oco3hMwmt84PWzpvWRoMckE7OxWsjHw+uUdQ8N0VsgRf0JTHB2DQAIIwDhIwCDLpKLRZEwmGWWUpUeTqjKKFXmZ7JwtiLySUCC2BPjMS1jlsq7hBm5496pOdPXxDQJRn88EeFkQmtRLmmjLDwIwDvygijbTCKgnYJiMOXs5apYvSY+e04puOqkRXXNCAyUzb9zLyc2CM4QaVCkTd5zQL0oE8lZP7Pjnh73QwgdmSxYLbwrRUyQyO7d97UBG94dbT1QSJZYW54xQQCAJBHAgOQmjHLKO6h+6DvXgHuNkOMbd0zO/+oNntXLyaGTrdqxfidrXq0DTVmzzTYf3r+lMrWqVo3Il9VdeYcT6hh4NB0xAa0S80P/YgCXI7c5tBKZQhNV0yiGWOVHivd/OlEEcyAACvhMIz+z3XTV0ICOBu/o2k1EsyCQZgda1yvsqERsF1XK8dRXwVWA0nggC2om8mdJuDdigVtvNZPfqntfuPlZyIfiAFSHcjwsBGAcBjuS9/Voovf27b/MAew2/K/WPWCqGc/hS2Zfgtp5N7VdGTU8IuJ34mHV+3YkNzW7jHghIQwA+6faGooZwu/xA7AJ+/Zfj7T2QZS2MS5YA8XhkCMCtKMChukEkeDqvQ22qUrZEgL2G35X60JyTlbHwJc+VYEDXenRC48p03mtjacvuA67F4hwKBw4dcf18kh70+j357V8nU/3KpendMUttYVRnJ7X1ACqBgAcE/DCKPRDLkybsnKNw09HJzaq5eQzPgAAImBDAzoEJHD9uJc0wYIas80viMNfbV3YiPsQWxVK/chmRzj47ya/sFm50j+ykD/Zpr7fv+eCxkzazHOpgYaG32BG4uHNdQ51qV+CMx0T92tRMq+PX5NtQkATeOL9DHU+0jvL5C08AoBHpCcA4kH6I4iHg2eIwV++W1eOhjEst4rwq6BKJ4WNertyXKmYvwoja3Q9jZTg0uBEAAT4Pc2pz/RXxX//Rg365o4dIgFYlAEnMu3CSDyQOn6m7T0+WS7D56ONunAnAOIjz6EI3EIgoAa8mEhz16Pu/nZBBoV6l0hnXujcpmGw52WXIaAgXQMAlAfVku1gR/f0rPrfVtHqOyx7CeywOOxslbS40WFHWH1mrp3AfBIIjgDMHwbFGTyAAAjYJZOvClepm4Plt0yZSo+86hXbtP0QcmhAFBJJAwCtDOwmsoCMIgEAuARgHeBNAAASkI+ClW5Faubo6Owap+2VK4OtQuhcBAklNgI3sFVv2SC2jjMLhzIGMowKZ1ATgVoT3AQRAQDoCF3UyPpDpRFgnq6YNxaHlf/RuSo+d29pJF6gLAlIT4HCffpV3rupEXRpUspW5/ShhSuzXOKBdEPCaAIwDr4miPRAAgawJNK5WlqY/0If6e2Qk2BXo7z2b0OWIKmUXF+p5TODWno0dt8jBHrjcJEJl65VbT22id9mTa3z24Yubj5PicLQnCqEREAABhQCMA7wIIAACUhIoX7oYXd8dicukHBwI5RmB1MHjk5pWdTXJfuaitvSVmKDfeZp+9vmywl2uS8NKnsmLhkAABOJPAMZB/McYGnpEoFiRYD8uZ+WtCHokfiSbaSJWJvskPARuJAcOQtsmMPT2HsQ7Vi9d0t72M+qKJYoWoU7CtaeoyfcTouO4QouHQCCxBIKd7SQWMxSPA4E3Lu9INX3031Uz4qg6L/Y/Ng7YstbhkXNwBiBriGhAWgKNqpZVzrrwThkKCIAACMhAAMaBDKMAGSJBoF3dCjTunp5UvpT/P+IcVSeq2aS9Hkw+UNmrRbIT6HnNFO0li4AUkbgSfB75X32aJuuFg7aRJ4DYfZEfQigQFQJIrOV+pJxEHVL3UqtCKfed4kkQCJGAk+zDVmI+fHYrWr11L12HMzxWqHAfBEBAEIBxgNcABBwSKCWyZG7fe9DhU6geNIFPru9KfBgTBQSSToB3Iofe0SPpGKTRPw7ZoqWBCUF8IQC3Il+wotE4E3j7yk7UoHJp4tU4J6WIV2l/nXSa4LrVyyELcoKHH6qDgLQEkPNB2qGBYHkEYBzgVQABhwTa1ClPv915Cl3YsY6jJ2/s3kgxKlBAAARAAARAAARAQFYCMA5kHRnIJT0BPuTH8cU50oidUrFMccWoOL9DbTvVUceAwMR7exrcSb9cuwIMMVugUAkEQCBQAnArChQ3OnNBAMaBC2h4BARSBDi+ePt6FVwDmflQHzquUWXXzyfxwWo5JW2pXap4EVv1UAkEQCB7AlbnexIcrCh7uGgBBAImAOMgYODoDgTUBHJKFiO3kXhAEgRAIL4Eova98OG1XeI7GFlqpt0pgKGUJVA87jsBGAe+I0YHIKAhgF8GvBIgAAIWBLQTSovqod+OmjETKjD8BoSKH51bE4BxYM0INUDAVwLlxO6BunRvUsXX/tA4CIAACARN4AYRkCGpRW0LFC9SmN6+qlNSUUDviBBAEPCIDBTElJdAnYrWB19v69mkQIFC6bo8eHZL2rRrP115fANqWTOH6lcuI6+yIUmmQRaSFOgWBIIjoLcS/0+bwQ+Ck9JeT10aVqKqOckNLazeBZr7aF9CWGt77w1qhUcAxkF47NFzTAg0rFKG3rqiI1UuW4J4VWj8ks30+M9z07S7w+RHvWb5UvTVX46PCQ1/1MAuvD9c0Wq0CNyqXmSQTHQzN6i4pni574wW9NhP6d/1VsMCw8CKEO7LQABuRTKMAmSIPIE+rWpQx/oViXMg1K1UKvL6QAEQAIFwCRwxm22HKxp6zyNwfYJdpfASxJsAjIN4jy+0A4FYEIBbUSyGEUo4IHBik6oOaqOqzAR6t6yuiNdOLB6hgEAUCMA4iMIoQcaIEcBU1usBg1uR10TRnuwEBnSpJ7uItuVL+iZIlZziNOeR0+jbW06wzQwVQSBMAjAOwqSPvmNPoH7l0nS1OGiMAgIgAAJOCLBveru67hMsOukLdf0nULp4USoc18MX/uNDDwETwIHkgIGju2QR+O1fJ4skZ+k7Ce3rVaRvpq5OFogstcVeTJYA8TgIhEhAL/JSiOIE3zW2PoNnjh6zIgDjICt8eBgEzAloDQOufWnnulRE/FpyeD8UdwTa16tA01Zsc/cwngIBEPCcQAOxS4oCAiAQDwJwK4rHOEILiQhYrZIVFeFOB3StR42rlZVIarlFgSEl9/hAOhDgUM5Db+8hcrWUAwwQAIGIE8DOQcQHEOKDQBIIXCXObeSULErdGlVW1D14+Iip2rXKlzS9j5sgAALeE2hWI4dqVyxFc9bu8L5xtAgCIBAYARgHgaFGR0khULwoNuS8HutiYrelf+eC6C2zVptPPh4+p7XXIqA9EAABEAABEEgEARgHiRhmKBkkge6Nq1D3JlWoBbbXg8Se1pewJVBAAARCIJD0sKUhIEeXIOA5ARgHniNFg0knwGcKBl3XNekYoD8IgAAIxJ7AKwPa0xeTV9HvCzYa6sq/CSggECUCeGOjNFqQFQRAwBYBdkNCAYGoE4hmCN94x+0sWyJ3TbVYkdzRObNtLfro2i66toPfaQAABW1JREFUr1rnBhXplpOPoUpliuvex0UQkJUAdg5kHRnIBQIg4IpArxbV6fhjqrh6Fg+BAAhkRyDubkWf39SNnvx5Hv27b3NLUHf0borvIktKqCAjARgHMo4KZAIBEHBN4J2rOrl+Fg+CAAhkRyDe+wZErWqVp4+vh9todm8JnpadAPbeZR8hyAcCIAACIAACIAACIAACARGAcRAQaHQDAiAAAiAAAk4IFI7moQMnKqIuCICAhARgHEg4KBAJBEAABEAABIoWjt5P9NG4HzrAawkCCSAQvW+eBAwKVAQBEAABEACBIhHcOugpAgJwKScymndtWEn5/5d1rZ/IwSxfqlgi9YbS0SeAA8nRH0NoAAKJI1C9XAlav2N/4vSGwskiUDQvXGaUtL60Sz2qXq4ktatbniqUKk4rtuymxtVyoqSCJ7J2qFdBObyMAgJRJICdgyiOGmQGgYQTqFgaccMT/gokQv1rT2gYOT15t6N3y+pULackFS9aOJGGAQ/arT2bRG7sIDAIpAjAOMC7AAIgEDkCcGuO3JBBYBcETmlezcVTeAQEQAAEsiMA4yA7fngaBEBAEgKchfSdK5HjQJLhgBgeEahTsZRHLaEZEAABELBHAGcO7HFCLRAAAYkInNqiGs1fvzNNoqn395ZIQogCAiAAAiAAAtEkgJ2DaI4bpAaBRBO4vVcTeubCtlSmeJFEc4DyIAACIAACIOA1ARgHXhNFeyAAAr4TKFG0CF3Uqa4SFQUFBEAABEAABEDAOwIwDrxjiZZAAARAAARAAARAAARAINIEYBxEevggPAiAAAiAAAiAAAiAAAh4RwDGgXcs0RIIgAAIgAAIgAAIgAAIRJoAjINIDx+EBwEQAAEQAAEQAAEQAAHvCMA48I4lWgIBEAABEAABEAABEUkNkeLxGkSXAIyD6I4dJAcBEAABEAABEJCMQKFCRJ0bVJRMKogDAvYJwDiwzwo1QQAEQAAEQCBQAkePBtodOvOAwGPntqZCbCGggEBECcA4iOjAQWwQAAEQAAEQAAH5CMCgk29MIJEzAjAOnPFCbRAAARAAARAAARAAARCILQEYB7EdWigGAiAAAiAAAiAAAiAAAs4IwDhwxgu1QQAEQAAEQAAEQAAEQCC2BGAcxHZooRgIgAAIgEDUCbwyoD2VK1mUBp7fJuqqJEZ+nCFPzFDHVlEE4o3t0EIxEAABEACBqBNoX68i/flAHypcGNFvoj6WkB8EokIAOwdRGSnICQIgAAIgkEgCMAwiNuwIVxSxAYO4WgIwDrRE8DcIgAAIgAAIgAAIgAAIJJQAjIOEDjzUBoE4EChdokgc1IAOIAACMSKAMwcxGsyEqgLjIKEDD7VBIA4EXuh/LDWrnkOvDugQB3WgAwiAQEQJNK+Rky85vIoiOogQO59AoaOigAcIgAAIgAAIgAAIgIA7AgcPH6FbPplKs1dvp6F39KCcksXcNYSnQEACAjAOJBgEiAACIAACIAACIBB9AkeOHEVkqegPY+I1gHGQ+FcAAEAABEAABEAABEAABEAglwDOHOBNAAEQAAEQAAEQAAEQAAEQUAjAOMCLAAIgAAIgAAIgAAIgAAIgoBCAcYAXAQRAAARAAARAAARAAARAQCEA4wAvAgiAAAiAAAiAAAiAAAiAgEIAxgFeBBAAARAAARAAARAAARAAAYUAjAO8CCAAAiAAAiAAAiAAAiAAAgoBGAd4EUAABEAABEAABEAABEAABBQCMA7wIoAACIAACIAACIAACIAACCgEYBzgRQABEAABEAABEAABEAABEFAIwDjAiwACIAACIAACIAACIAACIKAQgHGAFwEEQAAEQAAEQAAEQAAEQEAh8P9EXkrpWcA5+gAAAABJRU5ErkJggg==;clipPath=inset(0% 3% 0.42% 2.67%);" parent="1" vertex="1">
          <mxGeometry x="280.07" y="570" width="95.53" height="40" as="geometry" />
        </mxCell>
        <mxCell id="woaUJ1NgNmfOBe0f4mOw-14" value="" style="shape=image;verticalLabelPosition=bottom;labelBackgroundColor=default;verticalAlign=top;aspect=fixed;imageAspect=0;image=data:image/svg+xml,PHN2ZyB4bWxuczp4bGluaz0iaHR0cDovL3d3dy53My5vcmcvMTk5OS94bGluayIgeG1sbnM9Imh0dHA6Ly93d3cudzMub3JnLzIwMDAvc3ZnIiB4bWw6c3BhY2U9InByZXNlcnZlIiB2aWV3Qm94PSIwIDAgNDcwIDQ3MCIgaWQ9IkxheWVyXzEiIHZlcnNpb249IjEuMSIgd2lkdGg9IjgwMHB4IiBoZWlnaHQ9IjgwMHB4IiBmaWxsPSIjMDAwMDAwIj4mI3hhOzxnPiYjeGE7CTxwYXRoIGQ9Ik0yMzUsMzAyLjI5NmM0Ny4xNzcsMCw4NS40MjMtMzguMjQ1LDg1LjQyMy04NS40MjNWODUuNDIzQzMyMC40MjMsMzguMjQ1LDI4Mi4xNzcsMCwyMzUsMHMtODUuNDIzLDM4LjI0NS04NS40MjMsODUuNDIzJiMxMDsmIzk7JiM5O3YxMzEuNDUxQzE0OS41NzcsMjY0LjA1MSwxODcuODIzLDMwMi4yOTYsMjM1LDMwMi4yOTZ6Ii8+JiN4YTsJPHBhdGggZD0iTTM1MC40MjMsMTM2LjE0OHYzMGgxNXY1MC43MjZjMCw3MS45MTUtNTguNTA4LDEzMC40MjMtMTMwLjQyMywxMzAuNDIzcy0xMzAuNDIzLTU4LjUwNy0xMzAuNDIzLTEzMC40MjN2LTUwLjcyNmgxNXYtMzAmIzEwOyYjOTsmIzk7aC00NXY4MC43MjZDNzQuNTc3LDMwMC4yNzMsMTM4LjU1MSwzNjksMjIwLDM3Ni41ODlWNDQwaC05MC40NDR2MzBoMjEwLjg4OXYtMzBIMjUwdi02My40MTEmIzEwOyYjOTsmIzk7YzgxLjQ0OS03LjU4OSwxNDUuNDIzLTc2LjMxNywxNDUuNDIzLTE1OS43MTZ2LTgwLjcyNkgzNTAuNDIzeiIvPiYjeGE7PC9nPiYjeGE7PC9zdmc+;" parent="1" vertex="1">
          <mxGeometry x="260.07" y="578.75" width="20" height="20" as="geometry" />
        </mxCell>
        <mxCell id="woaUJ1NgNmfOBe0f4mOw-15" value="" style="shape=image;verticalLabelPosition=bottom;labelBackgroundColor=default;verticalAlign=top;aspect=fixed;imageAspect=0;image=data:image/svg+xml,PHN2ZyB4bWxuczp4bGluaz0iaHR0cDovL3d3dy53My5vcmcvMTk5OS94bGluayIgeG1sbnM9Imh0dHA6Ly93d3cudzMub3JnLzIwMDAvc3ZnIiB4bWw6c3BhY2U9InByZXNlcnZlIiB2aWV3Qm94PSIwIDAgNDcwIDQ3MCIgaWQ9IkxheWVyXzEiIHZlcnNpb249IjEuMSIgd2lkdGg9IjgwMHB4IiBoZWlnaHQ9IjgwMHB4IiBmaWxsPSIjMDAwMDAwIj4mI3hhOzxnPiYjeGE7CTxwYXRoIGQ9Ik0yMzUsMzAyLjI5NmM0Ny4xNzcsMCw4NS40MjMtMzguMjQ1LDg1LjQyMy04NS40MjNWODUuNDIzQzMyMC40MjMsMzguMjQ1LDI4Mi4xNzcsMCwyMzUsMHMtODUuNDIzLDM4LjI0NS04NS40MjMsODUuNDIzJiMxMDsmIzk7JiM5O3YxMzEuNDUxQzE0OS41NzcsMjY0LjA1MSwxODcuODIzLDMwMi4yOTYsMjM1LDMwMi4yOTZ6Ii8+JiN4YTsJPHBhdGggZD0iTTM1MC40MjMsMTM2LjE0OHYzMGgxNXY1MC43MjZjMCw3MS45MTUtNTguNTA4LDEzMC40MjMtMTMwLjQyMywxMzAuNDIzcy0xMzAuNDIzLTU4LjUwNy0xMzAuNDIzLTEzMC40MjN2LTUwLjcyNmgxNXYtMzAmIzEwOyYjOTsmIzk7aC00NXY4MC43MjZDNzQuNTc3LDMwMC4yNzMsMTM4LjU1MSwzNjksMjIwLDM3Ni41ODlWNDQwaC05MC40NDR2MzBoMjEwLjg4OXYtMzBIMjUwdi02My40MTEmIzEwOyYjOTsmIzk7YzgxLjQ0OS03LjU4OSwxNDUuNDIzLTc2LjMxNywxNDUuNDIzLTE1OS43MTZ2LTgwLjcyNkgzNTAuNDIzeiIvPiYjeGE7PC9nPiYjeGE7PC9zdmc+;" parent="1" vertex="1">
          <mxGeometry x="260.13999999999993" y="620" width="20" height="20" as="geometry" />
        </mxCell>
        <mxCell id="woaUJ1NgNmfOBe0f4mOw-16" value="" style="shape=flexArrow;endArrow=classic;html=1;rounded=0;fillColor=#e1d5e7;strokeColor=#9673a6;" parent="1" edge="1">
          <mxGeometry width="50" height="50" relative="1" as="geometry">
            <mxPoint x="386.07" y="612" as="sourcePoint" />
            <mxPoint x="446.07" y="612" as="targetPoint" />
          </mxGeometry>
        </mxCell>
        <mxCell id="woaUJ1NgNmfOBe0f4mOw-17" value="SSL" style="text;html=1;align=center;verticalAlign=middle;whiteSpace=wrap;rounded=0;fontSize=18;" parent="1" vertex="1">
          <mxGeometry x="386.07" y="624" width="60" height="30" as="geometry" />
        </mxCell>
        <mxCell id="woaUJ1NgNmfOBe0f4mOw-18" value="[(&lt;font style=&quot;color: rgb(184, 84, 80);&quot;&gt;d&lt;sub&gt;1&lt;/sub&gt;&lt;/font&gt;, &lt;font style=&quot;color: rgb(215, 155, 0);&quot;&gt;θ&lt;sub&gt;1&lt;/sub&gt;&lt;/font&gt;), (&lt;font style=&quot;color: rgb(184, 84, 80);&quot;&gt;d&lt;sub&gt;2&lt;/sub&gt;&lt;/font&gt;, &lt;font style=&quot;color: rgb(215, 155, 0);&quot;&gt;θ&lt;sub&gt;2&lt;/sub&gt;&lt;/font&gt;), (&lt;font style=&quot;color: rgb(184, 84, 80);&quot;&gt;d&lt;sub&gt;3&lt;/sub&gt;&lt;/font&gt;,&amp;nbsp;&lt;font style=&quot;color: rgb(215, 155, 0);&quot;&gt;θ&lt;sub&gt;3&lt;/sub&gt;&lt;/font&gt;)]" style="text;html=1;align=left;verticalAlign=middle;whiteSpace=wrap;rounded=0;fontSize=18;" parent="1" vertex="1">
          <mxGeometry x="456.07" y="596" width="233.93" height="30" as="geometry" />
        </mxCell>
      </root>
    </mxGraphModel>
  </diagram>
</mxfile>
